<svg width="20" height="21" viewBox="0 0 20 21" fill="none" xmlns="http://www.w3.org/2000/svg">
<path fill-rule="evenodd" clip-rule="evenodd" d="M6.14409 0.527565C7.12771 -0.0536448 7.12772 -0.0536457 7.80848 0.057036L8.00336 0.394795L7.77825 0.524671L7.90817 0.749844L7.71593 1.02606C7.24199 1.72229 6.83286 2.38672 6.53655 3.17668C6.43664 3.39963 6.43664 3.39963 6.21154 3.52951L6.34146 3.75468L6.11635 3.88456L6.24627 4.10973L6.02117 4.23961L6.21604 4.57736L5.99094 4.70724L6.18581 5.045L5.96071 5.17487L6.15558 5.51263L5.93048 5.64251L6.12536 5.98027L5.90025 6.11014L6.09513 6.4479L5.87003 6.57778L6.12986 7.02813L5.90476 7.158L6.2945 7.83352L6.0694 7.96339C6.74539 9.8399 7.66194 11.7563 9.21236 13.0553C9.45329 13.2748 9.60261 13.5045 9.73728 13.8006L9.96238 13.6707L10.7071 14.4415L10.9322 14.3117L11.1921 14.762L11.4172 14.6321L11.5471 14.8573L11.7722 14.7274L12.032 15.1778L12.2571 15.0479L12.3871 15.2731L12.6122 15.1432L12.7421 15.3684L12.9672 15.2385L13.0971 15.4637L13.3222 15.3338L13.4521 15.559L13.6772 15.4291L13.8071 15.6543L14.1062 15.6007C14.5082 15.5538 14.8544 15.5771 15.2566 15.6152C16.6843 15.6894 18.1246 15.3261 19.3961 14.6806L19.7685 15.066C19.6591 15.8287 19.1891 16.3052 18.7124 16.8759C18.6463 16.963 18.5802 17.0501 18.5121 17.1399C17.7288 18.1031 16.6555 18.7095 15.5909 19.3147L15.1767 19.5571C14.4565 19.9706 13.8017 20.2969 12.9897 20.4778L12.8598 20.2526L12.5639 20.3858C12.0121 20.5644 11.5079 20.5966 10.9311 20.615C10.8214 20.6188 10.7118 20.6226 10.5988 20.6265C9.67321 20.645 8.79254 20.5652 7.91137 20.2564L7.78146 20.0312L7.55635 20.1611L7.42644 19.9359L7.20134 20.0658L7.07142 19.8406L6.84632 19.9705L6.58649 19.5202L6.36138 19.65L6.23147 19.4249L6.00636 19.5547L5.39151 19.0091L5.16641 19.139L4.90658 18.6886L4.68148 18.8185L4.42165 18.3682L4.19654 18.498L3.80679 17.8225L3.58169 17.9524C2.98369 17.4364 2.57904 16.8428 2.14766 16.183C1.98384 15.8856 1.98384 15.8856 1.76737 15.8478C1.63469 15.6524 1.63468 15.6524 1.49347 15.4056L1.35049 15.1598C1.24771 14.9471 1.24771 14.9471 1.2953 14.7696C1.17836 14.5125 1.05538 14.2581 0.929348 14.0053C0.558113 13.2608 0.558108 13.2608 0.61099 13.0635C0.501131 12.7775 0.387222 12.493 0.268835 12.2105L0.493937 12.0806L0.104189 11.4051L0.329291 11.2752L0.0694593 10.8249L0.294562 10.695L0.0347297 10.2446L0.259832 10.1148L0 9.66442L0.225102 9.53455L0.0302283 9.19679L0.255331 9.06692L0.0604565 8.72916L0.285559 8.59928L0.155643 8.37411L0.380745 8.24423L0.361491 7.98335C0.346016 7.66402 0.346016 7.66401 0.376244 7.19638L0.601346 7.0665L0.47143 6.84133C0.766094 6.09099 1.15499 5.46006 1.62323 4.80744L1.80328 4.55174C2.16727 4.03679 2.54168 3.53047 2.92119 3.02688L3.14653 2.71866C3.63668 2.24913 4.22241 1.95328 4.81719 1.63283L4.68728 1.40765C5.06378 1.1773 5.44249 0.950837 5.82171 0.724993L6.14409 0.527565ZM2.28639 12.8472L2.26903 12.5571L2.04393 12.687L2.28639 12.8472Z" fill="#FFFCFF"/>
</svg>
