<svg width="31" height="21" viewBox="0 0 31 21" fill="none" xmlns="http://www.w3.org/2000/svg">
<path fill-rule="evenodd" clip-rule="evenodd" d="M0.0232484 4.57238C0.423208 4.56063 0.746741 4.56059 1.1175 4.71698C1.19431 4.74844 1.27112 4.77995 1.35025 4.81236C1.43172 4.84689 1.51323 4.88139 1.59716 4.91697C1.77648 4.99026 1.95598 5.06322 2.13558 5.13585C2.22815 5.1733 2.32072 5.21077 2.4161 5.24936C2.87001 5.42787 3.33014 5.58731 3.79088 5.74679C4.57511 6.01917 5.35065 6.30908 6.12389 6.61177C7.08715 6.98818 8.05815 7.31605 9.04885 7.61036V7.8354L9.29259 7.82134C9.62906 7.83644 9.85886 7.91999 10.1631 8.06044V8.28547L10.6088 8.39799C10.7817 9.21153 10.859 9.96682 10.8291 10.7973C10.8263 10.9059 10.8235 11.0146 10.8206 11.1264C10.8145 11.3595 10.808 11.5926 10.8009 11.8256C10.782 12.4487 10.7669 13.0719 10.752 13.6951C10.7489 13.8233 10.7458 13.9516 10.7426 14.0837C10.722 14.9963 10.7163 15.9082 10.7198 16.821C10.7203 16.9456 10.7207 17.0702 10.7211 17.1986C10.7238 17.7983 10.7282 18.398 10.7342 18.9976C10.7355 19.2137 10.7368 19.4298 10.7381 19.6458C10.7396 19.7444 10.741 19.843 10.7426 19.9445C10.7454 20.6242 10.7454 20.6243 10.4974 21C9.73392 20.8538 9.03255 20.6161 8.30586 20.3385C7.95731 20.2201 7.62973 20.1495 7.26601 20.0999V19.8748L6.98048 19.8959C6.5297 19.8711 6.22627 19.7249 5.81746 19.5373C5.50783 19.4595 5.50778 19.4595 5.26032 19.4247V19.1997L5.02354 19.2138C4.66044 19.1978 4.3738 19.1021 4.03463 18.9747V18.7496H3.58892V18.5246H3.14321V18.2996L2.85071 18.3136C2.46089 18.2991 2.16871 18.214 1.80608 18.0745V17.8495H1.13752V17.6245H0.468957V17.3994H0.246103V16.7243H0.0232484V16.2742H0.246103C0.225529 15.7857 0.225523 15.7857 0.0232484 15.3741C0.0121249 15.1505 0.00867284 14.9264 0.00844943 14.7025L0.00801417 14.2898L0.00931996 13.8551L0.00801417 13.4204L0.00844943 13.0077C0.00857511 12.8817 0.00864639 12.7558 0.00877588 12.626C0.0231934 12.3361 0.0232497 12.3361 0.134676 12.2236C0.16084 11.978 0.180766 11.7317 0.197353 11.4852L0.225645 11.0769L0.246103 10.7609H0.0232484V8.28547H0.246103C0.19162 8.19752 0.191565 8.19752 0.135981 8.10779C-0.0116591 7.75122 -0.00186864 7.46375 0.00148523 7.07766L0.00366155 6.63594C0.00552337 6.48255 0.00740991 6.32915 0.00931996 6.17576C0.0104383 6.02061 0.0114551 5.86545 0.0123668 5.71031C0.0149937 5.33098 0.0186606 4.95169 0.0232484 4.57238ZM9.16028 19.4247L9.2717 19.1997H9.04885L9.16028 19.4247ZM9.2717 10.0858H9.49456L9.2717 9.63569V10.0858Z" fill="#FFFCFF"/>
<path fill-rule="evenodd" clip-rule="evenodd" d="M20.4144 4.34734C20.7487 4.23484 20.7487 4.23483 21.083 4.34734C21.0857 5.0183 21.0877 5.68929 21.0891 6.36025C21.0896 6.58868 21.0904 6.81715 21.0914 7.04558C21.0927 7.37317 21.0934 7.70076 21.0939 8.02835C21.0944 8.13114 21.095 8.23396 21.0956 8.33986C21.0956 8.58431 21.0899 8.82875 21.083 9.0731C20.8924 9.26559 20.6435 9.20027 20.3835 9.20056L20.022 9.201L19.6414 9.19968L19.2621 9.201L18.9001 9.20056C18.79 9.20043 18.6798 9.20036 18.5663 9.20023C18.2973 9.18567 18.2973 9.1856 18.0744 9.0731C17.852 9.06216 17.6291 9.05838 17.4063 9.05815L17.0017 9.05771L16.5771 9.05903L16.1539 9.05771L15.7488 9.05815C15.5645 9.05834 15.5645 9.0584 15.3765 9.05859C15.0564 9.05936 15.0564 9.05932 14.7316 9.18562V9.41065H14.5088L14.5127 9.6203L14.5157 9.89589L14.5197 10.1688C14.5088 10.4233 14.5088 10.4233 14.3974 10.7609L14.46 11.0422C14.5088 11.3234 14.5088 11.3235 14.2859 11.661H14.5088V14.8115C15.9486 15.2961 17.6067 15.0249 19.0777 14.7487C19.4641 14.6912 19.8359 14.6841 20.2264 14.6849L20.6429 14.6841C20.9715 14.699 20.9716 14.699 21.083 14.8115C21.0911 15.1336 21.0933 15.4529 21.0899 15.7749L21.0884 16.0499C21.0871 16.2747 21.0851 16.4995 21.083 16.7243H20.8601V16.9494H20.4144V17.1744H19.9687V17.3994H19.523V17.6245H18.743V17.8495H18.2973V18.0745L17.4485 18.4262C17.1831 18.5246 17.183 18.5246 16.9602 18.5246V18.7496C16.7842 18.8256 16.6076 18.9004 16.4309 18.9747L16.1332 19.1013C15.8459 19.1997 15.8459 19.1997 15.4002 19.1997V19.4247H14.9545V19.6498L14.7577 19.7285C14.2242 19.9428 13.6934 20.162 13.1647 20.3882C12.6167 20.6201 12.0666 20.8189 11.5002 21C11.2721 20.7696 11.3418 20.3047 11.3261 19.9873C11.3192 19.8509 11.3191 19.8508 11.312 19.7116C11.2633 18.6802 11.2234 17.6399 11.3038 16.6094C11.383 15.5834 11.3934 14.566 11.384 13.5369C11.3829 13.3922 11.3817 13.2475 11.3805 13.0985C11.3755 12.4929 11.3701 11.8874 11.3613 11.2819C11.3549 10.8358 11.352 10.3896 11.3492 9.94335C11.3452 9.73749 11.3452 9.73747 11.3412 9.52746C11.3408 9.4004 11.3404 9.27334 11.34 9.14243C11.3386 9.03093 11.3373 8.91943 11.3359 8.80455C11.404 8.42592 11.535 8.29136 11.8345 8.06044H12.1688V7.8354C14.717 6.82276 14.717 6.82274 15.4002 6.82274V8.51051L15.8459 8.39799V8.06044C16.2867 7.90636 16.4401 7.97291 16.9602 8.06044V5.9226C18.4291 5.26333 18.4291 5.26331 18.6968 5.14398C18.8788 5.06176 19.06 4.97775 19.2405 4.89213C19.3719 4.83045 19.372 4.83045 19.506 4.76753C19.5843 4.73008 19.6626 4.69261 19.7432 4.65402C19.9687 4.57239 19.9687 4.57238 20.4144 4.57238V4.34734ZM19.6344 16.0492L19.9687 16.1617V15.8242H19.7459L19.6344 16.0492ZM12.5031 9.41065L12.9488 9.29813V8.96058H12.7259L12.5031 9.41065ZM12.9488 8.96058H13.1717V8.73554H12.9488V8.96058ZM19.7459 6.14763H19.9687L19.8573 5.81008L19.7459 6.14763Z" fill="#FFFCFF"/>
<path d="M23.7572 6.71022V6.93526L24.4258 7.16029V7.38533L25.0944 7.61036V7.8354H25.5401V8.06044L26.2086 8.28547V8.51051L26.8772 8.73554V8.96058H27.2115V9.18562H27.5458V9.41065H27.88V9.63569H28.2143V9.86072H28.5486V10.0858H28.8829V10.3108H29.2172V10.5358H29.6629V10.7609H29.8857V10.9859H30.3314V11.2109H30.5543V11.436L31 11.661V11.886H30.7771V12.1111L30.1086 12.3361V12.5612H29.8857V12.7862L29.2172 13.0112V13.2363L29.0322 13.3404C28.3289 13.7504 27.6778 14.2135 27.0281 14.7035C25.8405 15.5991 25.8405 15.5991 25.5401 15.5991V15.8242H25.2058V16.0492H24.8715V16.2742H24.6487V16.4993H24.2029V16.7243H23.9801V16.9494H23.3115V14.0239C21.9221 14.0712 20.5384 14.1212 19.1539 14.2489C19.0517 14.2583 18.9494 14.2677 18.8441 14.2773C18.3446 14.3215 18.3445 14.3215 17.8541 14.4203C17.5982 14.4813 17.3684 14.4885 17.1056 14.4889L16.8083 14.4893L16.5005 14.488L16.1902 14.4893L15.8938 14.4889C15.8044 14.4888 15.715 14.4887 15.6229 14.4886C15.4002 14.474 15.4002 14.4739 15.1773 14.3614V9.86072H15.6231V9.63569H19.9687V9.86072H20.6373V9.63569H20.9716V9.86072H21.3058V9.63569H21.5287V9.86072H22.8658V9.63569H23.0887V7.27281H22.8658V6.93526H23.0887V6.5977L23.7572 6.71022Z" fill="#FFFCFF"/>
<path d="M5.48318 2.09699H5.81746V2.32202H6.3746V2.54706H6.8203V2.77209H7.48887V2.99713H8.15743V3.22216H8.60314V3.4472L8.90956 3.49643C9.18419 3.54443 9.44871 3.59919 9.71741 3.67224V3.89727L9.95419 3.87618C10.3533 3.90247 10.5864 4.05133 10.9431 4.23483C11.114 4.28945 11.2859 4.34075 11.4585 4.38954C12.0148 4.54982 12.5338 4.77011 13.0646 5.00092C13.3719 5.1258 13.6743 5.22222 13.9934 5.31078C14.4612 5.44335 14.792 5.62563 15.1773 5.9226C14.85 6.19247 14.5419 6.35294 14.1471 6.50277L13.8087 6.6333L13.4572 6.76648C13.2273 6.85389 12.9976 6.94179 12.7682 7.03019C12.6666 7.0687 12.5649 7.10721 12.4602 7.14689C12.1586 7.27721 11.8918 7.43888 11.6117 7.61036C11.3536 7.67189 11.3535 7.6719 11.1033 7.69475L10.8521 7.72112C10.6026 7.72293 10.4014 7.68237 10.1631 7.61036V7.38533L9.86366 7.34006C8.77015 7.14083 7.70925 6.66019 6.66829 6.27608C5.05639 5.68188 3.43617 5.11358 1.80608 4.57238V4.34734L1.49966 4.30515C1.18325 4.24371 0.967478 4.17038 0.691811 4.00979V3.67224H1.13752V3.4472H1.58323V3.22216H2.02894V2.99713H2.58607V2.77209H3.14321V2.54706H3.70034V2.32202H4.36891V2.09699C4.77222 1.94889 5.04814 1.87195 5.48318 1.87195V2.09699Z" fill="#FFFCFF"/>
<path d="M9.2717 0.296699C10.2175 -0.0497094 10.8703 -0.146701 11.8115 0.300654C12.1631 0.455883 12.5244 0.582666 12.8861 0.711608L13.3035 0.860607L13.6174 0.971806V1.19684C14.0608 1.29183 14.5055 1.35964 14.9545 1.42188V1.64691H15.6231V1.87195H16.2916V2.09699H16.7373V2.32202H17.5173V2.54706H18.0744V2.77209H18.743V2.99713L18.9798 2.98306C19.3429 2.99901 19.6295 3.09473 19.9687 3.22216V3.4472H20.4144V3.89727C19.4558 4.39921 18.5054 4.79225 17.4555 5.05498C17.1822 5.12577 17.1822 5.1258 16.9445 5.25848C16.6242 5.41546 16.4071 5.33632 16.0688 5.24749L15.4002 4.90993C15.0396 4.83032 15.0395 4.83031 14.7316 4.79742V4.57238L14.4252 4.52315C14.1506 4.47516 13.8861 4.42039 13.6174 4.34734V4.12231H13.1717V3.89727H12.6145V3.67224H11.946V3.4472H11.3888V3.22216L11.152 3.23623C10.7889 3.22029 10.5023 3.12457 10.1631 2.99713V2.77209H9.49456V2.54706H9.04885V2.32202H8.60314V2.09699H7.93458V1.87195L7.68387 1.82272C7.43091 1.77047 7.18159 1.71232 6.93173 1.64691C6.94566 1.43597 6.94566 1.43593 7.04316 1.19684C7.44388 1.017 7.71552 0.971806 8.15743 0.971806V0.74677C8.56074 0.598677 8.83667 0.521734 9.2717 0.521734V0.296699Z" fill="#FFFCFF"/>
</svg>
