<svg width="32" height="21" viewBox="0 0 32 21" fill="none" xmlns="http://www.w3.org/2000/svg">
<path fill-rule="evenodd" clip-rule="evenodd" d="M11.1802 4.44137C11.5098 4.52059 11.8281 4.61962 12.1488 4.73002L12.4169 4.82198L12.6193 4.89194V5.11723L12.9237 5.16651C13.1965 5.21456 13.4593 5.26938 13.7262 5.34252V5.5678L14.0194 5.55196C14.4162 5.56891 14.6541 5.65421 15.013 5.82125C15.5603 6.07397 16.1155 6.26867 16.6858 6.45894C17.4147 6.70627 18.1348 6.97928 18.8567 7.24712L19.2125 7.37846C19.3703 7.43698 19.3703 7.43691 19.5312 7.49661C19.7722 7.58058 20.0091 7.65031 20.2572 7.70804V7.93332L20.5616 7.9826C20.8345 8.03066 21.0972 8.08548 21.3642 8.15861V8.3839H21.5856C21.6806 9.95703 21.7066 11.5194 21.6868 13.0951C21.6843 13.3214 21.6819 13.5478 21.6796 13.7741C21.6746 14.2427 21.6692 14.7114 21.6634 15.18C21.656 15.7817 21.6497 16.3835 21.6437 16.9852C21.639 17.4499 21.6337 17.9146 21.6283 18.3793C21.6257 18.6015 21.6234 18.8237 21.6211 19.0459C21.618 19.3537 21.6142 19.6615 21.6101 19.9693C21.6093 20.0612 21.6085 20.1531 21.6076 20.2478C21.5982 20.8744 21.5982 20.8745 21.4749 21C20.82 20.9704 20.2981 20.7224 19.7016 20.4592C19.345 20.3132 19.0043 20.2246 18.6284 20.1503C17.8452 19.991 17.11 19.7552 16.3829 19.423C16.2365 19.381 16.0893 19.3407 15.9401 19.3103V19.0851L15.698 19.0991C15.3637 19.084 15.1354 19.0004 14.8332 18.8598V18.6345H14.3904V18.4092H13.9476V18.1839L13.6639 18.205C13.2161 18.1802 12.9147 18.0338 12.5086 17.846C12.201 17.7681 12.2009 17.7681 11.9551 17.7333V17.508H11.2909C11.1393 17.1995 11.1662 16.9481 11.1802 16.6069L11.2909 16.3816H11.623V16.1563C11.8331 15.9865 11.8332 15.9865 12.1073 15.8043L12.3797 15.6204C12.6193 15.4805 12.6193 15.4805 12.8406 15.4805V15.2552C13.1727 15.0299 13.1727 15.0299 13.5048 15.0299V14.8046H13.7262V14.5793L14.3904 14.354V14.1287L14.8332 14.0161V13.7908C15.0127 13.6776 15.1926 13.565 15.3728 13.4529L15.6763 13.2628C15.9401 13.1149 15.9401 13.1149 16.1615 13.1149V12.8896L16.4313 12.7348C16.7248 12.5802 16.7248 12.5801 16.8257 12.3264H17.0471L16.9364 11.5379L16.3829 11.3126V11.0873H15.9401V10.8621L15.2759 10.6368V10.4115H14.8332V10.1862H14.6118V9.96091H14.2797V9.73562H13.9476V9.51034H13.7262V9.28505H13.2834V9.05976H13.062V8.83447H12.6193V8.60919L11.9551 8.3839V8.15861H11.623V7.93332H11.2909V7.70804H11.0695C10.8713 7.30465 10.9384 6.83567 10.9381 6.39151L10.934 6.089C10.9327 5.49446 10.9889 5.00381 11.1802 4.44137ZM19.9251 19.3103H20.2572V19.0851H19.9251V19.3103ZM15.4973 17.508H15.7187V17.2828H15.4973V17.508ZM20.2572 9.96091H20.4786V9.73562H20.2572V9.96091Z" fill="white"/>
<path fill-rule="evenodd" clip-rule="evenodd" d="M31.8802 4.21608C31.9643 4.88453 32.0021 5.52124 31.9775 6.19395C31.9736 6.32704 31.9736 6.32708 31.9696 6.4629C31.9612 6.74419 31.9519 7.02549 31.9425 7.30674C31.8652 9.72055 31.8867 12.1214 31.952 14.5355C31.961 14.8728 31.9693 15.2101 31.9775 15.5473C31.9805 15.6507 31.9835 15.7541 31.9866 15.8605C31.9888 15.9554 31.991 16.0504 31.9933 16.1482C31.9955 16.2316 31.9977 16.315 32 16.401C31.9909 16.6068 31.9909 16.6069 31.8802 16.8322H31.4374V17.0575H30.9947V17.2828H30.5519V17.508H29.8877V17.7333H29.2235V17.9586H28.7808V18.1839H28.338V18.4092C28.055 18.5608 27.7713 18.7107 27.487 18.8598L27.2451 18.99C26.8209 19.2108 26.5033 19.3733 26.0134 19.3103V19.5356L25.3756 19.7666C25.1192 19.8699 25.1192 19.8699 24.8675 20.0359C24.5333 20.2361 24.1974 20.3697 23.8341 20.5072C23.367 20.6808 23.3669 20.6808 22.9139 20.8874H22.2497V15.0299H22.4711V13.1149H22.2497V12.5517H22.4711V11.3126H22.2497V10.8621H22.4711V8.15861H22.9139V7.93332H23.3567V7.70804L23.556 7.65391C24.2061 7.46769 24.7958 7.22596 25.3998 6.91821C25.7018 6.79878 25.9137 6.77667 26.2348 6.80689C26.3454 6.9195 26.3455 6.91956 26.3563 7.25086L26.3524 7.65875L26.3494 8.06753L26.3455 8.3839H26.7882V8.15861H27.0096V7.93332L27.6738 8.15861L27.6621 7.81276C27.659 7.66053 27.656 7.50825 27.653 7.35602L27.6446 7.12898C27.6369 6.59677 27.7188 6.23867 28.0059 5.79309C28.2018 5.65229 28.2018 5.65228 28.4279 5.5678L28.6908 5.46396L29.0021 5.34252C29.2721 5.22082 29.5419 5.09881 29.8116 4.97642C30.2553 4.77575 30.5055 4.66665 30.9947 4.66665V4.44137C31.3163 4.29981 31.5256 4.21608 31.8802 4.21608ZM30.5519 16.1563H30.7733V15.7057H30.5519V16.1563ZM23.5781 9.28505H23.7995V9.05976H23.5781V9.28505ZM23.7995 9.05976L24.0209 8.94712L23.7995 8.83447V9.05976ZM30.5519 6.13102H30.7733V5.90574H30.5519V6.13102Z" fill="white"/>
<path fill-rule="evenodd" clip-rule="evenodd" d="M8.74492 7.03217L8.98837 7.1237C9.29492 7.25596 9.55402 7.40834 9.83112 7.59539L10.0962 7.7714L10.2947 7.93332V8.15861L10.9588 8.3839V8.60919H11.2909V8.83447H11.623V9.05976H11.9551V9.28505H12.2872V9.51034H12.6193V9.73562H12.8406V9.96091H13.2834V10.1862H13.5048V10.4115L13.7124 10.4608C13.9476 10.5241 13.9476 10.5241 14.169 10.6368V10.8621H14.6118V11.0873H14.8332V11.3126H15.2759V11.5379H15.4973V11.7632H15.7187V11.9885H15.9401V12.2138C15.3411 12.6643 15.3411 12.6644 15.0545 12.6644V12.8896H14.8332V13.1149L14.169 13.3402V13.5655L13.7262 13.6782V13.9034L13.062 14.1287V14.354C12.463 14.8046 12.463 14.8046 12.1765 14.8046V15.0299L11.9274 15.1777C11.6267 15.3579 11.6267 15.3579 11.3809 15.5579C11.1802 15.7057 11.1802 15.7057 10.9588 15.7057V15.931H10.7374V16.1563H10.4054V16.3816H10.0733V16.6069C9.7412 16.8322 9.74117 16.8322 9.40909 16.8322V17.0575H9.1877V17.2828H8.85562V17.508H8.52353L8.41284 16.8322L8.34365 16.4731C8.30214 16.1563 8.30216 16.1563 8.41284 15.8184C8.43769 15.5677 8.45798 15.3164 8.4751 15.0651L8.50321 14.6625L8.52353 14.354C7.6618 14.3374 6.80377 14.365 5.94295 14.4033C5.83864 14.4077 5.73433 14.4121 5.62686 14.4166C5.47578 14.4237 5.47572 14.4238 5.32159 14.431C5.23208 14.4352 5.14258 14.4392 5.05036 14.4435C4.74679 14.4638 4.74676 14.4639 4.39657 14.5245C3.93901 14.5854 3.49821 14.5935 3.03763 14.5903C2.95028 14.5901 2.8629 14.5899 2.77289 14.5898C2.49662 14.5891 2.22036 14.5878 1.94408 14.5863C1.75563 14.5858 1.56717 14.5853 1.37872 14.5848C0.919141 14.5836 0.459572 14.5816 0 14.5793V14.0161H0.22139L0.207554 13.5796C0.199771 13.3341 0.199776 13.334 0.22139 13.1149L0.442781 12.8896V12.5517H0.22139V12.2138H0.442781V11.9885H0.22139V11.7632C0.625196 11.6199 1.0177 11.5009 1.43904 11.4253L0.664171 11.3126V11.0873L0.22139 10.9747V10.6368H0V10.2988H0.22139V9.96091H0.664171V9.73562H1.10695V9.96091H1.32834V9.73562H1.66043V9.96091H5.86685V10.1862H6.9738V9.96091H8.30214C8.28663 9.56899 8.27039 9.17706 8.25371 8.78519L8.24052 8.44616L8.22647 8.12385C8.22241 8.02535 8.21833 7.92679 8.21415 7.8253C8.21557 7.5962 8.21557 7.59619 8.08075 7.48275C8.07625 7.29508 8.07602 7.10719 8.08075 6.91953C8.30214 6.80689 8.30214 6.80689 8.74492 6.80689V7.03217ZM9.40909 15.4805H9.63048V15.2552H9.40909V15.4805ZM8.96631 8.83447L9.40909 8.72183L8.96631 8.60919V8.83447Z" fill="white"/>
<path d="M14.8332 2.18849C15.6117 1.96609 16.2857 1.81286 17.0471 2.18849V2.41378H17.6005V2.63907H18.0433V2.86435H18.5968V3.08964H19.261V3.31493H19.8144V3.54022H20.3679V3.7655H20.9214V3.99079H21.5856V4.21608L21.89 4.26536C22.1628 4.31341 22.4256 4.36823 22.6925 4.44137V4.66665H23.3567V4.89194L23.5733 4.92758C24.0191 5.02948 24.4415 5.1806 24.8718 5.33548L25.1306 5.4259L25.3782 5.51456C25.4523 5.54098 25.5265 5.56732 25.6029 5.59454C25.792 5.68036 25.792 5.68045 26.0134 5.90574C25.5539 6.2408 25.1443 6.45047 24.602 6.63088C24.0108 6.83567 23.4692 7.07131 22.9234 7.37934C22.6925 7.48274 22.6925 7.48275 22.2497 7.48275V7.70804C21.6321 7.75983 21.1945 7.5799 20.6377 7.34194C19.9485 7.05806 19.2637 6.80653 18.5497 6.59348C17.9245 6.39673 17.3094 6.17126 16.693 5.94776C16.602 5.91487 16.5109 5.88198 16.4171 5.84809C16.3358 5.81852 16.2545 5.78891 16.1708 5.75844C15.9481 5.6831 15.7257 5.62246 15.4973 5.5678V5.34252L13.7262 4.89194V4.66665H13.062V4.44137L12.8199 4.45545C12.4856 4.44033 12.2573 4.35669 11.9551 4.21608V3.99079H11.623C11.6489 3.7774 11.649 3.77735 11.7337 3.54022C11.943 3.42625 11.943 3.42625 12.2041 3.35013L12.4753 3.26917C12.7433 3.19877 13.01 3.13452 13.2834 3.08964V2.86435H13.8369V2.63907H14.3904V2.41378H14.8332V2.18849Z" fill="white"/>
<path fill-rule="evenodd" clip-rule="evenodd" d="M20.2901 0.294118C21.0503 -0.044606 21.5198 -0.0866248 22.2982 0.146713L22.5436 0.214916C22.7413 0.270154 22.9384 0.327867 23.1353 0.386081V0.611369L23.4397 0.660651C23.7125 0.708703 23.9753 0.763522 24.2423 0.836656V1.06194L25.3492 1.28723V1.51252H26.1241V1.73781L26.4285 1.72373C26.7748 1.73728 26.9417 1.78191 27.231 1.96309V2.18838H28.0059V2.41367H28.5594V2.63896H29.2235V2.86424H29.8877V3.08953L30.1299 3.07545C30.4641 3.09057 30.6924 3.17421 30.9947 3.31482V3.54011H31.2161V3.76539H30.9947V3.99068C30.6528 4.18946 30.5261 4.21597 30.1091 4.21597V4.44126L29.6888 4.58118C29.506 4.64247 29.3233 4.70378 29.1405 4.76511L28.8638 4.85707L28.5957 4.94727C28.5145 4.97441 28.4334 5.0016 28.3498 5.02956C28.1124 5.11354 28.1124 5.11352 27.8819 5.23845C27.6055 5.37654 27.4258 5.37565 27.1203 5.34241C26.8194 5.22317 26.8194 5.22316 26.5115 5.06784C26.1215 4.87217 25.7798 4.7356 25.3492 4.66654V4.44126L25.1347 4.40606C24.6779 4.30169 24.2415 4.14651 23.7995 3.99068V3.76539H23.1353V3.54011H22.4711V3.31482H21.807V3.08953L20.7 2.86424V2.63896H20.1465V2.41367H19.5931V2.18838H19.1503V1.96309L18.0433 1.73781V1.51252H17.8219V1.28723H18.154V1.06194L18.3776 1.00782C19.0539 0.833589 19.6641 0.607741 20.2901 0.294118ZM28.5594 3.54011V3.31482H28.338L28.5594 3.54011ZM21.3642 1.28723H21.5856V1.06194H21.3642V1.28723Z" fill="white"/>
</svg>
