<svg width="125" height="175" viewBox="0 0 125 175" fill="none" xmlns="http://www.w3.org/2000/svg">
<path fill-rule="evenodd" clip-rule="evenodd" d="M58.9273 0.0726875C59.6056 -0.0131014 60.7159 -0.0251695 61.3943 0.0483481C62.0727 0.121889 63.9228 0.264927 65.5056 0.371145C67.0883 0.47736 69.2137 0.620492 70.2334 0.689951C71.2527 0.759389 72.4983 0.943212 73.0084 1.10252C73.5151 1.25795 73.7523 1.47265 73.7719 1.82552C73.8968 1.5677 74.0407 1.38469 74.1306 1.38422C74.2457 1.38422 76.0838 1.98083 78.2133 2.71212C80.7082 3.56986 82.0195 4.21934 81.9133 4.55034C81.8188 4.8322 82.0246 5.06099 82.3616 5.06107C82.7028 5.06105 82.888 4.87718 82.7729 4.65249C82.6621 4.42801 82.6621 4.24409 82.7729 4.2439C82.8881 4.24454 83.1634 4.79605 83.3894 5.46965C83.6155 6.14356 83.9854 6.69506 84.2116 6.6954C84.4377 6.6954 84.5323 6.51152 84.4172 6.28682C84.3066 6.06226 84.6271 5.89468 85.1366 5.91095C85.6463 5.92729 85.8314 6.02129 85.5479 6.11524C85.2643 6.20921 85.0339 6.47077 85.0338 6.6954C85.0338 6.92006 85.4038 7.00989 85.8559 6.89969C86.341 6.78122 87.5255 7.20216 88.7342 7.92115C89.8644 8.59507 90.7893 9.33057 90.7898 9.55548C90.7899 9.78006 90.8842 10.1476 90.995 10.3722C91.1101 10.5968 91.2049 10.9197 91.2091 11.0873C91.2091 11.2548 91.3775 11.1199 91.5831 10.7808C91.9078 10.2458 92.085 10.2582 93.0137 10.883C93.6016 11.2752 94.6296 12.1946 95.308 12.9259C95.9821 13.6571 96.4426 14.3926 96.3358 14.5602C96.2249 14.7277 96.3195 14.9606 96.5454 15.0709C96.7715 15.1812 96.9484 15.0463 96.9403 14.7645C96.9239 14.4011 97.1089 14.4297 97.5733 14.8667C97.9308 15.2056 98.2184 15.6184 98.2063 15.786C98.2027 15.8578 98.1567 15.9044 98.083 15.924C98.5365 16.1549 99.0879 16.6154 99.4771 17.1139C100.003 17.7877 100.579 18.3842 100.752 18.4418C100.861 18.4782 100.866 18.7349 100.782 19.0921C100.843 19.003 100.901 18.9522 100.949 18.9521C101.105 18.9525 101.932 20.2396 102.795 21.8122C103.654 23.3844 104.348 24.8098 104.345 24.9783C104.336 25.1458 104.707 25.7916 106.001 27.5319L105.632 27.5004C105.648 27.5108 105.66 27.5211 105.669 27.5319C105.755 27.6422 106.236 28.7497 106.733 29.9834C107.235 31.2172 107.938 33.5174 108.3 35.0903C108.662 36.6632 109.18 39.2371 109.455 40.8101C109.747 42.4729 109.924 46.6606 109.879 50.8196C109.84 54.1402 109.76 57.3097 109.687 58.5886C109.941 58.6596 110.113 59.3107 110.113 60.2162C110.113 61.0374 109.958 61.7221 109.759 61.8341C109.976 62.0862 110.113 62.5412 110.113 63.0762C110.113 63.7585 110.294 64.212 110.524 64.0977C110.75 63.9875 110.935 64.1673 110.935 64.5063C110.935 64.878 111.762 65.4011 113.032 65.8342C114.754 66.4224 115.231 66.8028 115.708 67.9792C115.933 68.5291 116.052 68.8951 116.07 69.1539C116.071 68.8714 115.964 68.4262 115.749 67.8276C115.198 66.296 115.207 66.2507 116.037 66.4794C116.51 66.606 117.591 66.9984 118.438 67.3456C119.285 67.6928 119.979 68.2526 119.98 68.5917C119.98 68.9307 120.346 69.2044 120.802 69.2046C121.254 69.2046 121.904 69.6664 122.241 70.226C122.582 70.7895 122.857 71.3411 122.858 71.4518C122.857 71.5619 122.673 71.562 122.447 71.4518C122.221 71.3417 121.945 71.4315 121.83 71.6561C121.719 71.8807 121.995 72.0642 122.447 72.0643C122.899 72.0643 123.368 72.3872 123.487 72.7793C123.606 73.1715 123.606 74.046 123.487 74.7201C123.368 75.3942 122.989 76.2196 122.644 76.5587C122.299 76.8977 121.884 77.0284 121.719 76.8527C121.884 77.0284 122.299 76.9427 122.644 76.6608C123.158 76.2402 123.318 76.277 123.553 76.8651C123.713 77.2573 123.848 78.1767 123.861 78.908C123.873 79.6348 123.98 80.2309 124.091 80.2315C124.202 80.2335 124.457 82.946 124.655 86.2621C124.848 89.575 125.004 92.933 125 93.718C124.996 94.5023 124.766 95.6996 124.49 96.3737C124.215 97.0478 123.943 98.0612 123.886 98.621C123.828 99.1849 123.589 100.745 123.355 102.094C123.121 103.442 122.977 105.648 123.031 106.996C123.084 108.344 123.236 109.815 123.364 110.265C123.491 110.714 123.717 112.737 123.865 114.759C124.009 116.781 123.984 118.619 123.803 118.844C123.849 118.981 123.911 119.355 123.968 119.866C124.066 120.764 123.931 121.394 123.594 121.557C123.302 121.7 123.187 121.974 123.335 122.17C123.483 122.362 123.701 123.625 123.824 124.973C123.943 126.321 124.235 127.93 124.477 128.547C124.753 129.258 124.773 129.932 124.531 130.386C124.343 130.737 124.248 131.51 124.301 132.193C124.56 132.062 124.569 132.128 124.33 132.469C124.42 133.185 124.313 133.852 124.091 133.961C124.012 133.999 123.939 133.984 123.877 133.928C123.88 133.939 123.882 133.95 123.886 133.961C124.009 134.325 123.84 134.574 123.474 134.574C123.133 134.574 122.953 134.39 123.064 134.165C123.175 133.941 123.084 133.757 122.858 133.757C122.632 133.757 122.348 134.08 122.229 134.472C122.11 134.864 122.249 135.321 122.537 135.485C122.829 135.652 123.203 135.791 123.372 135.791C123.54 135.795 123.585 136.073 123.474 136.412C123.355 136.772 123.064 136.898 122.768 136.719C122.381 136.482 122.369 136.6 122.722 137.229C122.986 137.696 123.036 138.042 122.864 138.479C122.997 138.338 123.123 138.251 123.211 138.251C123.396 138.251 123.388 138.619 123.203 139.068C123.014 139.517 122.887 140.113 122.923 140.395C122.956 140.677 122.891 141.18 122.776 141.519C122.656 141.858 122.233 143.145 121.83 144.379C121.427 145.613 120.913 146.809 120.683 147.034C120.604 147.113 120.543 147.163 120.5 147.185C120.442 147.61 120.345 148.143 120.243 148.567C120.099 149.184 119.75 149.686 119.466 149.678C119.183 149.674 119.088 149.809 119.256 149.984C119.421 150.16 119.314 150.487 119.014 150.712C118.714 150.936 118.159 151.995 117.785 153.061C117.411 154.127 117.008 154.907 116.897 154.797C116.86 154.761 116.785 154.762 116.684 154.793C116.688 154.825 116.691 154.861 116.691 154.899C116.695 155.067 115.984 155.941 115.116 156.84C114.249 157.739 113.369 158.768 113.159 159.128C112.954 159.483 112.086 160.402 111.231 161.17C110.376 161.934 109.541 162.412 109.381 162.237C109.236 162.078 109.55 161.59 110.094 161.092C109.928 161.208 109.727 161.329 109.509 161.436C108.851 161.759 108.58 162.135 108.772 162.458C108.973 162.795 108.904 162.863 108.567 162.662C108.288 162.495 108.057 162.54 108.057 162.764C108.057 162.989 107.778 163.173 107.441 163.173C107.104 163.173 106.651 163.496 106.446 163.888C106.236 164.28 105.911 164.464 105.726 164.296C105.537 164.125 105.031 164.309 104.596 164.705C104.16 165.097 103.93 165.191 104.082 164.909C104.234 164.627 104.279 164.399 104.18 164.398C104.086 164.399 103.716 164.676 103.358 165.011C102.902 165.444 102.717 165.477 102.729 165.113C102.73 165.075 102.73 165.04 102.729 165.008L91.512 170.379L86.4062 171.621C86.3014 171.712 86.1333 171.74 85.8824 171.748L81.4354 172.831V172.622C81.4014 172.625 81.3675 172.628 81.3338 172.631C80.3184 172.708 79.3439 172.957 79.1753 173.182C79.0261 173.376 78.938 173.195 78.954 172.782C78.9276 172.848 78.8989 172.914 78.8668 172.978C78.5009 173.701 78.1023 173.783 75.3725 173.693C73.6758 173.636 72.2909 173.681 72.289 173.795C72.289 173.905 71.6886 174.06 70.9527 174.142C70.2167 174.22 68.6913 174.277 67.5608 174.269C66.4303 174.257 65.0859 174.469 64.5761 174.739C63.832 175.127 63.2605 175.094 61.6983 174.563C59.832 173.93 59.7495 173.832 59.7495 172.349C59.7494 171.454 59.5317 170.74 59.2358 170.662C58.9482 170.584 58.8576 170.31 59.0302 170.032C59.2562 169.673 59.0383 169.62 58.208 169.828C57.5338 170 57.0774 169.951 57.0773 169.71C57.0775 169.485 57.3528 169.301 57.6939 169.301C58.031 169.301 58.3104 169.023 58.3104 168.688C58.3103 168.251 58.0472 168.145 57.3854 168.325C56.8758 168.464 56.2757 168.737 56.0495 168.933C55.7864 169.166 55.9714 169.587 56.5632 170.114C57.073 170.563 57.6733 170.841 57.8995 170.731C58.1256 170.617 58.4873 170.756 58.7052 171.037C58.923 171.315 59.0134 172.006 58.9024 172.569C58.7915 173.129 58.6314 173.68 58.5409 173.795C58.4505 173.905 58.2696 173.493 58.1381 172.876C58.0065 172.255 57.7143 171.752 57.4882 171.752C57.2623 171.752 57.1759 172.166 57.5087 173.591L56.6745 172.774C56.2141 172.324 55.6999 172.096 55.5314 172.267C55.3629 172.443 55.4615 172.811 55.7491 173.084C56.0326 173.362 56.2671 173.725 56.2632 173.897C56.2591 174.065 55.7902 174.02 55.2269 173.795C54.6595 173.57 53.6399 173.521 52.9576 173.693C51.8847 173.954 51.7119 173.885 51.7037 173.182C51.703 173.076 51.7055 172.985 51.7117 172.909C51.6259 173.195 51.2714 173.401 50.8076 173.415C50.2978 173.436 49.4669 173.525 48.9572 173.619C48.4475 173.717 48.0322 173.611 48.0322 173.386C48.032 173.162 47.7074 172.982 47.3128 172.986C46.6964 172.99 46.6841 173.047 47.21 173.386C47.6211 173.651 47.6554 173.784 47.3128 173.787C47.0292 173.791 46.5894 173.566 46.3304 173.284C46.0712 172.998 45.2078 172.831 44.3776 172.904C43.5512 172.978 42.256 172.729 41.4544 172.345C40.665 171.961 39.4601 171.605 38.7818 171.552C38.1036 171.503 37.4089 171.434 37.2402 171.401C37.0718 171.368 36.9318 171.07 36.9318 170.731C36.9316 170.392 36.6563 170.024 36.3152 169.914C35.9781 169.804 35.4064 169.983 35.0529 170.322C34.6952 170.661 34.0952 170.931 33.717 170.923C33.2362 170.915 33.3716 170.698 34.1648 170.208C34.2338 170.166 34.3002 170.121 34.3636 170.075C33.8958 170.316 33.141 170.425 32.6153 170.322C32.0521 170.212 31.5874 169.934 31.5874 169.71C31.5872 169.485 31.2173 169.395 30.7653 169.505C30.313 169.616 29.3426 169.403 28.6068 169.027C27.8709 168.651 26.9458 168.194 26.5511 168.006C26.1565 167.818 25.6466 167.667 25.4205 167.667C25.2696 167.667 25.0237 167.564 24.7851 167.412C24.7914 167.429 24.7981 167.446 24.8036 167.462C24.9515 167.908 24.783 168.018 24.187 167.871C23.7349 167.761 23.3645 167.483 23.3645 167.258C23.3643 167.033 22.9944 166.755 22.5423 166.645C22.0368 166.519 21.7983 166.204 21.9257 165.828C22.0408 165.489 21.9462 165.215 21.7201 165.215C21.4941 165.215 21.309 165.399 21.3088 165.624C21.3088 165.848 20.4003 165.436 19.2861 164.704C18.1765 163.973 17.3421 163.283 17.4321 163.173C17.5224 163.062 16.9097 162.645 16.0629 162.257C14.7352 161.641 14.5377 161.375 14.6282 160.317C14.6857 159.639 14.9159 159.182 15.1419 159.291C15.368 159.401 15.6478 159.312 15.7588 159.087C15.8737 158.862 15.6887 158.584 15.3475 158.474C15.0106 158.364 14.8258 157.996 14.9366 157.657C15.0517 157.318 14.957 157.044 14.731 157.044C14.505 157.044 14.3077 157.273 14.2912 157.555C14.2706 157.837 14.1719 158.523 14.0651 159.087C13.9582 159.646 13.769 160.202 13.6498 160.313C13.5305 160.423 13.214 160.202 12.9509 159.818C12.6878 159.434 12.2396 159.111 11.956 159.103C11.6027 159.091 11.6969 158.646 12.2641 157.657C12.7162 156.873 12.9301 156.227 12.7452 156.227C12.5561 156.227 12.26 156.366 12.0873 156.534C11.9187 156.701 11.4705 156.852 11.0965 156.864C10.7223 156.881 9.99875 156.468 9.48906 155.945C8.97954 155.426 8.70431 154.989 8.87253 154.973C9.04071 154.956 8.8435 154.817 8.43674 154.666C7.72981 154.405 7.73355 154.335 8.55161 153.367C9.02439 152.803 9.40672 152.252 9.40672 152.141C9.40211 152.031 9.16393 151.679 8.88056 151.365C8.44913 150.896 8.48202 150.842 9.07777 151.059C9.47237 151.206 9.79739 151.141 9.79753 150.916C9.79741 150.691 9.56702 150.516 9.28342 150.524C8.91775 150.54 8.94646 150.356 9.38624 149.895C9.94122 149.31 9.89194 149.249 8.87253 149.265C8.25196 149.273 7.74215 149.466 7.74189 149.69C7.74181 149.919 7.33065 149.984 6.81689 149.841C6.30728 149.698 5.84678 149.425 5.78906 149.229C5.73141 149.033 5.50099 148.967 5.27495 149.077C5.04887 149.188 4.86366 148.82 4.86366 148.26C4.86362 147.697 4.67884 147.239 4.45278 147.239C4.22673 147.239 4.04149 146.871 4.04149 146.422C4.04139 145.972 3.83192 145.466 3.57718 145.298C3.32241 145.131 3.1824 144.395 3.26871 143.668C3.35502 142.937 3.28504 142.34 3.11649 142.34C2.94773 142.336 2.48317 141.846 2.08866 141.241C1.55854 140.437 1.50507 140.114 1.88302 140.015C2.16661 139.946 2.397 139.701 2.39713 139.476C2.39704 139.252 2.2119 139.162 1.98584 139.272C1.75978 139.382 1.49247 139.064 1.39381 138.557C1.29517 138.051 1.2334 137.315 1.25805 136.923C1.28277 136.531 1.54604 136.208 1.85008 136.208C1.95606 136.208 2.05553 136.231 2.13967 136.271C1.81665 135.79 1.68047 135.152 1.66533 134.165C1.64886 133.152 1.43121 130.672 1.18455 128.65C0.937891 126.627 0.830859 124.421 0.945971 123.747C1.06518 123.072 1.1846 120.588 1.21749 118.231C1.2595 115.319 1.37302 114.182 1.73079 113.664C1.55143 113.729 1.3786 113.71 1.27452 113.594C1.10189 113.401 0.879915 112.298 0.781295 111.143C0.646936 109.508 0.679431 109.149 1.10543 109.273C0.920877 109.078 0.814875 108.766 0.8556 108.463C0.857328 108.45 0.85927 108.437 0.861223 108.425C0.710422 108.474 0.710014 108.372 0.859617 108.12C1.02815 107.838 1.02375 107.609 0.855198 107.609C0.686775 107.608 0.547138 106.963 0.547133 106.179C0.547161 105.395 0.732023 104.737 0.958021 104.72C1.18412 104.704 0.999302 104.532 0.547133 104.34C-0.155627 104.042 -0.172153 103.985 0.444311 103.96C0.838876 103.944 1.2869 104.255 1.44321 104.647C1.47807 104.737 1.52262 104.831 1.57254 104.925C1.55032 104.584 1.14556 104.049 0.649955 103.715C0.0992151 103.344 -0.106343 102.972 0.140262 102.796C0.366347 102.632 0.608897 100.206 0.682891 97.3952C0.752779 94.5884 0.777517 90.0817 0.732294 87.3853C0.687073 84.689 0.658295 81.9311 0.662407 81.257C0.670655 80.5828 0.761083 79.2061 0.872068 78.193C0.978973 77.1798 1.29118 75.1615 1.5625 73.699C1.82974 72.2364 2.2904 70.5855 2.58229 70.0218C2.87422 69.4621 3.55238 68.7062 4.09089 68.3507C4.62939 67.9912 5.62442 67.542 6.30277 67.354C6.98103 67.162 7.81595 66.9821 8.15317 66.9494C8.49042 66.9208 9.50979 66.7655 10.4141 66.6063C11.3514 66.4388 12.5437 65.8382 13.185 65.2049C14.3074 64.1059 14.3157 64.0487 14.4555 57.7651C14.5582 53.1894 14.7558 51.1872 15.1792 50.5498C15.2683 50.4146 15.3634 50.2982 15.462 50.2023C15.3074 50.3071 15.1585 50.4377 15.031 50.5865C14.3116 51.42 14.3034 51.4119 14.5213 50.0024C14.6406 49.2177 14.8254 46.5499 14.9282 44.0783C15.0351 41.6068 15.3065 39.4008 15.5367 39.1757C15.6725 39.0432 15.7461 38.8721 15.7496 38.7165C15.7103 38.6682 15.689 38.5886 15.6829 38.4715C15.6736 38.4578 15.6633 38.4444 15.652 38.432C15.5586 38.33 15.5777 38.2846 15.6837 38.2959C15.693 38.0905 15.728 37.81 15.7837 37.4393C15.9071 36.5975 16.3717 34.6651 16.8115 33.1495C17.2513 31.6343 17.7939 30.3926 18.0201 30.392C18.2462 30.392 18.4314 30.0242 18.4314 29.5748C18.4315 29.1254 18.8919 28.3449 19.4592 27.8384C20.08 27.2827 20.4047 26.6371 20.2814 26.204C20.1664 25.8118 20.3059 25.1622 20.5895 24.766C20.8731 24.3698 21.704 24.002 22.4399 23.9488C22.5874 23.9382 22.7334 23.9355 22.8732 23.9397C22.6939 23.9253 22.5113 23.9247 22.3366 23.9405C21.4201 24.0221 21.1406 23.8956 21.2433 23.4421C21.3218 23.1066 22.3616 21.4562 23.5536 19.7693C24.75 18.086 26.6905 15.647 27.8746 14.3559C29.5477 12.5258 30.284 12.0067 31.2171 12.0066C31.7478 12.0066 32.0778 12.0834 32.2546 12.2631C32.1114 12.0996 31.8808 12.007 31.5874 12.007C31.1354 12.0069 30.8597 11.823 30.9705 11.5984C31.0815 11.3738 31.3614 11.284 31.5874 11.3941C31.8135 11.5043 31.953 11.4226 31.8955 11.2102C31.8384 10.9975 32.4386 10.36 33.2318 9.80047C34.0457 9.22449 35.1641 8.8078 35.8096 8.84445C36.5786 8.89023 36.864 9.05484 36.9258 9.57024C36.8984 9.10399 36.7723 8.76211 36.6233 8.78739C36.4546 8.81186 36.0846 8.81189 35.8011 8.78739C35.4849 8.75867 35.4066 8.50118 35.5955 8.12145C35.7642 7.78638 37.0143 6.87109 38.3709 6.0949C39.7271 5.31485 40.9766 4.67349 41.1459 4.66486C41.3143 4.65669 41.4541 4.74661 41.4544 4.85678C41.4544 4.96709 41.0183 5.52281 40.488 6.08253C39.9355 6.6682 39.7599 7.02307 39.9835 7.09082C39.7682 7.01459 39.9849 6.60826 40.5868 5.98078C41.1747 5.3639 42.1205 4.64068 42.6878 4.37917C43.2508 4.11783 43.7604 3.88908 43.8185 3.86844C43.8615 3.85632 44.0789 4.01307 44.3507 4.2463C44.3433 4.2113 44.3397 4.176 44.3402 4.14176C44.3458 3.85949 46.1505 3.00585 48.3491 2.2381C50.5484 1.47417 53.0521 0.808382 53.9115 0.763368C54.7708 0.718422 55.5888 0.562814 55.7286 0.419823C55.8685 0.276881 56.3661 0.166693 56.8388 0.174833C57.2015 0.178013 57.7931 0.340708 58.3032 0.563466C58.1248 0.464611 57.9222 0.353305 57.6939 0.2283L58.9273 0.0726875ZM52.966 166.645C52.514 166.535 52.0535 166.625 51.9382 166.849C51.8273 167.074 51.9628 167.319 52.2463 167.393C52.6081 167.487 52.5504 167.728 52.0406 168.21C51.646 168.586 51.046 168.798 50.7048 168.688C50.339 168.566 50.0879 168.733 50.0878 169.097C50.0878 169.436 49.9976 169.983 49.8826 170.322C49.7716 170.661 49.8619 170.935 50.0878 170.935C50.3139 170.935 50.7785 171.209 51.1156 171.548C51.4549 171.885 51.7291 172.428 51.7322 172.768C51.7861 172.532 51.9265 172.576 52.2298 172.851C52.5217 173.117 52.9741 173.211 53.2331 173.056C53.4921 172.9 53.7633 172.222 53.8332 171.548C53.8576 171.326 53.8647 171.091 53.8589 170.867C53.8406 171.028 53.8092 171.19 53.7633 171.344C53.566 172.005 53.443 172.112 53.4183 171.65C53.3895 171.148 53.1343 170.996 52.5548 171.139C51.9094 171.299 51.7408 171.147 51.7655 170.424C51.782 169.918 51.8762 169.734 51.9708 170.016C52.0654 170.298 52.4234 170.526 52.7604 170.526C53.1016 170.526 53.3769 170.342 53.3769 170.118C53.3767 169.893 53.1467 169.595 52.8632 169.452C52.4565 169.252 52.4562 169.146 52.8588 168.941C53.1384 168.803 53.4593 168.275 53.5786 167.769C53.6258 167.564 53.6431 167.394 53.6288 167.252C53.3604 166.94 53.3083 166.836 53.4749 166.896C53.366 166.783 53.1991 166.703 52.966 166.645ZM65.2999 171.544C64.941 171.555 64.5633 171.592 64.2315 171.644C64.2765 171.679 64.3243 171.712 64.3749 171.74C64.7695 171.957 64.9543 172.141 64.7858 172.149C64.6175 172.153 64.5681 172.345 64.683 172.569C64.8104 172.827 65.123 172.786 65.5136 172.467C66.0271 172.048 66.0442 171.915 65.461 171.541C65.4067 171.541 65.3528 171.542 65.2999 171.544ZM71.6681 171.65C71.5515 172.18 71.2253 172.508 70.7744 172.561C70.8643 172.566 70.9585 172.569 71.0555 172.569C71.7339 172.569 72.289 172.475 72.289 172.365C72.2884 172.263 72.0305 171.898 71.6954 171.514C71.6863 171.56 71.6774 171.606 71.6681 171.65ZM69.8751 171.649C69.8954 171.86 69.8926 172.116 69.8715 172.263C69.8581 172.34 69.9664 172.412 70.1534 172.466C70.0211 172.391 69.9678 172.282 70.0277 172.161C70.1055 172.009 70.0385 171.812 69.8751 171.649ZM59.6467 154.576C59.4781 154.564 59.1327 154.793 58.8779 155.087C58.6231 155.377 58.4832 155.937 58.5695 156.329C58.6516 156.721 58.5365 157.138 58.3104 157.249C58.5364 157.134 58.8122 157.228 58.9273 157.453C59.0382 157.678 58.7176 157.947 58.208 158.049C57.4599 158.205 57.3815 158.34 57.8047 158.764C58.0883 159.054 58.3227 159.52 58.3188 159.802C58.3147 160.08 58.0681 160.313 57.7762 160.313C57.4802 160.313 57.0279 160.542 56.7648 160.823C56.4113 161.199 56.4074 161.547 56.7444 162.151C56.9951 162.6 57.4021 163.087 57.6529 163.23C57.8995 163.377 58.4256 163.377 58.8161 163.23C59.2108 163.087 59.6264 162.646 59.7415 162.253C59.8606 161.857 59.7247 161.473 59.441 161.391C59.1573 161.314 58.6968 161.314 58.4132 161.391C58.1297 161.473 57.8953 161.857 57.8911 162.253C57.887 162.862 57.8295 162.874 57.5047 162.355C57.2335 161.918 57.3527 161.534 57.92 161.028C58.3598 160.631 58.9068 160.313 59.133 160.313C59.3589 160.313 59.5437 160.497 59.5439 160.721C59.5439 160.946 59.7291 161.036 59.9552 160.925C60.1894 160.807 60.2799 161.069 60.1608 161.538C60.0238 162.083 60.1608 162.355 60.5717 162.355C61.0815 162.355 61.065 162.482 60.4689 163.103C60.0743 163.516 59.7043 163.789 59.6467 163.716C59.5887 163.643 59.2642 163.855 58.9273 164.194C58.5862 164.529 58.323 165.125 58.3393 165.522C58.364 166.13 58.4175 166.114 58.7052 165.42C59.0135 164.672 59.0672 164.664 59.2932 165.318C59.433 165.71 59.6838 165.955 59.8523 165.865C60.0209 165.771 60.5594 165.91 61.0444 166.172C61.7886 166.572 61.838 166.723 61.3529 167.156C60.8883 167.569 60.7773 167.548 60.7773 167.054C60.7772 166.629 60.4894 166.502 59.8523 166.637C59.3426 166.748 58.6969 166.842 58.4132 166.842C58.1298 166.846 57.8997 167.034 57.8995 167.258C57.8995 167.483 58.2695 167.573 58.7217 167.462C59.1739 167.348 59.8195 167.532 60.1608 167.871C60.4979 168.206 60.769 168.897 60.7609 169.403C60.7486 169.906 61.0281 170.551 61.3774 170.833C61.7226 171.111 61.9159 171.527 61.8052 171.752C61.6901 171.977 61.9696 172.161 62.4217 172.161C62.7362 172.161 63.0785 172.05 63.3146 171.89C63.0462 172.028 62.8415 172.015 62.8494 171.854C62.8543 171.759 62.9614 171.605 63.123 171.44C62.8321 171.513 62.6274 171.39 62.6273 171.127C62.6274 170.837 62.7674 170.678 62.9358 170.768C63.1043 170.862 63.2442 170.473 63.2443 169.914C63.2443 169.589 63.2905 169.325 63.3619 169.178C63.2747 169.213 63.2443 169.324 63.2443 169.505C63.2442 169.844 63.1043 170.118 62.9358 170.118C62.8308 170.118 62.7301 169.921 62.6635 169.624C62.625 169.699 62.5826 169.761 62.537 169.803C62.3602 169.971 62.0024 169.787 61.7393 169.395C61.4763 169.007 61.3448 168.549 61.4517 168.382C61.5545 168.21 61.9081 168.075 62.2369 168.075C62.3319 168.075 62.422 168.102 62.5024 168.15C62.4252 167.608 62.3044 166.998 62.1751 166.535C61.838 165.31 61.8834 165.199 62.7302 165.207C63.2399 165.211 63.6551 165.031 63.6551 164.807C63.655 164.582 63.4702 164.398 63.2443 164.398C63.0183 164.398 62.9277 164.124 63.0386 163.786C63.166 163.406 62.985 163.173 62.5574 163.173C62.1835 163.173 62.0109 163.034 62.1835 162.866C62.352 162.699 62.7056 162.552 62.9687 162.539C63.2358 162.531 63.3838 162.253 63.3017 161.927C63.2236 161.6 63.1289 160.921 63.0961 160.419C63.0672 159.916 62.8534 159.438 62.6273 159.357C62.4008 159.278 61.5705 158.408 60.7773 157.428C59.9883 156.448 59.5691 155.778 59.8523 155.937C60.2099 156.141 60.3047 155.982 60.1608 155.41C60.0498 154.961 59.8152 154.585 59.6467 154.576ZM69.5795 171.446C69.3623 171.343 69.1533 171.329 68.9706 171.395C68.9888 171.459 68.996 171.577 68.9999 171.752C69.0122 172.295 69.0576 172.295 69.4112 171.752C69.4935 171.624 69.5739 171.531 69.6437 171.478C69.623 171.467 69.6014 171.456 69.5795 171.446ZM68.771 171.509C68.6935 171.571 68.6238 171.653 68.5641 171.752C68.2887 172.218 68.0254 172.263 67.4704 171.932C67.3527 171.863 67.1861 171.799 66.9896 171.744C67.1525 171.822 67.3293 171.907 67.4953 171.989C68.0339 172.259 68.3544 172.189 68.6175 171.752C68.6773 171.653 68.7287 171.572 68.771 171.509ZM70.439 166.849C70.1021 166.85 69.8183 166.989 69.814 167.156C69.8099 167.323 70.0442 167.704 70.3278 168.002C70.7511 168.439 70.7349 168.516 70.2334 168.41C69.8963 168.336 69.4358 168.026 69.2055 167.712C68.9315 167.333 68.5638 167.265 68.1034 167.507C67.7254 167.708 67.4213 168.055 67.4335 168.28C67.446 168.504 68.1697 169.011 69.0493 169.403C69.9247 169.795 70.6438 170.391 70.6443 170.731C70.6443 171.07 70.8295 171.343 71.0555 171.344C71.1782 171.343 71.2614 171.235 71.2941 171.065C70.9467 170.672 70.5582 170.217 70.3362 169.942C70.0487 169.583 70.0034 169.301 70.2334 169.301C70.4577 169.301 70.9084 169.796 71.2367 170.41C71.1673 170.016 71.2607 169.71 71.4668 169.71C71.6928 169.71 71.8736 169.938 71.8737 170.22C71.8708 170.422 71.8208 170.809 71.7536 171.199C71.8407 171.231 71.8722 171.069 71.8902 170.731C71.9313 169.967 71.9683 169.975 72.4204 170.845C72.6875 171.356 73.136 171.772 73.4197 171.764C73.7032 171.756 73.8386 171.569 73.7277 171.344C73.6128 171.119 73.7527 170.931 74.0362 170.927C74.3678 170.921 74.3335 170.803 73.9334 170.571C73.4157 170.277 73.4527 170.175 74.139 169.942C74.8337 169.709 74.8667 169.607 74.3447 169.285C73.8516 168.978 73.9134 168.9 74.6531 168.896C74.8433 168.895 75.0074 168.92 75.1323 168.963C74.9941 168.759 74.7936 168.52 74.5503 168.28C73.9871 167.716 73.3373 167.352 73.1112 167.462C72.8852 167.573 72.8153 168.079 72.9549 168.586C73.2098 169.497 73.2057 169.497 72.5151 168.688C72.133 168.239 71.9231 168.1 72.0544 168.382C72.2024 168.704 72.0585 168.815 71.6721 168.688C71.3351 168.578 71.0556 168.116 71.0555 167.667C71.0555 167.213 70.7801 166.85 70.439 166.849ZM76.614 169.812C76.2729 169.979 76.0797 170.392 76.1947 170.731C76.3056 171.058 76.7884 171.291 77.4161 171.335C76.8973 171.216 76.4446 171.003 76.318 170.796C76.185 170.573 76.333 170.151 76.6521 169.789C76.639 169.797 76.6268 169.805 76.614 169.812ZM63.6708 169.232C63.7605 169.458 63.8 169.866 63.758 170.29C63.7346 170.523 63.7498 170.742 63.7981 170.939C64.1605 170.768 64.5163 170.775 64.781 170.964C64.6677 170.798 64.6256 170.639 64.683 170.527C64.7741 170.342 64.9791 170.246 65.1746 170.281C64.994 170.093 64.7534 169.892 64.4773 169.71C64.1175 169.471 63.8568 169.313 63.6708 169.232ZM76.5919 169.327C76.3197 169.538 75.9418 169.696 75.6637 169.708C75.6759 169.709 75.6887 169.71 75.7014 169.71C75.9468 169.71 76.3165 169.544 76.5919 169.327ZM77.7326 166.623C77.9031 166.647 77.8728 167.097 77.6418 167.973C77.4838 168.584 77.1952 169.185 76.9172 169.535C77.3403 169.177 77.8327 168.893 78.0447 168.892C78.2708 168.892 78.567 168.48 78.6985 167.973C78.8465 167.409 78.7271 166.948 78.3901 166.776C78.1769 166.667 77.9232 166.612 77.7326 166.623ZM75.3347 169.422C75.3335 169.435 75.333 169.447 75.3335 169.459C75.3384 169.442 75.3402 169.422 75.3383 169.399L75.3347 169.422ZM53.9384 167.837C53.8457 168.265 53.7405 168.627 53.6525 168.79C53.5597 168.962 53.5362 169.199 53.5745 169.422C53.564 169.153 53.6323 168.837 53.7718 168.586C53.9198 168.317 53.9754 168.07 53.9384 167.837ZM35.2457 168.529C35.0907 168.686 35.0281 168.851 35.0862 168.995C35.0968 169.02 35.1025 169.048 35.1067 169.077C35.1047 169.047 35.1001 169.02 35.0898 168.995C35.0298 168.851 35.0913 168.686 35.2457 168.529ZM77.6775 166.629C77.6197 166.637 77.5696 166.651 77.5309 166.674C77.3634 166.767 77.228 167.257 77.2305 167.76C77.2286 167.256 77.409 166.755 77.6338 166.645C77.6491 166.638 77.6639 166.633 77.6775 166.629ZM54.1971 166.354C54.1603 166.514 54.1299 166.681 54.1087 166.849C54.1076 166.859 54.1059 166.868 54.1047 166.877C54.1588 166.761 54.1896 166.587 54.1971 166.354ZM23.7275 164.902C23.5839 165.249 23.5331 165.777 23.6155 166.134C23.6999 166.518 23.9497 166.834 24.1722 166.848C23.9751 166.583 23.8174 166.269 23.7802 166.033C23.7226 165.694 23.7021 165.191 23.7267 164.909C23.727 164.907 23.7273 164.904 23.7275 164.902ZM38.3938 163.87C38.3769 164.004 38.3883 164.118 38.4327 164.194C38.5636 164.418 38.3321 165.289 37.9126 166.134C37.9282 166.105 37.9444 166.075 37.9596 166.045C38.4118 165.142 38.642 164.263 38.4693 164.096C38.4202 164.046 38.3962 163.967 38.3938 163.87ZM54.8369 165.099C54.8194 165.121 54.7937 165.142 54.7582 165.162C54.7467 165.168 54.7357 165.177 54.7241 165.186C54.8292 165.179 54.8636 165.148 54.8369 165.099ZM53.9754 163.525C53.9318 163.639 53.8373 163.763 53.6894 163.916C53.306 164.312 53.3477 164.466 53.9814 164.625C53.5954 164.406 53.5483 164.19 53.7922 163.888C53.8931 163.764 53.9535 163.645 53.9754 163.525ZM24.8935 163.026C24.8226 163.966 24.631 164.601 24.4501 164.463C24.3037 164.355 24.0983 164.41 23.93 164.584C24.0169 164.535 24.1248 164.518 24.2401 164.541L24.3204 164.561C24.6319 164.619 24.8165 164.128 24.8935 163.026ZM72.4947 162.355C72.4526 162.355 72.4112 162.358 72.3714 162.363C72.378 162.363 72.385 162.364 72.3918 162.363C72.9343 162.355 73.0864 162.642 73.0084 163.524C72.9399 164.303 73.0771 164.643 73.4197 164.545C73.7073 164.463 73.8428 164.039 73.7277 163.581C73.6179 163.15 73.6738 162.907 73.9185 162.806C73.4618 162.855 73.123 162.801 73.1196 162.662C73.1152 162.495 72.8316 162.355 72.4947 162.355ZM71.9781 162.542C71.915 162.606 71.8782 162.682 71.8781 162.764C71.8781 162.944 71.6696 163.1 71.3841 163.159C71.4925 163.171 71.5894 163.178 71.6721 163.177C72.6217 163.164 72.7616 163.07 72.289 162.764C72.1439 162.671 72.0399 162.598 71.9781 162.542ZM53.1323 162.525C53.3554 162.634 53.5574 162.761 53.6894 162.887C53.772 162.965 53.8382 163.036 53.8882 163.102C53.84 163.019 53.7738 162.936 53.6894 162.85C53.5758 162.735 53.3763 162.622 53.1323 162.525ZM76.9285 160.037C76.8515 160.131 76.7714 160.224 76.6883 160.313C76.1662 160.877 75.6397 161.608 75.5163 161.947C75.3977 162.273 74.8498 162.625 74.278 162.749C74.6778 162.726 75.3447 162.456 75.7834 162.131C76.2356 161.796 76.3755 161.526 76.0918 161.53C75.8084 161.534 76.0428 161.032 76.6059 160.415C76.7186 160.292 76.8268 160.165 76.9285 160.037ZM50.8497 161.742C50.9848 161.534 50.8661 161.482 50.5457 161.592C50.5645 161.601 50.5836 161.61 50.6019 161.62C50.6788 161.661 50.7625 161.701 50.8497 161.742ZM39.4602 160.925C39.5687 159.988 39.4899 159.755 38.3315 159.879C38.3894 160.018 38.5236 160.186 38.7368 160.415C39.0298 160.733 39.2797 161.155 39.3598 161.454C39.4052 161.27 39.4401 161.09 39.4602 160.925ZM48.7584 159.12C48.7443 159.799 48.8658 160.323 49.06 160.341C49.2861 160.362 49.2409 160.456 48.9572 160.55C48.6737 160.644 48.4436 160.905 48.4435 161.13C48.4435 161.354 48.723 161.444 49.06 161.334C49.263 161.268 49.59 161.287 49.9288 161.369C49.9343 161.228 49.8423 161.13 49.6769 161.13C49.4509 161.13 49.3603 160.807 49.4713 160.415C49.5904 159.998 49.3768 159.508 48.9576 159.25C48.8825 159.203 48.8159 159.16 48.7584 159.12ZM111.346 160.109C110.894 160.219 110.529 160.452 110.537 160.619C110.538 160.667 110.501 160.729 110.437 160.801C110.803 160.506 111.165 160.248 111.437 160.083C111.408 160.092 111.378 160.101 111.346 160.109ZM112.754 158.59C112.649 158.645 112.517 158.679 112.374 158.679C112.008 158.679 111.84 158.928 111.963 159.292C112.045 159.534 111.974 159.751 111.778 159.908C111.812 159.897 111.84 159.891 111.86 159.892C112.029 159.9 112.39 159.397 112.666 158.78C112.693 158.72 112.723 158.656 112.754 158.59ZM39.175 158.588C39.0998 158.83 38.8919 159.114 38.6424 159.292C38.4534 159.426 38.3421 159.536 38.3094 159.656L38.7818 159.295C39.234 158.948 39.4643 158.666 39.2959 158.67C39.2331 158.672 39.1926 158.641 39.175 158.588ZM39.6453 156.227C39.7029 154.932 39.6657 154.883 39.2465 155.675C39.0099 156.123 38.8593 156.318 38.6814 156.294C38.9317 156.47 39.0627 156.409 39.1601 156.125C39.2547 155.843 39.3493 155.937 39.3658 156.329C39.3822 156.721 39.0288 157.138 38.5765 157.249C38.0956 157.367 37.7544 157.792 37.7544 158.27C37.7544 158.719 37.9393 159.087 38.1652 159.087C38.3914 159.087 38.5723 158.674 38.5641 158.168C38.56 157.662 38.6959 157.404 38.8726 157.588C39.0362 157.762 39.1737 158.09 39.1999 158.345C39.2195 158.29 39.2469 158.23 39.2834 158.168C39.4479 157.885 39.6083 157.011 39.6453 156.227ZM54.8337 154.157C54.9463 154.286 55.0216 154.45 55.0217 154.593C55.0217 154.818 54.7419 155.091 54.4048 155.206C54.0635 155.316 53.4182 155.226 52.966 155.001C52.5715 154.805 52.2331 154.504 52.1451 154.286C52.0438 154.347 51.9727 154.416 51.9422 154.491C51.8271 154.772 51.8682 155.23 52.0366 155.512C52.0626 155.556 52.084 155.595 52.1009 155.63C52.1156 155.626 52.1299 155.621 52.1435 155.614C52.3695 155.5 52.5546 155.594 52.5548 155.819C52.5548 156.043 52.1396 156.309 51.6298 156.411C51.1201 156.513 50.5692 156.378 50.4047 156.105C50.2508 155.858 50.1679 155.775 50.128 155.858C50.2177 155.905 50.2739 155.961 50.2854 156.023C50.3265 156.247 50.3017 156.292 50.2236 156.125C50.2011 156.074 50.1584 156.026 50.1023 155.983C50.0988 156.022 50.0968 156.07 50.0963 156.125C50.0921 156.403 49.903 156.542 49.6769 156.431C49.4576 156.321 49.4537 156.095 49.6528 155.813C49.6267 155.81 49.6003 155.807 49.5741 155.806C49.2907 155.802 49.1962 155.937 49.3644 156.113C49.533 156.288 49.5002 156.615 49.2905 156.84C49.1068 157.037 48.9073 157.729 48.811 158.464C48.8252 158.455 48.8397 158.446 48.8548 158.438C49.2987 158.176 49.3848 158.217 49.1628 158.58C48.9944 158.858 48.9946 159.079 49.1628 159.075C49.3314 159.067 49.8412 158.789 50.2935 158.454C50.7456 158.119 50.976 157.849 50.8076 157.853C50.6392 157.857 50.7296 157.604 51.0132 157.289C51.2968 156.979 51.6668 156.795 51.8354 156.881C52.004 156.971 52.308 156.766 52.5053 156.431C52.7068 156.092 53.1714 155.819 53.5332 155.819C53.899 155.819 54.199 156.003 54.1991 156.227C54.1991 156.452 54.0143 156.726 53.7882 156.84C53.5622 156.95 53.377 157.228 53.3769 157.453C53.377 157.678 53.5622 157.861 53.7882 157.861C54.0143 157.861 54.1991 157.584 54.1991 157.249C54.1992 156.824 54.4133 156.73 54.8859 156.942C55.4532 157.191 55.527 157.085 55.2968 156.329C55.1407 155.803 55.1985 155.41 55.4326 155.41C55.6587 155.41 55.7492 155.144 55.6382 154.817C55.5418 154.543 55.5991 154.378 55.7744 154.367C55.727 154.343 55.6817 154.323 55.6382 154.311C55.445 154.257 55.157 154.203 54.8337 154.157ZM64.5605 156.119C64.5383 156.396 64.5216 156.681 64.5143 156.942C64.4938 157.673 64.708 158.408 64.9874 158.576C65.3245 158.778 65.3927 158.71 65.1927 158.372C65.0244 158.09 65.074 157.861 65.2999 157.861C65.4742 157.861 65.6236 157.971 65.6831 158.124C65.6914 158.07 65.6958 158.016 65.6947 157.964C65.6864 157.571 65.3861 157.065 65.0244 156.84C64.752 156.668 64.6013 156.441 64.5605 156.119ZM84.6229 154.695C84.6229 154.862 84.3472 155.095 84.0059 155.206C83.6691 155.316 83.4843 155.594 83.5951 155.819C83.7099 156.043 83.2454 156.411 82.5672 156.636C81.8891 156.86 81.4288 157.228 81.5394 157.453C81.6473 157.663 81.8961 157.756 82.113 157.676L82.1989 157.639C82.4163 157.559 82.6687 157.651 82.7729 157.861C82.8188 157.951 82.8909 158.033 82.9745 158.101L83.2456 157.701C83.0899 157.72 82.9782 157.627 82.9781 157.453C82.9782 157.228 83.2087 157.024 83.4922 156.995C83.5617 156.989 83.6449 156.984 83.7356 156.98L85.1109 154.955C84.8191 154.9 84.6229 154.804 84.6229 154.695ZM57.0175 155.698C57.0737 155.799 57.1285 155.902 57.1802 156.006C57.3297 156.307 57.4969 156.573 57.6577 156.783C57.4965 156.571 57.3296 156.302 57.1798 155.998C57.13 155.897 57.0757 155.797 57.0175 155.698ZM115.506 155.578C115.189 155.796 114.929 155.9 114.865 155.819C114.817 155.758 114.655 155.859 114.438 156.068C114.527 156.013 114.597 155.999 114.635 156.035C114.737 156.126 115.108 155.925 115.506 155.578ZM49.7798 153.478C49.2702 153.265 49.1508 153.327 49.3685 153.682C49.5452 153.972 49.3724 154.429 48.9572 154.76C48.5625 155.079 48.0979 155.263 47.9294 155.169C47.761 155.079 47.6214 155.186 47.6213 155.41C47.6214 155.635 48.2051 155.774 48.9162 155.716C49.2074 155.693 49.483 155.703 49.7095 155.738C49.7311 155.711 49.7546 155.683 49.7798 155.655C50.1703 155.218 50.4253 155.194 50.8445 155.553C51.2884 155.929 51.342 155.859 51.1241 155.206C50.8775 154.479 50.898 154.471 51.2884 155.104C51.3677 155.23 51.4617 155.339 51.5595 155.426C51.4171 155.195 51.3213 154.882 51.3213 154.593C51.3212 154.144 51.1364 153.776 50.9104 153.776C50.6842 153.776 50.1743 153.641 49.7798 153.478ZM38.9356 154.855C38.8659 155.178 38.7207 155.286 38.4677 155.232C38.7265 155.287 38.8719 155.178 38.9356 154.855ZM65.8875 153.644C65.2578 154.128 64.7868 154.622 64.7199 154.899C64.7026 154.971 64.6864 155.061 64.6697 155.164C64.8327 154.657 65.2388 154.15 65.8875 153.644ZM53.4838 154.029C53.2603 154.02 53.0402 154.034 52.8391 154.065C52.8402 154.065 52.8416 154.065 52.8427 154.066C53.2495 154.209 53.718 154.523 53.8826 154.764C54.0676 155.03 54.1911 154.92 54.1911 154.491C54.1929 154.322 54.2283 154.183 54.2859 154.089C54.0109 154.06 53.7333 154.039 53.4838 154.029ZM39.6678 152.33C39.2943 152.81 39.0446 153.424 38.9967 153.99C39.0715 153.464 39.3369 152.805 39.6678 152.33ZM45.7384 147.721C45.7217 147.795 45.1666 148.547 44.5049 149.392C43.843 150.242 43.2101 150.822 43.0991 150.683C42.9881 150.544 42.8316 149.943 42.7617 149.347C42.6877 148.751 42.544 148.167 42.4412 148.056C42.3423 147.946 41.9804 148.126 41.6435 148.464C41.3065 148.804 40.99 149.539 40.9447 150.099C40.9092 150.541 40.6177 151.172 40.2458 151.668C40.5368 151.402 40.6761 151.429 40.6936 151.733C40.7142 152.072 40.7058 152.574 40.6812 152.856C40.6524 153.138 40.9117 153.461 41.2487 153.571C41.5899 153.682 42.0957 153.49 42.3794 153.146C42.8068 152.619 42.7698 152.517 42.1737 152.534C41.7791 152.542 41.4544 152.276 41.4544 151.937C41.4545 151.598 41.6393 151.325 41.8652 151.325C42.0913 151.325 42.2764 151.508 42.2765 151.733C42.2767 151.97 42.6221 152.015 43.1112 151.835C43.5716 151.668 43.8714 151.345 43.7811 151.12C43.691 150.895 44.0857 150.066 44.6611 149.282C45.2366 148.497 45.7217 147.795 45.7384 147.721ZM48.5198 148.934C48.3645 149.1 48.0898 149.163 47.8269 149.077C47.8025 149.069 47.7786 149.06 47.7558 149.051C47.8616 149.193 47.9906 149.342 48.135 149.486C48.9531 150.303 48.9532 150.303 48.6202 149.282C48.5777 149.149 48.5443 149.033 48.5198 148.934ZM16.6055 147.992C16.4545 148.161 16.2231 148.336 15.9645 148.464C15.4163 148.737 15.2109 148.737 15.3479 148.464C15.4585 148.24 15.1378 148.048 14.6282 148.04C13.8845 148.024 13.8022 148.122 14.2129 148.55C14.4965 148.84 14.5871 149.204 14.4185 149.363C14.3832 149.396 14.3389 149.423 14.2888 149.446C14.4332 149.468 14.5837 149.491 14.731 149.515C15.5902 149.654 15.8944 149.412 16.581 148.04C16.589 148.024 16.5975 148.008 16.6055 147.992ZM73.1112 147.443C72.9181 146.994 72.7454 146.855 72.7288 147.137C72.7124 147.418 71.9168 148.409 70.9563 149.339C71.9169 148.41 72.8849 147.742 73.1112 147.852C73.2005 147.896 73.2826 147.9 73.349 147.873C73.2896 147.814 73.2101 147.671 73.1112 147.443ZM13.0866 148.669C13.0866 148.982 13.2063 149.253 13.3574 149.305C13.1964 149.144 13.0866 148.903 13.0866 148.669ZM62.833 104.749C61.9284 104.749 60.2182 105.133 59.0302 105.599C57.4926 106.207 56.6951 106.334 56.2552 106.04C55.9179 105.815 55.2065 105.754 54.6763 105.905C54.1501 106.056 53.4554 106.592 53.1347 107.098C52.8182 107.605 52.74 107.923 52.966 107.813C53.1962 107.699 53.3113 108.01 53.2291 108.528C53.1346 109.104 52.7522 109.484 52.2013 109.55C51.7163 109.607 51.3218 109.468 51.3217 109.243C51.3218 109.019 51.5808 108.79 51.8973 108.733C52.374 108.647 52.3576 108.373 51.7944 107.098C51.4203 106.253 50.8856 105.562 50.6019 105.566C50.3185 105.566 50.0884 105.84 50.0882 106.179C50.0882 106.518 50.3677 106.792 50.7048 106.792C51.0418 106.792 51.3216 107.066 51.3217 107.405C51.3217 107.744 51.1365 108.018 50.9104 108.018C50.6845 108.018 50.5939 108.292 50.7048 108.63C50.8281 108.994 50.6596 109.243 50.2939 109.243C49.957 109.243 49.6772 109.337 49.6769 109.448C49.6769 109.558 49.5822 109.926 49.4713 110.265C49.3604 110.604 49.451 110.877 49.6769 110.878C49.903 110.878 50.0141 110.739 49.928 110.571C49.8381 110.404 50.3474 110.35 51.0582 110.461C52.3244 110.649 52.3288 110.657 51.2189 110.767C50.3558 110.853 50.1416 111.045 50.3099 111.592C50.4497 112.038 50.1826 112.585 48.6491 113.79L49.5741 113.357C50.0837 113.117 50.6388 113.023 50.8076 113.149C50.976 113.272 50.8362 113.525 50.4991 113.709C50.0307 113.962 50.0061 114.105 50.3963 114.301C50.68 114.44 50.9104 114.371 50.9104 114.146C50.9105 113.874 51.1847 113.874 51.7326 114.146C52.2835 114.42 52.6373 115.127 52.8018 116.291C52.9375 117.247 53.3977 118.808 54.6104 121.5L53.4798 122.533C52.711 123.24 52.0531 123.502 51.4241 123.351C51.3575 123.335 51.2925 123.322 51.2301 123.312C51.3106 123.483 51.3889 123.736 51.4281 123.975C51.4816 124.327 51.8517 124.923 52.2463 125.303C52.6409 125.683 53.1054 125.888 53.2741 125.757C53.4427 125.63 53.2578 125.352 52.8632 125.144C52.4686 124.94 52.1396 124.539 52.1314 124.258C52.1235 123.975 52.728 123.219 54.816 121.406L56.1439 122.783C57.225 123.902 57.4801 124.499 57.5007 125.994C57.513 127.007 57.4389 128.384 57.328 129.058C57.217 129.732 56.7936 130.61 56.3825 131.007C55.6713 131.701 55.6012 131.701 54.816 130.978C54.1337 130.353 53.788 130.3 52.7604 130.664C52.0821 130.905 51.3007 131.375 51.0253 131.714C50.7499 132.053 50.5199 132.465 50.5116 132.633C50.5035 132.8 50.6844 132.939 50.9104 132.94C51.1364 132.939 51.3212 132.666 51.3213 132.327C51.3213 131.988 51.5066 131.714 51.7326 131.714C51.987 131.714 52.005 131.949 51.7868 132.418C51.8503 132.302 51.9171 132.182 51.9872 132.061C52.3817 131.379 52.7641 130.93 52.8343 131.06C52.9082 131.195 52.7808 131.673 52.5548 132.122C52.2177 132.792 52.2713 132.915 52.8632 132.813C53.2578 132.743 53.5373 132.465 53.4798 132.2C53.4224 131.93 53.517 131.706 53.6854 131.693C53.8539 131.685 54.2692 131.975 54.6104 132.343C54.9598 132.715 55.5397 132.903 55.9467 132.768C56.3783 132.625 56.6577 132.735 56.6496 133.042C56.6413 133.319 56.3166 133.777 55.9302 134.051C55.5439 134.324 55.4124 134.553 55.6382 134.561C55.8643 134.57 56.0495 135.293 56.0495 136.175C56.0495 137.053 55.9054 137.928 55.7286 138.116C55.5519 138.3 55.4165 138.774 55.4205 139.17C55.4287 139.562 54.968 140.069 54.4048 140.294C53.8376 140.518 53.1923 140.608 52.966 140.498C52.74 140.384 52.4766 140.523 52.382 140.804C52.2875 141.082 52.1929 140.898 52.1764 140.396C52.1476 139.591 52.2836 139.513 53.2741 139.763C54.1044 139.975 54.3226 139.918 54.0967 139.558C53.916 139.268 54.1707 138.733 54.7132 138.255C55.223 137.805 55.4818 137.303 55.2968 137.131C55.1072 136.96 54.4127 136.821 53.7513 136.821C52.8469 136.821 52.6043 136.665 52.7893 136.208C52.9742 135.738 52.8547 135.759 52.2792 136.298C51.864 136.686 51.2475 137.004 50.9104 137.009C50.4583 137.009 50.4295 136.931 50.8036 136.711C51.0872 136.547 51.4243 135.86 51.5558 135.186C51.6874 134.512 51.9215 133.777 52.0736 133.556C52.2339 133.319 52.1355 133.275 51.8354 133.454C51.6116 133.583 51.4135 133.633 51.3317 133.588C51.3797 133.658 51.5873 133.633 51.8354 133.515C52.1188 133.385 51.8885 133.659 51.3213 134.12C50.7583 134.586 50.479 134.978 50.7048 134.998C50.9307 135.019 50.7456 135.178 50.2935 135.354C49.8413 135.53 49.3643 136.024 49.2327 136.453C49.0477 137.061 49.1796 137.2 49.8496 137.102C50.6018 136.988 50.6922 137.164 50.61 138.532C50.5565 139.386 50.3265 140.134 50.0963 140.191C49.8662 140.248 49.6772 140.432 49.6769 140.6C49.6769 140.767 50.2771 140.947 51.0128 141C51.7486 141.049 52.5341 141.286 52.7604 141.527C53.0398 141.816 52.9713 142.086 52.5548 142.336C52.0245 142.659 52.0576 142.802 52.7604 143.329C53.2125 143.668 53.7223 143.95 53.891 143.958C54.0595 143.966 54.1991 143.786 54.1991 143.562C54.1992 143.337 54.3844 143.153 54.6104 143.153C54.8365 143.153 55.1077 143.566 55.2105 144.073C55.3132 144.579 55.6384 145.322 55.9302 145.723C56.2221 146.127 57.1555 146.63 58.0023 146.846C59.0136 147.104 59.6138 147.1 59.7495 146.83C59.8866 146.558 60.2294 146.558 60.7773 146.83C61.3255 147.103 61.5995 147.103 61.5995 146.83C61.5999 146.606 62.044 146.467 62.5864 146.524C63.1288 146.581 63.7287 146.769 63.9222 146.945C64.1155 147.12 64.0417 147.255 63.758 147.251C63.4745 147.243 63.2444 147.423 63.2443 147.647C63.2443 147.872 63.5237 147.962 63.8608 147.852C64.2019 147.741 64.4772 147.876 64.4773 148.158C64.4773 148.44 64.942 148.714 65.5051 148.771C66.0725 148.828 66.533 148.689 66.533 148.464C66.5329 148.24 66.3481 148.056 66.1221 148.056C65.8961 148.056 65.8507 147.839 66.0193 147.574C66.2412 147.227 66.0642 147.169 65.4023 147.37C64.7283 147.57 64.4773 147.48 64.4773 147.034C64.4774 146.696 64.6173 146.397 64.7858 146.372C64.9544 146.344 66.3894 146.258 67.9721 146.181C70.04 146.078 71.0598 145.833 71.5901 145.31C72.1245 144.783 72.2599 144.244 72.0749 143.358C71.931 142.683 71.7381 141.809 71.6436 141.417C71.5204 140.914 71.7713 140.64 72.4947 140.497C73.0619 140.387 73.5225 140.109 73.5225 139.885C73.522 139.66 73.0616 139.382 72.4947 139.272C71.9316 139.162 71.5284 138.839 71.6022 138.557C71.6761 138.275 71.4582 137.773 71.117 137.434C70.591 136.911 70.5872 136.8 71.0845 136.694C71.5571 136.592 71.487 136.195 70.7306 134.651C70.1798 133.536 69.8798 132.351 70.0113 131.816C70.1346 131.309 70.0482 130.897 69.8221 130.897C69.5961 130.896 69.4234 130.484 69.4357 129.977C69.4521 129.471 69.2876 128.139 69.0698 127.015C68.8437 125.835 68.8316 124.928 69.0453 124.87C69.2467 124.813 69.4112 124.584 69.4112 124.36C69.4111 124.135 69.1807 124.074 68.8971 124.229C68.6135 124.38 69.1686 123.735 70.1305 122.799C71.0923 121.86 71.8773 120.908 71.8777 120.683C71.8779 120.458 72.1577 120.368 72.4947 120.479C72.9056 120.615 73.0425 120.478 72.9055 120.07C72.7824 119.707 72.9511 119.457 73.3168 119.457C73.658 119.457 73.9333 119.273 73.9334 119.048C73.9333 118.824 73.7485 118.64 73.5225 118.64C73.2924 118.64 73.2262 118.235 73.3783 117.721C73.5222 117.214 73.6168 115.837 73.5839 114.657C73.547 113.46 73.7033 112.512 73.9334 112.512C74.1595 112.512 74.3075 112.25 74.2623 111.931C74.2382 111.761 74.2928 111.582 74.3989 111.434C73.9425 111.532 73.5272 111.559 73.3168 111.49C72.9798 111.38 72.6139 110.963 72.5111 110.571C72.404 110.179 71.5158 109.031 70.5334 108.018C69.3412 106.792 68.0337 105.941 66.6113 105.464C65.4396 105.072 63.7374 104.749 62.833 104.749ZM21.7201 141.928C21.4943 141.928 21.3873 142.157 21.4775 142.438C21.5721 142.72 21.5272 143.137 21.3751 143.362C21.2608 143.539 20.8422 143.797 20.3549 144.008C20.479 143.985 20.5936 143.973 20.6923 143.974C21.3747 143.983 21.4117 144.052 20.8979 144.387C20.4376 144.685 20.4047 144.865 20.7786 145.094C21.0499 145.262 21.1898 145.813 21.0871 146.319C20.9843 146.826 20.7128 147.239 20.4866 147.239C20.2607 147.239 20.0676 147.468 20.0593 147.749C20.0428 148.158 20.166 148.158 20.6758 147.749C21.0211 147.468 21.5393 147.378 21.8189 147.545C22.156 147.747 22.2242 147.679 22.0241 147.341C21.8559 147.059 21.9997 146.185 22.3366 145.4C22.7888 144.355 22.8217 143.97 22.4599 143.97C22.1027 143.97 22.119 143.827 22.5093 143.46C22.9451 143.051 23.0852 143.051 23.2126 143.46C23.2474 143.579 23.3304 143.671 23.4396 143.731C23.3921 143.689 23.3649 143.632 23.3649 143.562C23.365 143.337 23.5499 143.153 23.7757 143.153C24.0019 143.153 24.187 142.969 24.187 142.745C24.1866 142.52 23.7263 142.43 23.1592 142.54C22.596 142.651 22.1314 142.561 22.1314 142.336C22.1312 142.112 21.9461 141.928 21.7201 141.928ZM73.5213 147.46C73.4975 147.531 73.4831 147.594 73.4811 147.647C73.4798 147.685 73.4771 147.718 73.4739 147.747C73.4986 147.693 73.5123 147.625 73.51 147.546C73.5097 147.52 73.5142 147.491 73.5213 147.46ZM18.0221 145.779C17.7875 146.133 17.505 146.503 17.3007 146.712C17.0171 147.002 16.7868 147.423 16.7866 147.648C16.7866 147.648 16.7863 147.649 16.7862 147.649C17.178 146.935 17.5681 146.403 17.7116 146.41C17.8802 146.418 18.0201 146.148 18.0201 145.809C18.0201 145.799 18.0214 145.789 18.0221 145.779ZM51.7278 146.015C51.7534 146.388 51.9297 146.829 52.1439 147.035C52.2047 147.094 52.235 147.165 52.2346 147.249C52.2559 147.055 52.1879 146.864 52.0571 146.626C51.955 146.443 51.8399 146.228 51.7278 146.015ZM120.258 145.084C120.283 145.49 120.33 145.77 120.391 145.809C120.502 145.883 120.576 146.279 120.551 146.692C120.551 146.704 120.549 146.717 120.548 146.731C120.644 146.412 120.614 146.049 120.473 145.878C120.387 145.777 120.311 145.476 120.258 145.084ZM75.4845 144.815C75.3149 145.15 74.9594 145.613 74.5503 146.013C74.4804 146.081 74.4119 146.152 74.3455 146.224C74.4117 146.153 74.4802 146.082 74.5503 146.013C74.9594 145.616 75.3148 145.151 75.4845 144.815ZM48.1904 144.832C48.1857 145.02 48.0379 145.267 47.7908 145.475C48.045 145.262 48.1941 145.013 48.1904 144.832ZM26.623 144.302C26.7226 144.415 26.8086 144.583 26.8592 144.788C26.9264 145.05 27.0489 145.284 27.1837 145.434C27.2347 145.376 27.3321 145.302 27.4761 145.213C27.8132 145.004 27.998 144.73 27.887 144.604C27.7754 144.481 27.2208 144.346 26.654 144.306C26.6438 144.305 26.6333 144.303 26.623 144.302ZM49.4657 144.448C49.8918 144.526 50.3583 144.649 50.7048 144.788C50.919 144.872 51.1178 144.998 51.2815 145.142C51.0652 144.82 50.3066 144.528 49.4657 144.448ZM88.8502 142.77C88.3808 142.799 87.7694 142.811 87.1922 142.794C86.5632 142.775 86.0098 142.839 85.7021 142.948C85.7232 142.988 85.7056 143.208 85.6503 143.559C85.7362 143.644 85.8429 143.717 85.9588 143.762C86.2424 143.872 86.1029 143.893 85.6507 143.807C85.6393 143.805 85.6273 143.802 85.6149 143.799C85.5471 144.353 85.6471 144.787 85.8563 144.788C86.0824 144.788 86.2594 144.559 86.2512 144.277C86.2432 143.995 86.753 143.545 87.3818 143.272C87.8237 143.082 88.3936 142.891 88.8502 142.77ZM6.76909 143.817C6.90767 143.887 7.02397 144.047 7.09884 144.286C7.02094 144.034 6.90743 143.876 6.76909 143.817ZM25.112 143.897C24.8283 143.713 24.3184 143.656 23.9814 143.766C24.3226 143.656 24.8777 143.746 25.2149 143.97C25.4752 144.142 25.805 144.234 26.0471 144.22C25.6608 144.14 25.2979 144.02 25.112 143.897ZM81.0217 142.192C81.226 142.493 81.7601 142.818 82.4564 143.043C83.178 143.279 84.0241 143.478 84.5052 143.536C83.9973 143.406 83.4082 143.249 82.8632 143.096C81.885 142.82 81.2471 142.504 81.0217 142.192ZM6.14693 143.158C6.22952 143.275 6.27293 143.401 6.27024 143.516C6.33889 143.327 6.29354 143.184 6.14693 143.158ZM85.6768 142.957C85.5297 143.013 85.4452 143.08 85.4451 143.153C85.4451 143.195 85.453 143.239 85.4679 143.283C85.545 143.214 85.6035 143.135 85.6342 143.051C85.651 143.005 85.6655 142.974 85.6768 142.957ZM121.008 141.928C120.903 141.717 120.651 141.625 120.434 141.705L120.348 141.742C120.231 141.785 120.106 141.778 119.997 141.73C120.116 141.998 120.205 142.529 120.238 143.126C120.315 142.619 120.475 142.336 120.699 142.336C120.983 142.336 121.123 142.152 121.008 141.928ZM91.1902 141.203C91.1415 141.436 90.9304 141.783 90.6785 142.03C90.6233 142.084 90.559 142.138 90.4902 142.191C90.5652 142.138 90.6322 142.085 90.687 142.03C90.9352 141.783 91.1423 141.436 91.1902 141.203ZM80.816 141.539C80.771 141.544 80.7108 141.578 80.6325 141.639C80.7104 141.578 80.7708 141.545 80.816 141.539ZM3.73623 137.493C3.92212 137.652 4.04141 137.854 4.04149 138.046C4.04153 138.385 4.22676 138.659 4.45278 138.659C4.67882 138.659 4.77347 138.933 4.65842 139.272C4.5475 139.611 4.6623 140.481 4.91708 141.213C4.96457 141.349 5.01951 141.487 5.07895 141.623C4.89604 140.972 4.77998 140.056 4.80663 139.374C4.84772 138.231 4.68313 137.793 4.14471 137.654C4.03067 137.625 3.8902 137.567 3.73623 137.493ZM44.4784 138.36C44.6527 139.049 44.8059 140.205 44.8792 141.519C44.8056 140.184 44.6535 139.036 44.4784 138.36ZM120.013 139.17C119.803 138.778 119.478 138.606 119.293 138.794C119.104 138.978 119.277 139.301 119.672 139.509C120.202 139.787 120.284 140.044 119.98 140.498C119.897 140.622 119.84 140.755 119.81 140.888C119.851 140.786 119.907 140.686 119.976 140.6C120.202 140.318 120.313 139.995 120.231 139.885C120.167 139.803 120.358 139.755 120.682 139.759C120.398 139.63 120.14 139.413 120.013 139.17ZM92.2177 139.698C92.0937 139.729 92.0229 139.862 92.0229 140.089C92.0229 140.22 91.9949 140.341 91.9482 140.44C92.0567 140.273 92.1499 140.04 92.2 139.783C92.2056 139.754 92.2118 139.725 92.2177 139.698ZM94.4898 138.136C93.7171 138.071 93.4868 138.226 93.5648 138.761C93.6059 139.043 93.5813 139.204 93.4712 139.263C93.8522 139.297 94.2088 139.105 94.5926 138.663C94.7727 138.458 94.8969 138.291 94.9686 138.156C94.8599 138.161 94.6973 138.156 94.4898 138.136ZM92.6567 139.071C92.4786 139.019 92.4164 139.044 92.4546 139.158C92.5114 139.107 92.5778 139.079 92.6567 139.071ZM94.7115 137.636C94.7154 137.812 94.8185 137.966 95.0039 138.034C95.0094 138.036 95.0148 138.039 95.02 138.041C95.0827 137.853 95.0073 137.741 94.7983 137.671C94.7639 137.659 94.7349 137.647 94.7115 137.636ZM44.1559 137.223C43.8981 137.325 43.8616 137.425 44.0434 137.587C43.9699 137.474 44.0055 137.356 44.1559 137.223ZM94.6954 134.573C94.5841 134.349 93.9508 134.21 93.2933 134.267C92.6361 134.324 92.1759 134.508 92.2655 134.676C92.36 134.843 92.249 135.256 92.0229 135.595C91.7968 135.934 91.7068 136.392 91.8176 136.616C91.9256 136.827 92.3371 136.919 92.7607 136.839L92.9302 136.802C93.3541 136.722 93.769 136.814 93.8733 137.025C93.9884 137.25 94.309 137.299 94.5926 137.131C94.9324 136.932 95.001 137 94.7983 137.335C94.7647 137.39 94.7409 137.446 94.7268 137.501C94.7891 137.484 94.8823 137.471 95.0039 137.466C95.3986 137.45 95.7233 137.25 95.7233 137.025C95.723 136.8 95.3984 136.437 95.0039 136.22C94.8239 136.121 94.697 136.029 94.6336 135.958C94.583 135.997 94.535 136.027 94.4898 136.044C93.9801 136.24 93.9635 136.171 94.387 135.632C94.6706 135.276 94.8106 134.798 94.6954 134.573ZM2.39713 136.616C2.39715 136.841 2.76717 137.119 3.21931 137.229C3.24169 137.235 3.26404 137.241 3.28598 137.248C3.02991 137.092 2.77158 136.913 2.56181 136.735C2.50241 136.685 2.44698 136.633 2.39432 136.58C2.39578 136.592 2.39712 136.604 2.39713 136.616ZM49.1725 128.174C48.9056 128.345 48.5784 128.445 48.2382 128.445C47.4737 128.446 47.0621 128.785 46.6264 129.773C46.3057 130.504 45.6601 132.249 45.1873 133.655C44.7189 135.059 44.4273 136.391 44.5378 136.616C44.5986 136.739 44.5848 136.873 44.5137 136.985C44.5216 136.981 44.5297 136.976 44.5378 136.972C45.0914 136.672 45.2024 136.436 44.8708 136.265C44.5093 136.073 44.6407 135.247 45.3765 133.144C45.9232 131.571 46.6057 129.867 46.8935 129.36C47.2716 128.691 47.5019 128.576 47.7157 128.952C47.9541 129.356 48.02 129.36 48.0241 128.956C48.0284 128.674 48.2628 128.446 48.5463 128.449C48.699 128.449 48.9299 128.342 49.1725 128.174ZM95.6578 134.271C95.4541 134.835 95.1516 135.379 94.8722 135.717C95.1063 135.497 95.4212 134.929 95.6578 134.271ZM123.631 130.386C123.606 130.778 123.606 131.424 123.631 131.816C123.639 131.931 123.66 132.027 123.691 132.104C123.691 131.727 123.69 131.334 123.688 130.999C123.687 130.757 123.666 130.541 123.632 130.365C123.631 130.372 123.631 130.379 123.631 130.386ZM90.1733 120.683C89.8322 120.683 89.5564 121.047 89.5563 121.5C89.5563 122.045 89.3509 122.249 88.9398 122.113C88.8466 122.082 88.7613 122.071 88.6848 122.079L88.7422 122.725C88.7874 123.285 88.8984 123.473 88.9888 123.134C89.0753 122.795 89.6057 122.427 90.1689 122.317C90.8759 122.174 91.1307 122.268 90.991 122.623C90.88 122.905 91.1599 123.318 91.612 123.543C92.0641 123.767 92.5739 123.959 92.7426 123.967C92.911 123.98 92.7755 123.657 92.4426 123.252C91.9947 122.717 92.0809 122.738 92.7631 123.338C93.2769 123.788 93.6881 124.384 93.6801 124.666C93.6718 124.948 93.3919 125.177 93.0507 125.177C92.7138 125.177 92.5289 124.993 92.6398 124.768C92.7548 124.544 92.5697 124.36 92.2285 124.36C91.8917 124.36 91.6123 124.454 91.612 124.564C91.612 124.674 91.8915 125.042 92.2285 125.381C92.6684 125.818 92.6972 125.998 92.3313 126.006C92.0476 126.01 91.4885 126.333 91.0898 126.721C90.4033 127.387 90.3333 127.383 89.7495 126.607C89.1782 125.855 89.174 125.876 89.6507 126.901C89.9755 127.587 90.6006 128.094 91.3035 128.229C91.9242 128.347 92.7587 128.817 93.1535 129.275C93.7331 129.945 93.9717 130.002 94.3745 129.581C94.7774 129.164 94.6912 128.989 93.9636 128.707C93.4622 128.515 92.9112 128.376 92.7426 128.4C92.5741 128.425 92.3436 128.171 92.2285 127.832C92.1178 127.493 92.3356 126.991 92.7177 126.709C93.2933 126.284 93.3716 126.301 93.1784 126.811C93.0305 127.203 93.2239 127.46 93.717 127.526C94.3624 127.612 94.4197 127.493 94.0785 126.811C93.7498 126.158 93.7911 126.035 94.2842 126.198C94.6253 126.309 94.9048 126.264 94.9131 126.096C94.9172 125.929 94.7818 125.634 94.6051 125.442C94.4284 125.25 94.2392 124.609 94.1858 124.013C94.1599 123.724 94.1518 123.518 94.1665 123.389C94.0775 123.421 93.9801 123.472 93.8733 123.543C93.4047 123.853 93.1084 123.706 92.6398 122.93C92.3027 122.37 91.8381 122.003 91.612 122.113C91.3859 122.223 91.1064 121.949 90.9954 121.5C90.8844 121.051 90.5103 120.683 90.1733 120.683ZM122.401 128.139C122.15 127.972 121.789 128.106 121.6 128.445C121.542 128.55 121.474 128.634 121.401 128.696C121.532 128.694 121.677 128.68 121.83 128.65C122.433 128.53 122.703 128.564 122.805 128.848C122.728 128.537 122.576 128.255 122.401 128.139ZM79.2082 121.614C79.6604 122.092 79.7921 122.615 79.5866 123.146C79.414 123.596 79.4594 124.041 79.6894 124.155C79.94 124.282 79.8575 124.719 79.4793 125.279C79.1382 125.785 78.8672 126.382 78.8753 126.607C78.8836 126.831 79.0727 126.693 79.2906 126.3C79.5084 125.908 79.8742 125.68 80.1003 125.79C80.3264 125.9 80.5115 126.452 80.5116 127.015C80.5115 127.575 80.3264 128.037 80.1003 128.037C79.8744 128.037 79.6896 128.176 79.6894 128.343C79.6894 128.51 80.199 128.633 80.8197 128.617C81.049 128.609 81.32 128.573 81.596 128.517C81.5733 128.497 81.5537 128.474 81.5394 128.445C81.4286 128.221 81.552 127.992 81.819 127.935C82.1067 127.873 82.189 127.538 82.0246 127.118C81.8683 126.717 81.4738 126.493 81.1285 126.607C80.6805 126.754 80.5692 126.586 80.7172 125.994C80.8611 125.422 80.717 125.177 80.2361 125.177C79.8621 125.177 79.6731 125.038 79.8252 124.87C79.973 124.703 79.9115 124.335 79.6854 124.053C79.406 123.702 79.4717 123.351 79.8951 122.93C80.2321 122.591 80.5114 122.223 80.5116 122.113C80.5113 122.003 80.2813 121.917 79.9979 121.925C79.7624 121.935 79.4164 121.779 79.1552 121.557C79.1724 121.576 79.19 121.595 79.2082 121.614ZM122.961 127.894C122.677 127.747 122.077 127.722 121.624 127.833C121.172 127.943 120.802 128.221 120.802 128.445C120.802 128.487 120.818 128.523 120.847 128.555C120.831 128.381 120.967 128.166 121.213 128.008C121.554 127.792 122.2 127.718 122.652 127.837C122.805 127.878 122.926 127.906 123.016 127.92C122.999 127.912 122.98 127.903 122.961 127.894ZM50.0408 126.571C50.0302 126.782 49.8783 127.228 49.6769 127.628C49.5998 127.782 49.4903 127.919 49.3576 128.035C49.5052 127.916 49.6512 127.779 49.7798 127.632C50.1991 127.154 50.3263 126.725 50.0878 126.607C50.0692 126.598 50.0541 126.585 50.0408 126.571ZM122.862 127.419C122.899 127.478 122.94 127.534 122.985 127.587C123.098 127.719 123.177 127.818 123.222 127.886C123.228 127.828 123.139 127.715 122.965 127.538C122.927 127.5 122.893 127.46 122.862 127.419ZM83.7866 127.158C83.7755 127.256 83.7167 127.376 83.6228 127.504C83.7162 127.381 83.7755 127.262 83.7866 127.16V127.158ZM121.818 124.053C121.407 123.853 120.913 124.066 119.569 125.585L118.335 124.768C119.014 125.218 119.474 125.769 119.363 125.994C119.252 126.219 119.528 126.497 119.98 126.607C120.449 126.725 120.716 126.635 120.597 126.403C120.486 126.178 120.576 125.994 120.802 125.994C121.028 125.994 121.213 126.178 121.214 126.403C121.214 126.627 121.538 126.815 121.933 126.824C122.587 126.836 122.574 126.754 121.008 125.063L121.937 125.631C122.451 125.941 122.784 126.382 122.681 126.607C122.638 126.706 122.639 126.847 122.678 127C122.665 126.885 122.69 126.784 122.759 126.717C122.928 126.554 122.603 126.035 122.035 125.565C121.472 125.091 121.238 124.813 121.522 124.94C121.805 125.07 122.13 124.993 122.241 124.768C122.356 124.544 122.163 124.221 121.818 124.053ZM51.0132 124.965C50.5036 125.083 50.0678 125.406 50.0388 125.688C50.023 125.868 50.0183 126.084 50.0228 126.26C50.0899 126.069 50.2557 125.827 50.4991 125.585C50.7125 125.373 50.9105 125.148 51.063 124.952C51.0467 124.956 51.0302 124.961 51.0132 124.965ZM50.7309 123.801C50.8616 123.949 51.0407 124.112 51.2353 124.25C51.2666 124.272 51.2959 124.294 51.3241 124.315C51.2501 124.164 51.0665 123.988 50.8445 123.873C50.8028 123.851 50.7649 123.827 50.7309 123.801ZM94.5966 123.465C94.7239 123.601 94.8473 123.79 94.9501 123.99C94.8972 123.86 94.8415 123.739 94.7862 123.645C94.7064 123.507 94.6155 123.418 94.5095 123.377C94.5366 123.403 94.5659 123.433 94.5966 123.465ZM50.5324 123.383C50.5205 123.4 50.5146 123.419 50.5156 123.441C50.5162 123.454 50.5192 123.468 50.5236 123.484C50.5203 123.449 50.5234 123.415 50.5324 123.383ZM115.653 121.894C115.582 122.055 115.515 122.233 115.458 122.419C115.363 122.723 115.301 122.98 115.27 123.198C115.306 123.031 115.364 122.841 115.445 122.623C115.537 122.381 115.608 122.127 115.653 121.894ZM88.5145 122.136C88.3588 122.235 88.2585 122.452 88.2205 122.783C88.2183 122.801 88.2135 122.818 88.21 122.837C88.3213 122.626 88.4236 122.393 88.5145 122.136ZM116.664 121.375C116.731 121.496 116.786 121.645 116.814 121.806C116.827 121.883 116.846 121.94 116.87 121.977C116.859 121.926 116.847 121.869 116.835 121.806C116.803 121.645 116.741 121.496 116.664 121.375ZM114.635 117.006C114.409 117.006 114.13 117.19 114.019 117.415C113.915 117.625 114.273 118.198 114.83 118.724L115.057 118.932C115.608 119.453 115.919 119.987 115.754 120.156C115.577 120.331 115.433 120.205 115.433 119.866C115.433 119.392 115.342 119.412 115.034 119.968C114.816 120.36 114.738 120.822 114.861 120.989C114.954 121.115 115.265 121.086 115.625 120.937C115.616 120.737 115.747 120.508 115.967 120.376C116.299 120.18 116.382 120.248 116.218 120.581C116.208 120.601 116.198 120.622 116.19 120.642C116.704 120.377 117.055 120.376 117.308 120.638C117.462 120.797 117.529 121.022 117.506 121.275C117.565 121.159 117.628 121.03 117.694 120.887C117.983 120.265 118.19 119.892 118.359 119.732C118.188 119.69 117.998 119.682 117.822 119.718C117.39 119.808 117.102 119.62 117.102 119.253C117.102 118.914 116.872 118.714 116.588 118.8C116.304 118.889 115.749 118.705 115.355 118.391C114.96 118.08 114.73 117.639 114.841 117.415C114.952 117.19 114.861 117.006 114.635 117.006ZM79.7967 118.194C79.6844 118.549 79.5153 118.961 79.3111 119.355C78.7676 120.414 78.6215 120.771 78.8403 121.158C78.6885 120.791 78.8311 120.297 79.3151 119.355C79.5511 118.895 79.7404 118.412 79.8481 118.022L79.7967 118.194ZM121.934 121.077C121.809 121.115 121.723 121.12 121.672 121.09C121.721 121.122 121.806 121.117 121.932 121.078L121.934 121.077ZM123.707 118.948C123.481 119.171 123.063 119.469 122.693 119.661C122.45 119.789 122.198 119.993 122.004 120.208C122.217 119.993 122.5 119.789 122.784 119.661C123.206 119.469 123.586 119.171 123.707 118.948ZM78.6756 112.346C78.7127 112.445 78.7105 112.572 78.6616 112.716C78.5506 113.055 78.6409 113.329 78.8668 113.329C79.0929 113.329 79.2781 113.19 79.2781 113.022C79.2783 112.855 79.5373 112.716 79.8537 112.716C80.1743 112.716 80.3594 112.855 80.265 113.022C80.1745 113.19 80.4251 113.5 80.8197 113.705C81.4404 114.031 81.3831 114.117 80.4088 114.317C79.9408 114.415 79.6694 114.506 79.536 114.681C79.6113 114.593 79.7296 114.555 79.8951 114.554C80.2321 114.555 80.5322 114.877 80.557 115.27C80.5816 115.662 80.5816 116.397 80.557 116.904C80.5283 117.467 80.7504 117.823 81.1285 117.823C81.4655 117.823 81.8435 118.146 81.9587 118.538C82.1396 119.138 82.2546 119.163 82.6781 118.693C83.0769 118.248 83.077 118.097 82.6701 117.978C82.3537 117.88 82.2716 117.549 82.4524 117.108C82.7031 116.516 82.6125 116.454 81.9382 116.74C81.2805 117.026 81.1858 116.969 81.4366 116.434C81.6257 116.038 81.5434 115.711 81.2309 115.609C80.9477 115.515 81.0875 115.421 81.5394 115.396C82.2219 115.367 82.2589 115.294 81.7451 114.963C81.2191 114.624 81.2314 114.567 81.8479 114.562C82.2919 114.558 82.5672 114.24 82.5672 113.737C82.5672 113.288 82.3823 113.014 82.1563 113.124C81.9303 113.235 81.7451 113.145 81.7451 112.92C81.7447 112.696 81.3296 112.54 80.8201 112.573C80.3102 112.61 79.3852 112.516 78.7644 112.369C78.7346 112.362 78.7049 112.353 78.6756 112.346ZM79.4637 114.821C79.402 115.01 79.4323 115.277 79.5167 115.678C79.4311 115.275 79.4108 114.999 79.4637 114.821ZM4.95162 111.15C4.74213 111.366 4.5602 111.631 4.45278 111.899C4.22667 112.458 3.70865 112.92 3.30165 112.92C3.04181 112.92 2.72322 113.014 2.45738 113.154C2.75701 113.025 3.08149 112.938 3.32213 112.933C3.71681 112.924 4.22665 112.462 4.45278 111.899C4.54969 111.659 4.72979 111.395 4.95162 111.15ZM77.6105 111.572C77.5926 111.698 77.5524 111.873 77.4936 112.103C77.3497 112.663 77.3212 112.896 77.4321 112.614C77.5244 112.379 77.7959 112.182 78.0784 112.122C77.8089 111.984 77.6338 111.826 77.6338 111.694C77.6337 111.648 77.6252 111.607 77.6105 111.572ZM76.6236 111.059C76.6 111.076 76.5604 111.095 76.5031 111.114C76.2196 111.208 76.0838 111.47 76.1947 111.694C76.3262 111.952 76.6511 111.915 77.0787 111.592C77.1275 111.555 77.1732 111.523 77.2148 111.493C76.9908 111.597 76.7491 111.463 76.6718 111.184C76.6586 111.137 76.6423 111.095 76.6236 111.059ZM76.5602 110.971C76.443 110.853 76.2427 110.847 75.8733 110.955C75.9859 110.947 76.0948 110.943 76.1947 110.943C76.36 110.943 76.4838 110.953 76.5602 110.971ZM6.89079 108.835C6.64816 108.835 6.18354 109.109 5.86297 109.448C5.68595 109.632 5.45873 109.779 5.24282 109.863C5.25345 109.861 5.26431 109.858 5.27495 109.856C5.72698 109.746 6.19151 109.836 6.30277 110.06C6.32159 110.097 6.32858 110.135 6.32728 110.174C6.7772 109.904 7.14038 109.57 7.19926 109.345C7.26908 109.064 7.13332 108.835 6.89079 108.835ZM3.486 104.302C3.72132 104.677 3.90433 105.631 3.9716 106.898C4.04145 108.299 4.1814 109.585 4.28007 109.754C4.33466 109.85 4.50727 109.906 4.73032 109.914C4.44001 109.787 4.19984 108.928 4.14029 107.781C4.08277 106.673 4.21873 105.586 4.44073 105.362C4.65766 105.143 4.5379 104.886 3.486 104.302ZM2.49995 109.002C2.36417 109.172 2.17626 109.306 1.98062 109.388C2.16992 109.324 2.34671 109.195 2.49995 109.002ZM1.58259 108.481C1.57758 108.498 1.57463 108.514 1.57495 108.528C1.57498 108.682 1.84843 108.717 2.19872 108.621C1.8816 108.702 1.62784 108.645 1.58259 108.481ZM3.03174 106.898C2.97487 107.268 2.77891 107.472 2.39713 107.711C2.28832 107.778 2.18456 107.851 2.08947 107.924C2.1684 107.93 2.2571 107.928 2.35576 107.915C2.8582 107.851 3.03422 107.674 3.03174 106.898ZM2.35697 105.908C2.37964 105.955 2.3802 105.998 2.35978 106.038C2.40997 105.993 2.40937 105.953 2.35697 105.908ZM2.91124 105.521C2.93526 105.652 2.95579 105.773 2.9739 105.886C2.97351 105.882 2.97309 105.877 2.9727 105.872C2.87163 104.694 2.91427 104.179 3.1434 104.118C2.98062 104.032 2.80086 103.94 2.60278 103.842L2.91124 105.521ZM71.5604 18.4501C71.3932 18.8654 71.1015 19.2824 70.8788 19.4137C70.6362 19.5526 69.5139 19.4426 68.3834 19.1648C67.2527 18.891 64.8475 18.6295 63.0386 18.5846C61.2297 18.5438 58.545 18.7889 57.0773 19.132C55.6096 19.4752 53.3855 20.1411 52.1439 20.6191C50.9023 21.0931 48.6781 22.1759 47.2104 23.0216C45.7427 23.8714 43.3291 25.7384 41.8532 27.1724C40.3773 28.6064 38.5271 30.882 37.7459 32.2302C36.9648 33.5784 35.9085 35.6951 35.3987 36.9289C34.8891 38.1624 34.4696 39.3591 34.4652 39.5843C34.4652 39.809 33.9964 40.5445 33.425 41.2187C32.8542 41.892 32.39 42.4882 32.3972 42.5465C32.4057 42.6036 32.6197 42.6037 32.8743 42.5465C33.125 42.4894 33.4416 42.7183 33.5732 43.0573C33.7293 43.4629 33.643 43.5648 33.3141 43.3633C33.2418 43.3187 33.1595 43.283 33.0739 43.2564C33.2997 43.6267 33.4374 45.4511 33.4374 51.13L33.0514 50.2797C33.3174 51.4122 33.3947 53.2669 33.4129 57.2424C33.4335 62.9366 33.5403 63.9832 34.1568 64.6982C34.6131 65.2252 35.5837 65.6094 36.8294 65.7524C37.9023 65.8749 39.6126 66.1691 40.6322 66.402C41.6517 66.6348 42.9919 67.1784 43.6128 67.6074C44.2335 68.0362 44.6485 68.5712 44.5378 68.796C44.4268 69.0207 44.5175 69.2045 44.7435 69.2046C44.9696 69.2046 45.2493 69.7114 45.3644 70.3282C45.4795 70.9451 46.4495 72.4488 47.5225 73.6663C48.5954 74.8836 50.0716 76.1254 50.8076 76.4238C51.638 76.7629 52.6 76.8528 53.3564 76.6608C54.1377 76.4631 54.6644 76.5223 55.1442 76.8719C54.7748 76.4174 55.1462 76.3365 57.3938 76.2522C58.8944 76.195 60.1729 76.0764 60.2387 75.9865C60.3047 75.9008 60.7364 75.9497 61.1967 76.0926C61.6612 76.2356 61.9696 76.5383 61.8875 76.763C61.8052 76.9877 61.2911 77.2328 60.7444 77.3104C60.1975 77.388 58.8571 77.482 57.7678 77.5147C57.033 77.5399 56.4384 77.4912 55.9929 77.3723C56.5016 77.5359 57.1881 77.5896 58.1052 77.5394C59.2356 77.4822 60.5759 77.4209 61.0858 77.4046C61.5956 77.3882 62.0066 77.147 61.9983 76.8651C61.9943 76.5835 62.1302 76.4896 62.3068 76.6568C62.4836 76.8243 62.8742 76.7344 63.1784 76.4525C63.6347 76.0358 63.6677 76.0891 63.384 76.7386C63.1169 77.3554 63.1746 77.4821 63.6556 77.3024C63.9926 77.1758 64.2392 76.9101 64.2022 76.7099C64.1665 76.5139 66.0162 76.4157 68.3135 76.4932C70.6106 76.5708 72.5382 76.7998 72.5975 77.004C72.655 77.2081 72.8852 77.3757 73.1112 77.3758C73.3373 77.3758 73.4278 77.192 73.3168 76.9673C73.2065 76.7424 73.8971 76.2112 74.8588 75.7906C75.8865 75.3412 76.8607 74.5402 77.2225 73.8498C77.5597 73.2043 78.4847 72.0727 79.2781 71.3333C80.0716 70.5979 80.4868 69.9972 80.2031 70.0054C79.8417 70.0174 79.8991 69.662 80.4088 68.792C80.8336 68.0664 81.2917 67.684 81.8567 67.585C81.23 67.5797 81.2577 67.4704 81.7451 66.9574C82.0862 66.6021 82.6492 66.3161 82.9986 66.3281C83.3481 66.3363 83.8704 66.1157 84.1582 65.8338C84.5733 65.4254 84.7751 65.4623 85.1655 66.0217C85.4326 66.4055 85.7901 66.7281 85.9588 66.7367C86.1273 66.7449 86.1934 66.6142 86.103 66.4467C86.0131 66.2793 86.4322 66.12 87.028 66.0955C87.6281 66.071 88.5818 65.9321 89.145 65.7851C89.7124 65.638 90.3169 65.3844 90.4978 65.2169C90.6746 65.0492 90.983 64.0893 91.1762 63.0762C91.3735 62.0629 91.4802 59.4931 91.4104 57.3565C91.3405 55.2204 91.242 53.2924 91.1927 53.0668C91.1433 52.8419 91.0937 52.2739 91.0814 51.8083C91.0705 51.3219 91.2612 51.0357 91.6124 50.9951C91.5606 50.7914 91.5772 50.3806 91.6449 49.696C91.7394 48.7442 91.723 47.9639 91.612 47.9639C91.501 47.9619 91.3571 46.9044 91.2955 45.6105C91.2338 44.3196 91.0038 42.665 90.7818 41.9337C90.5598 41.2024 90.4732 40.332 90.5842 39.9929C90.6951 39.654 90.6049 39.3802 90.3789 39.38C90.1529 39.3799 90.0623 39.1961 90.1733 38.9714C90.2841 38.7468 90.1937 38.5629 89.9676 38.5629C89.7416 38.5628 89.6017 38.4239 89.6551 38.2564C89.7082 38.0882 89.4002 37.0304 88.9687 35.9075C88.5329 34.7839 87.5173 32.8757 86.7074 31.6664C85.9017 30.4531 85.0546 29.1947 84.8285 28.8638C84.6022 28.5328 83.9073 27.7321 83.2866 27.0826C83.1646 26.9542 83.0508 26.823 82.9472 26.694C82.8943 26.6954 82.7687 26.6344 82.5672 26.5185C82.2299 26.3262 81.1197 25.5012 80.1003 24.6842C79.0848 23.8712 77.7404 22.8905 77.1197 22.5064C76.4991 22.1266 76.0838 21.6283 76.1947 21.4036C76.3097 21.1749 75.9932 21.0562 75.4753 21.1378C74.9654 21.2154 73.6659 20.8926 72.5806 20.4228C71.4997 19.949 70.7762 19.471 70.9692 19.3607C71.1465 19.2594 71.3991 18.8621 71.5604 18.4501ZM117.386 72.7142C117.36 72.7247 117.332 72.73 117.302 72.7314C117.331 72.7304 117.36 72.7253 117.385 72.7146L117.386 72.7142ZM85.5985 70.7216C85.652 70.8158 85.7048 70.8724 85.7535 70.8796C85.8298 70.8889 86.0082 70.9035 86.2399 70.9203C85.9706 70.857 85.7433 70.7869 85.5985 70.7216ZM116.28 70.6346C116.28 70.2956 116.094 70.1158 115.868 70.226C115.803 70.2578 115.741 70.2723 115.686 70.2723C115.713 70.2898 115.742 70.3093 115.774 70.3282C115.968 70.4412 116.16 70.6661 116.283 70.9044C116.281 70.8133 116.28 70.7214 116.28 70.6346ZM82.4644 66.7615C82.7481 66.7574 83.4513 67.0764 84.0268 67.4685C84.6804 67.9138 85.1451 68.6859 85.2603 69.511C85.3072 69.8447 85.379 70.1539 85.4591 70.3936C85.5276 70.2791 85.6683 70.1525 85.8559 70.0501C86.3863 69.7641 86.3701 69.6825 85.7535 69.4619C85.3589 69.3189 85.0338 68.9308 85.0338 68.5917C85.0336 68.2526 84.5732 67.705 84.0059 67.366C83.4428 67.027 82.748 66.7574 82.4644 66.7615ZM92.6398 67.1617C92.5288 66.7124 92.2489 66.4385 92.0229 66.5488C91.749 66.685 91.749 67.0939 92.0229 67.7745C92.1797 68.1634 92.2602 68.4058 92.2325 68.5562C92.2838 68.4628 92.282 68.3403 92.2289 68.1835C92.118 67.8446 92.2086 67.5708 92.4346 67.5707C92.6606 67.5708 92.9854 67.8239 93.1539 68.1301C93.3225 68.4364 93.8776 68.8042 94.3874 68.9472C94.9012 69.0902 95.3124 69.0248 95.3124 68.796C95.312 68.5714 94.8969 68.2853 94.3874 68.1628C93.934 68.0509 93.6112 67.7723 93.5025 67.4142C93.475 67.5731 93.3884 67.7101 93.2563 67.7745C93.0302 67.8847 92.7549 67.611 92.6398 67.1617ZM95.5554 63.9752C95.3773 64.1947 95.1675 64.4375 94.9216 64.7106C94.0093 65.7234 93.3557 66.7771 93.466 67.0595C93.4664 67.0604 93.4665 67.0618 93.4668 67.0627C93.5179 66.6068 93.981 65.8068 94.5392 65.2213C94.8336 64.9124 95.2008 64.4576 95.5554 63.9752ZM96.3045 60.9938C96.276 61.1954 96.2955 61.4403 96.3563 61.7483C96.452 62.2262 96.4174 62.6136 96.1663 63.0918C96.2861 62.9072 96.3972 62.7299 96.492 62.5655C97.2937 61.1643 97.3061 61.0335 96.6483 61.0253C96.4917 61.0233 96.3765 61.0147 96.3045 60.9938ZM109.507 59.7294C109.412 60.0229 109.292 60.2166 109.188 60.2166C109.019 60.2168 108.88 60.4906 108.88 60.8294C108.88 61.0512 109 61.2849 109.177 61.4511C109.112 61.3557 109.055 61.2485 109.011 61.1355C108.847 60.7149 108.929 60.3797 109.216 60.3183C109.438 60.2718 109.541 60.0487 109.507 59.7294ZM96.917 60.2369C96.6923 60.3534 96.5339 60.479 96.4326 60.6359C96.5308 60.5481 96.6626 60.4408 96.8294 60.3103C96.8585 60.2875 96.8876 60.2628 96.917 60.2369ZM98.132 58.2C98.0032 58.4859 97.8998 58.7635 97.84 58.9808C97.9353 58.79 98.013 58.6012 98.0629 58.427C98.0847 58.3504 98.1077 58.2743 98.132 58.2ZM98.7172 56.829C98.7042 56.9222 98.6751 57.0342 98.63 57.1594C98.6565 57.1308 98.6812 57.1102 98.7039 57.0991C98.7916 57.0566 98.7901 56.9559 98.7172 56.829ZM97.5279 53.4311C97.5856 53.4872 97.5699 53.5454 97.4664 53.6018C97.0554 53.8265 97.076 54.1617 97.5693 55.2114C97.6894 55.4689 97.8251 55.7098 97.9601 55.9137C97.797 55.5547 97.7097 55.0868 97.7299 54.5989C97.7535 53.953 97.7395 53.6176 97.5279 53.4311ZM94.2147 51.126C93.6106 50.6768 93.5609 50.7301 93.8034 51.5346C93.9555 52.0412 93.8937 52.5479 93.6676 52.6582C93.4477 52.7653 93.034 52.6405 92.7354 52.3745C92.8031 52.5565 92.8454 52.7998 92.8454 53.0668C92.8455 54.0348 92.9032 54.0594 93.9761 53.5651C94.5527 53.2995 95.5938 53.1324 96.3715 53.1721C96.3558 53.171 96.3398 53.17 96.3237 53.1689C95.5221 53.1117 94.5476 53.2181 94.1653 53.4019C93.5528 53.6919 93.5404 53.6631 94.0789 53.1932C94.416 52.8991 94.7407 52.4252 94.7983 52.1474C94.8557 51.8655 94.5928 51.4078 94.2147 51.126ZM96.5764 53.1877C97.0378 53.2337 97.3608 53.3143 97.4937 53.4035C97.3221 53.2768 97.0381 53.226 96.5764 53.1877ZM92.3807 51.2281C92.5451 50.7707 92.4549 50.7176 92.0357 51.0238C92.0258 51.0311 92.0152 51.0371 92.0056 51.0438C92.2207 51.1331 92.319 51.3236 92.2329 51.5346C92.1179 51.8164 92.2082 52.0452 92.4342 52.0453C92.4521 52.0453 92.4698 52.0489 92.4872 52.0545C92.346 51.7876 92.2967 51.4672 92.3807 51.2281ZM20.418 49.8978C20.4463 49.9704 20.3311 50.0035 20.0757 50.0227C19.7386 50.0513 19.0434 50.1005 18.5378 50.1373C18.3891 50.148 18.2484 50.1461 18.1237 50.1345C18.3739 50.1794 18.6964 50.2067 19.0479 50.2067C19.8373 50.2067 20.4747 50.1127 20.4706 50.0024C20.4686 49.9772 20.4496 49.9415 20.418 49.8978ZM16.7726 49.8607C16.8041 49.9712 16.7593 50.0217 16.6368 50.0144C16.7735 50.0377 16.8183 49.987 16.7726 49.8607ZM16.9923 49.3895C16.7623 49.3139 16.6294 49.312 16.5942 49.3835C16.6321 49.3134 16.765 49.3153 16.9923 49.3895C17.3292 49.4997 17.6084 49.7328 17.6088 49.9002C17.6088 49.9127 17.6135 49.9249 17.6205 49.937C17.6159 49.9251 17.6128 49.9128 17.6128 49.9002C17.6085 49.7327 17.3334 49.4998 16.9923 49.3895ZM19.4841 49.1058C19.5667 49.2764 19.7414 49.4543 19.9729 49.5814C20.1614 49.6852 20.2896 49.7654 20.3597 49.8264C20.2313 49.6796 20.0046 49.4795 19.7508 49.2997C19.6446 49.225 19.5562 49.16 19.4841 49.1058ZM20.0757 48.5723C19.8497 48.4622 19.5739 48.5521 19.4588 48.7766C19.4548 48.7847 19.4519 48.7934 19.4488 48.8018C19.5294 48.7948 19.6356 48.7914 19.7673 48.789C20.015 48.7839 20.2349 48.7077 20.3645 48.5963C20.2901 48.6323 20.1881 48.6271 20.0757 48.5723ZM32.3048 47.0833C32.2433 47.3442 32.2122 47.5676 32.2116 47.7783C32.214 47.5619 32.2454 47.3382 32.3048 47.0833ZM32.8205 44.9522C32.8195 45.2651 32.7302 45.6609 32.553 46.2286C32.7341 45.6506 32.823 45.2545 32.8205 44.9522ZM16.6015 39.2867C16.4798 39.5643 16.5631 39.7884 16.7866 39.7886C16.5994 39.7884 16.5315 39.58 16.6015 39.2867ZM16.6718 39.0736C16.8927 38.5474 16.8381 38.4352 16.3774 38.6167C16.5616 38.7814 16.6605 38.9904 16.634 39.1753C16.645 39.1422 16.6576 39.1081 16.6718 39.0736ZM56.8994 3.29187C56.7609 3.90707 56.2529 4.09392 54.1991 4.50565C52.7314 4.79982 50.6471 5.3228 49.5741 5.66596C48.5012 6.00499 47.3913 6.14777 47.1116 5.98038C46.7377 5.75586 46.7088 5.83377 47.0088 6.27884C47.3334 6.75664 47.2675 6.82212 46.6963 6.58527C46.3018 6.422 45.8865 6.47087 45.7713 6.6954C45.6603 6.92011 45.2406 7.0916 44.8459 7.07525C44.7017 7.06952 44.592 7.06171 44.5177 7.04972C44.5223 7.06735 44.5288 7.08567 44.5378 7.10398C44.6488 7.32865 44.4639 7.5125 44.1269 7.51257C43.79 7.51263 43.5102 7.6966 43.51 7.92115C43.51 8.13178 43.185 8.30667 42.7718 8.32774L42.6039 8.33173C42.1909 8.35282 41.8659 8.52781 41.8656 8.73831C41.8656 8.96302 41.5858 9.1469 41.2487 9.1469C40.9118 9.14701 40.6323 9.33093 40.6322 9.55548C40.6322 9.78016 40.2622 9.96404 39.81 9.96406C39.7688 9.96407 39.728 9.9659 39.6883 9.96885C39.833 10.0292 39.7392 10.2192 39.3987 10.5765C39.0616 10.9319 38.5971 11.21 38.3709 11.1938C38.1588 11.1787 37.6577 11.4969 37.2234 11.9204L37.0515 12.0928C36.617 12.5169 36.1159 12.8391 35.904 12.8237C35.8348 12.82 35.8001 12.7993 35.7963 12.7663C35.4955 12.9784 35.2812 13.0522 35.275 12.9259C35.2705 12.8408 35.1722 12.8706 34.9099 13.1098C35.1252 12.9598 35.2698 12.9552 35.275 13.1302C35.2832 13.4121 34.7776 14.0169 34.1568 14.4744C33.5423 14.9314 32.8112 15.2035 32.5213 15.0901C32.5317 15.0956 32.5427 15.1012 32.5534 15.1077C32.8576 15.2956 32.5165 15.79 31.5874 16.505C31.5733 16.5159 31.5588 16.5262 31.5449 16.5369C31.5816 16.5637 31.5982 16.6193 31.5914 16.7049C31.5709 16.9296 31.0978 17.5262 30.5427 18.0328C29.9507 18.572 29.3218 18.8254 29.0217 18.6457C28.6849 18.4443 28.6162 18.5125 28.816 18.8499C28.9928 19.1441 28.9024 19.373 28.6064 19.3934C28.1956 19.4179 28.1956 19.4589 28.6064 19.5977C28.89 19.6916 29.0299 19.9531 28.9149 20.1778C28.822 20.3656 28.5484 20.4584 28.2618 20.4196C28.2849 20.4706 28.2983 20.5271 28.2983 20.5864C28.2983 20.8111 27.9736 21.1627 27.579 21.3629C27.426 21.4414 27.3038 21.4905 27.2062 21.5021C27.2444 21.8554 26.9783 22.4064 26.4479 23.0375C25.8848 23.7115 25.4164 24.4919 25.4121 24.774C25.4093 25.1145 25.2751 25.0804 25.0092 24.6718C25.0059 24.6667 25.002 24.6617 24.9988 24.6567C25.0072 24.6922 25.0126 24.7314 25.0132 24.774C25.0132 25.0559 24.7585 25.6525 24.4461 26.1019C24.1297 26.551 23.8627 27.0126 23.85 27.1233C23.8377 27.2336 23.7308 27.6014 23.6075 27.9405C23.4882 28.2796 23.2045 29.3788 22.9825 30.392C22.7277 31.5516 22.7236 32.2664 22.9741 32.3324C23.2166 32.3977 23.2084 32.741 22.9536 33.2517C22.6796 33.7963 22.6797 34.1369 22.9536 34.2731C23.1797 34.3835 23.4758 34.1546 23.6115 33.7624C23.7472 33.37 24.3929 31.8994 25.0506 30.4942C25.7041 29.0891 26.4277 27.9411 26.654 27.9405C26.88 27.9404 27.0649 27.7566 27.0649 27.5319C27.0652 27.3069 27.5749 26.4325 28.1955 25.5912C28.8163 24.7495 30.1566 23.1765 31.1761 22.0939C32.1915 21.0155 33.4659 20.0025 34.0005 19.8471C34.5391 19.6918 35.0942 19.3812 35.234 19.1524C35.378 18.9276 36.1388 18.2659 36.9322 17.6777C37.7257 17.0934 40.0363 15.7612 42.0713 14.7194C44.1058 13.6779 45.9557 12.8285 46.1826 12.8321C46.4094 12.836 48.0741 12.3662 49.8826 11.7903C51.6915 11.2143 54.1419 10.7078 55.3302 10.6587C56.5182 10.6138 57.5129 10.4175 57.5376 10.2214C57.5678 10.0254 60.2973 9.97232 63.6017 10.0989C66.9109 10.2297 70.0809 10.4255 70.6447 10.5358C71.212 10.6502 72.2276 10.9035 72.9059 11.0996C73.9665 11.406 74.139 11.6556 74.139 12.8565C74.139 13.5135 74.1095 13.8659 73.9165 14.0663C74.0989 13.9687 74.2186 13.857 74.2418 13.7431C74.2994 13.4611 74.3447 12.8645 74.3447 12.4152C74.3447 11.9619 74.6201 11.5981 74.9612 11.598C75.3024 11.598 75.8081 11.9659 76.0918 12.4152C76.3754 12.8684 76.7453 13.2361 76.914 13.2323C77.0826 13.2323 77.0826 12.938 76.914 12.5744C76.6429 11.9947 76.7542 11.9741 77.839 12.3988C78.5173 12.6644 80.1827 13.4041 81.5394 14.0455C82.8961 14.6828 85.1615 16.0512 86.5757 17.0807C87.9896 18.1101 89.3297 18.9517 89.5563 18.9521C89.7824 18.9521 89.877 19.2259 89.762 19.565C89.6917 19.7797 89.6277 20.0782 89.5905 20.3542C89.7132 19.866 90.1597 19.1156 90.687 18.5395C91.3077 17.8655 92.0479 17.314 92.3317 17.3138C92.6153 17.3178 92.8454 17.1342 92.8454 16.9096C92.8458 16.7296 93.4154 16.4527 94.1974 16.2321C93.7914 16.3093 93.3419 16.3982 92.8454 16.5006L90.687 14.3886C89.4988 13.2243 87.5582 11.5693 86.3701 10.7114C85.182 9.84943 84.0717 9.15509 83.9031 9.16326C83.7344 9.17514 83.3644 8.89742 83.0809 8.55038C82.7973 8.20731 82.4273 7.94136 82.2588 7.96584C82.09 7.99028 81.535 7.89673 81.0253 7.76195C80.2238 7.54544 80.1539 7.37759 80.5116 6.49111C80.7856 5.8104 80.7855 5.46976 80.5116 5.46965C80.2857 5.46972 80.0966 5.60874 80.0923 5.77609C80.0923 5.94359 79.9523 6.31565 79.7838 6.60163C79.5453 7.01006 79.1669 6.98971 77.9418 6.49949C77.095 6.15631 76.4003 5.69434 76.4003 5.46965C76.3999 5.24107 75.8531 5.15102 75.1668 5.26536C74.9931 5.29396 74.8264 5.30863 74.6708 5.31165C74.7006 5.47713 74.6289 5.46733 74.4362 5.30646C74.0412 5.27928 73.7441 5.16071 73.6249 4.96331C73.5928 4.91024 73.5679 4.86333 73.5494 4.82366C73.4987 4.82641 73.4544 4.83841 73.4197 4.86117C73.2511 4.97143 72.8811 4.93041 72.5975 4.767C72.3139 4.60366 71.8986 4.4446 71.6725 4.41189C71.4454 4.37909 69.4105 4.12972 67.1499 3.85607C64.8887 3.58236 61.6983 3.46399 60.058 3.59472C57.7416 3.78135 57.1011 3.72725 56.8994 3.29187ZM83.963 24.3554C83.8557 24.5391 83.5575 24.7801 83.1673 24.9783C83.0665 25.0291 82.9766 25.0766 82.897 25.1215C82.9911 25.0955 83.0892 25.0804 83.1842 25.0804C83.5211 25.0805 83.8952 25.3544 84.0063 25.6933C84.1173 26.0324 84.3968 26.2121 84.6229 26.1019C84.849 25.9916 85.0298 25.5748 85.0257 25.1826C85.0216 24.5784 84.9642 24.566 84.6642 25.0804C84.3765 25.5789 84.2613 25.5217 84.0557 24.774C84.0091 24.604 83.9771 24.4658 83.963 24.3554ZM23.9814 24.2637C24.041 24.3843 24.1497 24.4655 24.2722 24.4983C24.2186 24.4598 24.1608 24.4112 24.1007 24.353C24.0657 24.3183 24.0232 24.2851 23.975 24.2537C23.9769 24.257 23.9797 24.2603 23.9814 24.2637ZM24.8357 24.4452C24.7079 24.3111 24.6212 24.3072 24.6228 24.4572C24.7017 24.4244 24.7746 24.4219 24.8357 24.4452ZM84.0296 24.039C83.9902 24.0582 83.9713 24.0841 83.9742 24.1164C83.9865 24.0846 84.005 24.0591 84.0296 24.039ZM88.9394 20.7907C89.0764 20.3822 88.9396 20.246 88.5285 20.3821C88.1175 20.5183 87.9803 20.9271 88.1172 21.6079C88.2042 22.0425 88.2056 22.3096 88.0947 22.4598C88.2346 22.3497 88.3233 22.1928 88.3233 22.0165C88.3234 21.6775 88.6028 21.4037 88.9398 21.4036C88.9808 21.4036 89.0208 21.398 89.0595 21.388C88.8982 21.3261 88.8438 21.0828 88.9394 20.7907ZM87.7983 21.8413C87.8905 21.8908 87.7768 22.0434 87.5007 22.2208C87.7804 22.0432 87.8919 21.8906 87.7983 21.8413ZM100.381 20.2337C100.177 20.8145 100.205 21.0661 100.485 21.2947C100.326 21.0666 100.291 20.7129 100.381 20.2337ZM27.1705 18.9613C26.8498 19.0168 26.6864 19.3475 26.7275 19.8714C26.7396 20.038 26.7691 20.2191 26.8082 20.3973C26.8074 20.379 26.8065 20.3602 26.8058 20.3414C26.7791 19.5912 26.926 19.0375 27.1705 18.9613ZM27.248 18.9533C27.4961 18.9661 27.6511 19.2342 27.591 19.565C27.5368 19.8442 27.6199 20.0789 27.777 20.1531C27.6567 19.9898 27.6136 19.7721 27.6814 19.565C27.8046 19.2015 27.6362 18.9522 27.2705 18.9521C27.263 18.9521 27.2553 18.953 27.248 18.9533ZM28.3429 16.3917C27.922 16.8201 27.971 16.9227 28.5779 16.9706C28.6138 16.9738 28.6515 16.9775 28.6903 16.981C28.3118 16.7766 28.2089 16.5982 28.3429 16.3917ZM32.2674 15.0574C32.1055 15.1 32.0091 15.2883 32.0148 15.5817C32.0224 15.8563 32.004 16.011 31.9296 16.0561C32.0188 16.015 32.0502 15.8532 32.0602 15.5573C32.0678 15.2817 32.1436 15.1091 32.2674 15.0574ZM33.392 13.3345C33.2085 12.5138 33.0825 12.3614 32.8374 12.7324C33.0505 12.4159 33.1859 12.5424 33.4888 13.7921L33.6431 14.4581L33.392 13.3345ZM36.9482 11.4252C36.9149 11.631 36.638 12.0172 36.2839 12.3605C36.6464 12.1363 36.9405 11.7605 36.9482 11.4958C36.9494 11.4704 36.9491 11.4468 36.9482 11.4252ZM36.9185 11.294C36.8547 11.1859 36.6893 11.2577 36.3936 11.5126C36.6411 11.3079 36.8416 11.228 36.9185 11.294ZM44.9053 6.71415C44.7327 6.73334 44.6057 6.79372 44.5467 6.87854C44.6299 6.83463 44.7494 6.78084 44.9053 6.71415ZM45.3829 6.2553C45.3719 6.33482 45.3823 6.40365 45.4158 6.4544C45.5281 6.37691 45.5533 6.32435 45.4628 6.31555C45.4186 6.31121 45.3926 6.28972 45.3829 6.2553ZM47.1907 5.14047C47.2152 5.15902 47.2401 5.17702 47.2658 5.19354C47.2403 5.17722 47.2157 5.15878 47.1907 5.14047ZM46.1946 3.93747C45.8495 3.88041 45.5658 4.10935 45.5656 4.44819C45.5656 4.74827 45.3948 4.91414 45.1295 4.89428C45.35 5.00992 45.4542 4.90835 45.5656 4.59982C45.6766 4.28128 45.9565 4.02768 46.1826 4.03163C46.4086 4.03581 46.6222 4.22403 46.6593 4.44859C46.6965 4.65152 46.9258 4.9466 47.1907 5.14047C46.9346 4.94651 46.752 4.65089 46.7742 4.44819C46.7986 4.2236 46.5398 3.99464 46.1946 3.93747ZM73.8089 3.42195C73.8269 3.46117 73.8465 3.49742 73.8679 3.52928C73.9289 3.61824 73.9998 3.73894 74.0739 3.87602C74.0124 3.75744 73.9441 3.63867 73.8719 3.52928C73.8496 3.49549 73.8287 3.45917 73.8089 3.42195ZM58.4116 1.4329C58.0815 1.49192 57.753 1.58989 57.5581 1.69864C57.4224 1.77255 57.292 1.93199 57.1858 2.13396C57.225 2.08559 57.2671 2.03971 57.3115 1.9971C57.5706 1.75149 58.0047 1.53622 58.4116 1.4329Z" fill="#615CE5"/>
</svg>
