<svg width="24" height="22" viewBox="0 0 24 22" fill="none" xmlns="http://www.w3.org/2000/svg">
<path d="M2.33876 8.95583C2.49982 8.78826 2.6211 8.63757 2.75114 8.44829C3.0262 8.05957 3.36459 7.75051 3.80672 7.55697C3.8502 7.58853 3.89369 7.62009 3.93849 7.65261C3.98831 7.62685 4.03813 7.60109 4.08946 7.57455C4.20017 7.5173 4.31088 7.46005 4.42159 7.4028C4.46508 7.43436 4.50857 7.46593 4.55337 7.49845C4.68018 7.39234 4.68018 7.39234 4.80955 7.28409C4.85303 7.31565 4.89652 7.34721 4.94132 7.37973C4.97272 7.33647 5.00412 7.29321 5.03647 7.24864C5.07995 7.2802 5.12344 7.31176 5.16825 7.34428C5.19964 7.30102 5.23104 7.25776 5.26339 7.21319C5.32862 7.26053 5.39385 7.30787 5.46106 7.35665C5.54559 7.28591 5.63013 7.21517 5.71723 7.14229C5.80421 7.20541 5.89118 7.26854 5.98079 7.33358C6.01219 7.29032 6.04358 7.24706 6.07593 7.20249C6.1629 7.26561 6.24988 7.32873 6.33949 7.39377C6.37088 7.35051 6.40228 7.30725 6.43463 7.26268C6.47812 7.29424 6.5216 7.3258 6.56641 7.35832C6.59781 7.31506 6.6292 7.2718 6.66155 7.22723C6.74853 7.29035 6.8355 7.35348 6.92511 7.41851C6.95651 7.37525 6.9879 7.33199 7.02025 7.28742C7.15646 7.3187 7.29246 7.3509 7.42837 7.38348C7.50412 7.40131 7.57988 7.41915 7.65793 7.43752C7.86943 7.50345 7.86943 7.50345 8.13298 7.69474C8.16438 7.65148 8.19578 7.60822 8.22813 7.56365C8.27795 7.57504 8.32778 7.58644 8.37911 7.59818C8.58943 7.63816 8.58943 7.63816 8.79499 7.56227C9.13703 7.54929 9.29387 7.69692 9.56137 7.89724C9.69956 8.03116 9.69956 8.03116 9.80208 8.30571C9.77068 8.34897 9.73929 8.39223 9.70694 8.4368C9.88389 8.5511 10.0611 8.66502 10.2384 8.77874C10.2883 8.81105 10.3383 8.84337 10.3897 8.87666C10.6279 9.029 10.8558 9.16205 11.1199 9.26213C11.167 9.19724 11.2141 9.13235 11.2626 9.0655C11.3061 9.09706 11.3495 9.12862 11.3944 9.16114C11.4401 9.13242 11.4858 9.1037 11.533 9.07411C11.7551 8.97785 11.8421 8.9973 12.0751 9.05479C12.2503 9.14048 12.2503 9.14048 12.4178 9.24098C12.5021 9.29096 12.5021 9.29096 12.5882 9.34194C12.6303 9.36758 12.6723 9.39322 12.7157 9.41964C12.7518 9.37043 12.788 9.32121 12.8252 9.27051C13.7043 8.07362 14.1764 7.43815 14.8296 6.55403C15.1455 6.12647 15.4613 5.69882 15.7768 5.27096C16.0517 4.89809 16.3269 4.52538 16.6023 4.15286C16.7482 3.95558 16.8939 3.75821 17.0394 3.56064C17.1763 3.37473 17.3135 3.18904 17.4509 3.00352C17.5013 2.93536 17.5516 2.86712 17.6018 2.79879C17.6703 2.70555 17.7393 2.61264 17.8082 2.51974C17.8467 2.46763 17.8851 2.41552 17.9248 2.36184C18.0189 2.24906 18.1138 2.16975 18.2388 2.08695C18.3122 1.99212 18.3822 1.8947 18.4501 1.79585C18.7742 1.33829 19.1386 0.912954 19.502 0.485176C19.4585 0.453614 19.415 0.422052 19.3702 0.389533C19.4632 0.261447 19.5561 0.13336 19.6519 0.00139224C19.6954 0.0329542 19.7389 0.0645164 19.7837 0.0970348C19.8069 0.0650132 19.8302 0.032992 19.8541 0C19.9215 0.0444034 19.9888 0.0888068 20.0582 0.134556C20.6048 0.497946 20.6048 0.497945 21.1651 0.835781C21.582 1.08919 21.9696 1.38161 22.3624 1.67235C22.3392 1.70437 22.3159 1.73639 22.292 1.76938C22.3341 1.82286 22.3762 1.87633 22.4196 1.93143C22.551 2.10552 22.551 2.10552 22.5817 2.20186C22.5257 2.28464 22.4671 2.36566 22.4056 2.44445C22.3641 2.42327 22.3225 2.40208 22.2797 2.38026C22.2255 2.35331 22.1712 2.32637 22.1154 2.29861C22.0615 2.27154 22.0076 2.24446 21.9521 2.21657C21.8004 2.14075 21.8004 2.14075 21.6718 2.20813C21.7459 2.26643 21.82 2.32472 21.8964 2.38479C21.9949 2.46248 22.0933 2.54019 22.1917 2.6179C22.2404 2.65618 22.2892 2.69446 22.3394 2.7339C22.6114 2.94896 22.8684 3.16568 23.1168 3.40505C23.0935 3.43707 23.0703 3.4691 23.0464 3.50209C23.0898 3.53365 23.1333 3.56521 23.1781 3.59773C23.1549 3.62975 23.1317 3.66177 23.1077 3.69476C23.1512 3.72633 23.1947 3.75789 23.2395 3.79041C23.1816 4.02615 23.1816 4.02615 23.0282 4.08151C22.9847 4.04995 22.9412 4.01839 22.8964 3.98587C22.8732 4.01789 22.8499 4.04991 22.826 4.0829C22.3911 3.76729 21.9563 3.45167 21.5082 3.12648C21.114 3.56205 20.7477 4.0108 20.3968 4.48018C20.346 4.54765 20.2952 4.61511 20.2444 4.68253C20.0582 4.92944 19.8727 5.17677 19.6871 5.4241C19.5293 5.63438 19.3713 5.84449 19.213 6.05438C19.14 6.15137 19.0673 6.24861 18.9946 6.34585C18.7477 6.67343 18.4912 6.98776 18.207 7.286C18.0675 7.44105 17.97 7.60828 17.8706 7.79198C17.7188 8.05735 17.5569 8.27959 17.3378 8.493C16.9569 8.89449 16.6659 9.37335 16.3806 9.84488C16.0191 10.442 15.6131 11.0237 14.9862 11.7278C14.5824 12.2135 14.2244 12.7368 13.8582 13.251C13.9017 13.2826 13.9452 13.3141 13.99 13.3467C13.9586 13.3899 13.9272 13.4332 13.8948 13.4778C13.9383 13.5093 13.9818 13.5409 14.0266 13.5734C14.0787 13.8546 14.038 13.972 13.8952 14.2218C13.8314 14.3116 13.7665 14.4005 13.7006 14.4888C13.666 14.5365 13.6314 14.5842 13.5958 14.6334C13.5224 14.7341 13.4486 14.8346 13.3743 14.9346C13.2619 15.0861 13.1514 15.2388 13.0411 15.3918C12.3453 16.3469 12.3453 16.3469 11.8566 16.7019C11.7985 16.7091 11.7404 16.7163 11.6806 16.7237C11.6264 16.734 11.5721 16.7444 11.5162 16.755C11.3583 17.0052 11.3583 17.0052 11.2491 17.2617C11.2056 17.2301 11.1622 17.1985 11.1174 17.166C11.0884 17.2317 11.0594 17.2973 11.0295 17.365C10.8958 17.6108 10.7536 17.7669 10.5465 17.9526C10.59 17.9841 10.6335 18.0157 10.6783 18.0482C10.4585 18.351 10.2387 18.6538 10.0123 18.9658C10.0558 18.9974 10.0992 19.029 10.144 19.0615C9.89033 19.4111 9.63661 19.7606 9.38289 20.1102C9.33459 20.1825 9.28629 20.2548 9.23652 20.3292C9.02555 20.6003 8.80662 20.7855 8.53754 20.9978C8.49405 20.9662 8.45057 20.9346 8.40576 20.9021C8.34297 20.9886 8.28017 21.0751 8.21547 21.1643C8.17199 21.1327 8.1285 21.1012 8.0837 21.0686C8.0209 21.1552 7.95811 21.2417 7.89341 21.3308C7.84992 21.2993 7.80643 21.2677 7.76163 21.2352C7.73023 21.2784 7.69884 21.3217 7.66649 21.3663C7.623 21.3347 7.57951 21.3032 7.53471 21.2706C7.45017 21.3414 7.36563 21.4121 7.27853 21.485C7.23505 21.4534 7.19156 21.4219 7.14676 21.3894C7.11536 21.4326 7.08396 21.4759 7.05161 21.5204C6.98638 21.4731 6.92115 21.4258 6.85395 21.377C6.82255 21.4202 6.79115 21.4635 6.7588 21.5081C6.6066 21.3976 6.45439 21.2871 6.29758 21.1733C6.26618 21.2166 6.23478 21.2598 6.20244 21.3044C6.1497 21.2699 6.09696 21.2353 6.04262 21.1998C5.56678 20.8907 5.56678 20.8907 5.03455 20.7132C4.54211 20.6048 4.16046 20.2457 3.77193 19.9407C3.74053 19.9839 3.70913 20.0272 3.67678 20.0718C3.27817 19.7874 2.8802 19.5022 2.48279 19.2162C2.34759 19.1191 2.21223 19.0222 2.07669 18.9255C1.88155 18.7864 1.68705 18.6463 1.49264 18.5061C1.43222 18.4633 1.37179 18.4205 1.30954 18.3763C0.99166 18.1457 0.752269 17.9376 0.543369 17.5974C0.574766 17.5542 0.606164 17.5109 0.638513 17.4664C0.595026 17.4348 0.551539 17.4032 0.506735 17.3707C0.538132 17.3274 0.569529 17.2842 0.601878 17.2396C0.514905 17.1765 0.427932 17.1134 0.338323 17.0483C0.36972 17.0051 0.401117 16.9618 0.433466 16.9172C0.38998 16.8857 0.346493 16.8541 0.301689 16.8216C0.333086 16.7783 0.364483 16.7351 0.396832 16.6905C0.353346 16.6589 0.309859 16.6274 0.265054 16.5949C0.296452 16.5516 0.327849 16.5083 0.360198 16.4638C0.316711 16.4322 0.273225 16.4007 0.22842 16.3681C0.259818 16.3249 0.291215 16.2816 0.323564 16.237C0.280077 16.2055 0.236591 16.1739 0.191786 16.1414C0.223183 16.0981 0.254581 16.0549 0.28693 16.0103C0.243443 15.9787 0.199956 15.9472 0.155152 15.9147C0.186549 15.8714 0.217947 15.8281 0.250295 15.7836C0.206809 15.752 0.163322 15.7205 0.118518 15.6879C0.181312 15.6014 0.244107 15.5149 0.308805 15.4258C0.253229 15.3194 0.197653 15.213 0.140393 15.1034C0.17179 15.0601 0.203188 15.0169 0.235537 14.9723C0.19205 14.9407 0.148563 14.9092 0.103759 14.8766C0.135156 14.8334 0.166553 14.7901 0.198902 14.7456C0.155416 14.714 0.111929 14.6824 0.0671245 14.6499C0.0476822 14.4677 0.047682 14.4677 0.0455623 14.2465C0.0442778 14.1736 0.0429933 14.1007 0.0416698 14.0255C0.0523655 13.8386 0.0523654 13.8386 0.147509 13.7075C0.104022 13.676 0.0605357 13.6444 0.0157312 13.6119C-0.11777 12.2621 0.620239 11.3175 1.40243 10.3152C1.44592 10.3468 1.4894 10.3784 1.53421 10.4109C1.53933 10.3609 1.54446 10.311 1.54974 10.2595C1.65689 9.74473 1.97667 9.32505 2.33876 8.95583ZM3.04201 9.30362C3.28725 9.38154 3.28725 9.38154 3.28725 9.38154L3.04201 9.30362ZM2.57367 10.3647C2.61716 10.3963 2.66064 10.4278 2.70545 10.4604C2.7151 10.4013 2.72476 10.3423 2.7347 10.2814C2.68156 10.3089 2.62842 10.3364 2.57367 10.3647ZM4.1326 8.494C4.17609 8.52556 4.21958 8.55712 4.26438 8.58964C4.25495 8.64265 4.24552 8.69567 4.23581 8.75029C4.1998 8.9624 4.1998 8.9624 4.19493 9.23974C4.23842 9.27131 4.28191 9.30287 4.32671 9.33539C4.29531 9.37865 4.26392 9.42191 4.23157 9.46648C4.27506 9.49804 4.31854 9.5296 4.36335 9.56212C4.32834 9.70183 4.29333 9.84154 4.25727 9.98549C4.30075 10.017 4.34424 10.0486 4.38904 10.0811C4.35765 10.1244 4.32625 10.1677 4.2939 10.2122C4.33739 10.2438 4.38087 10.2753 4.42568 10.3079C4.39428 10.3511 4.36288 10.3944 4.33053 10.439C4.43321 10.4804 4.53588 10.5219 4.64166 10.5647C4.67306 10.5214 4.70446 10.4782 4.7368 10.4336C4.78029 10.4652 4.82378 10.4967 4.86858 10.5292C4.89998 10.486 4.93138 10.4427 4.96373 10.3982C5.00721 10.4297 5.0507 10.4613 5.0955 10.4938C5.15008 10.4529 5.20465 10.412 5.26088 10.3699C5.46514 10.2617 5.46514 10.2617 5.64381 10.3101C5.68752 10.3356 5.73123 10.3611 5.77627 10.3875C5.80767 10.3442 5.83906 10.3009 5.87141 10.2564C5.92569 10.2731 5.97997 10.2897 6.03589 10.3069C6.31937 10.3695 6.58902 10.3867 6.87818 10.3987C7.06368 10.4195 7.20326 10.4669 7.3721 10.545C7.40349 10.5017 7.43489 10.4584 7.46724 10.4139C7.50778 10.4495 7.54833 10.4851 7.5901 10.5218C7.80237 10.6718 7.80237 10.6718 8.10824 10.731C8.4726 10.8285 8.74162 10.9914 9.04679 11.2089C9.12374 11.262 9.12373 11.262 9.20223 11.3162C9.36385 11.4282 9.52453 11.5414 9.68522 11.6546C9.7955 11.7313 9.90584 11.808 10.0162 11.8845C10.2849 12.0711 10.5528 12.2588 10.8202 12.4471C10.8516 12.4038 10.883 12.3606 10.9153 12.316C10.9588 12.3476 11.0023 12.3791 11.0471 12.4116C11.0785 12.3684 11.1099 12.3251 11.1423 12.2806C11.1857 12.3121 11.2292 12.3437 11.274 12.3762C11.3368 12.2897 11.3996 12.2032 11.4643 12.114C11.5078 12.1456 11.5513 12.1771 11.5961 12.2097C11.6275 12.1664 11.6589 12.1231 11.6912 12.0786C11.7782 12.1417 11.8652 12.2048 11.9548 12.2699C11.9862 12.2266 12.0176 12.1833 12.0499 12.1388C12.3544 12.3597 12.6588 12.5806 12.9724 12.8083C13.034 12.6548 13.034 12.6548 13.0968 12.4983C13.0316 12.4509 12.9663 12.4036 12.8991 12.3548C12.9305 12.3115 12.9619 12.2683 12.9943 12.2237C12.929 12.1764 12.8638 12.129 12.7966 12.0802C12.828 12.037 12.8594 11.9937 12.8917 11.9492C12.8265 11.9018 12.7613 11.8545 12.6941 11.8057C12.7255 11.7624 12.7569 11.7192 12.7892 11.6746C12.7457 11.643 12.7022 11.6115 12.6574 11.579C12.6888 11.5357 12.7202 11.4924 12.7526 11.4479C12.7151 11.2617 12.7151 11.2617 12.6459 11.0577C12.6242 10.988 12.6024 10.9183 12.58 10.8465C12.5263 10.6652 12.5263 10.6652 12.3791 10.5764C12.4105 10.5331 12.4419 10.4899 12.4743 10.4453C12.4308 10.4137 12.3873 10.3822 12.3425 10.3496C12.3739 10.3064 12.4053 10.2631 12.4376 10.2186C12.3431 10.0376 12.26 9.97615 12.0958 9.85789C12.0497 9.82419 12.0037 9.79048 11.9562 9.75576C11.8257 9.66296 11.8257 9.66296 11.647 9.6447C11.6156 9.68796 11.5842 9.73122 11.5518 9.77579C11.5083 9.74423 11.4649 9.71267 11.42 9.68015C11.373 9.74504 11.3259 9.80993 11.2773 9.87679C11.2338 9.84522 11.1904 9.81366 11.1456 9.78114C11.1142 9.8244 11.0828 9.86766 11.0504 9.91223C10.7955 9.76027 10.5407 9.60831 10.2781 9.45175C10.1935 9.52249 10.109 9.59323 10.0219 9.66611C10.0871 9.71345 10.1523 9.76079 10.2196 9.80957C10.2048 9.88558 10.2048 9.88558 10.1898 9.96313C10.1603 10.1724 10.1508 10.3622 10.1684 10.573C10.2119 10.6046 10.2554 10.6362 10.3002 10.6687C10.2374 10.7552 10.1746 10.8417 10.1099 10.9309C10.0664 10.8993 10.0229 10.8677 9.97814 10.8352C9.88755 10.8686 9.79697 10.9019 9.70364 10.9362C9.55051 10.8867 9.55051 10.8867 9.38618 10.8008C9.32712 10.7705 9.26805 10.7402 9.2072 10.709C9.14613 10.6765 9.08505 10.644 9.02213 10.6105C8.95999 10.5783 8.89786 10.5462 8.83384 10.5131C8.68043 10.4336 8.52762 10.3529 8.37493 10.2721C8.34353 10.3153 8.31213 10.3586 8.27978 10.4032C8.22331 10.358 8.16684 10.3129 8.10865 10.2664C7.88629 10.1175 7.71988 10.0582 7.45986 10.0082C7.42846 10.0515 7.39707 10.0947 7.36472 10.1393C7.32722 10.0409 7.32722 10.0409 7.28897 9.94048C7.18214 9.71244 7.07564 9.57265 6.89612 9.39892C6.86472 9.44218 6.83332 9.48544 6.80097 9.53001C6.75334 9.50988 6.7057 9.48976 6.65662 9.46902C6.49096 9.39822 6.49096 9.39822 6.31049 9.37417C6.2791 9.41743 6.2477 9.46069 6.21535 9.50526C6.16771 9.48514 6.12008 9.46501 6.071 9.44427C5.90533 9.37348 5.90534 9.37348 5.72487 9.34943C5.69348 9.39269 5.66208 9.43595 5.62973 9.48052C5.54276 9.41739 5.45578 9.35427 5.36618 9.28923C5.39757 9.24597 5.42897 9.20271 5.46132 9.15814C5.41783 9.12658 5.37435 9.09502 5.32954 9.0625C5.36094 9.01924 5.39234 8.97598 5.42469 8.93141C5.3812 8.89985 5.33771 8.86829 5.29291 8.83577C5.3243 8.79251 5.3557 8.74925 5.38805 8.70468C5.43154 8.73624 5.47502 8.7678 5.51983 8.80032C5.55123 8.75706 5.58262 8.7138 5.61497 8.66923C5.65846 8.70079 5.70195 8.73235 5.74675 8.76487C5.77815 8.72161 5.80954 8.67835 5.84189 8.63378C5.88538 8.66534 5.92887 8.6969 5.97367 8.72942C6.00507 8.68616 6.03647 8.6429 6.06882 8.59833C6.11645 8.61846 6.16409 8.63858 6.21317 8.65932C6.37883 8.73012 6.37883 8.73012 6.55929 8.75417C6.59069 8.71091 6.62209 8.66765 6.65444 8.62308C6.74141 8.6862 6.82838 8.74932 6.91799 8.81436C7.11558 8.48225 7.15971 8.2973 7.06426 7.9198C7.01112 7.94728 6.95798 7.97476 6.90323 8.00307C6.81626 7.93995 6.72929 7.87682 6.63968 7.81179C6.60828 7.85505 6.57688 7.89831 6.54453 7.94288C6.50105 7.91132 6.45756 7.87975 6.41276 7.84724C6.38136 7.8905 6.34996 7.93375 6.31761 7.97833C6.23064 7.9152 6.14367 7.85208 6.05406 7.78704C6.02266 7.8303 5.99126 7.87356 5.95891 7.91813C5.91543 7.88657 5.87194 7.85501 5.82713 7.82249C5.79574 7.86575 5.76434 7.90901 5.73199 7.95358C5.6885 7.92202 5.64502 7.89046 5.60021 7.85794C5.56882 7.9012 5.53742 7.94446 5.50507 7.98903C5.46158 7.95747 5.4181 7.92591 5.37329 7.89339C5.34189 7.93665 5.3105 7.97991 5.27815 8.02448C5.23466 7.99292 5.19117 7.96135 5.14637 7.92884C5.11497 7.9721 5.08358 8.01536 5.05123 8.05993C4.93286 8.04006 4.81449 8.0202 4.69253 7.99973C4.66113 8.04299 4.62973 8.08625 4.59738 8.13082C4.5539 8.09926 4.51041 8.0677 4.46561 8.03518C4.43421 8.07844 4.40281 8.1217 4.37046 8.16627C4.32698 8.13471 4.28349 8.10315 4.23868 8.07063C4.11597 8.21409 4.11596 8.21409 4.1326 8.494ZM1.9443 11.5091C1.98779 11.5406 2.03127 11.5722 2.07608 11.6047C2.10748 11.5615 2.13887 11.5182 2.17122 11.4736C2.12774 11.4421 2.08425 11.4105 2.03944 11.378C2.00805 11.4213 1.97665 11.4645 1.9443 11.5091ZM0.886783 13.2434C0.914571 13.2966 0.942359 13.3497 0.970989 13.4046C1.03378 13.318 1.09658 13.2315 1.16128 13.1424C1.11779 13.1108 1.0743 13.0792 1.0295 13.0467C0.982402 13.1116 0.935306 13.1765 0.886783 13.2434ZM1.6955 12.1291C1.73899 12.1607 1.78248 12.1922 1.82728 12.2247C1.85868 12.1815 1.89008 12.1382 1.92243 12.0936C1.87894 12.0621 1.83545 12.0305 1.79065 11.998C1.75925 12.0413 1.72785 12.0845 1.6955 12.1291ZM2.33963 11.796C2.38312 11.8276 2.42661 11.8591 2.47141 11.8917C2.50281 11.8484 2.53421 11.8051 2.56656 11.7606C2.52307 11.729 2.47958 11.6974 2.43478 11.6649C2.40338 11.7082 2.37198 11.7514 2.33963 11.796ZM2.98429 15.0659C3.02778 15.0975 3.07126 15.129 3.11607 15.1616C3.0856 15.2263 3.0856 15.2263 3.05451 15.2924C2.86031 15.8461 3.00904 16.5313 3.23206 17.0587C3.35514 17.2566 3.48918 17.3596 3.67744 17.4969C3.74603 17.547 3.81461 17.597 3.88528 17.6486C3.95708 17.6999 4.02888 17.7513 4.10285 17.8041C4.17341 17.8561 4.24396 17.9081 4.31665 17.9617C4.66827 18.2155 4.97317 18.4288 5.40413 18.5234C5.43552 18.4802 5.46692 18.4369 5.49927 18.3923C5.58624 18.4555 5.67322 18.5186 5.76283 18.5836C5.79422 18.5404 5.82562 18.4971 5.85797 18.4525C5.90146 18.4841 5.94494 18.5157 5.98975 18.5482C6.02114 18.5049 6.05254 18.4617 6.08489 18.4171C6.12838 18.4486 6.17186 18.4802 6.21667 18.5127C6.24807 18.4695 6.27946 18.4262 6.31181 18.3816C6.3553 18.4132 6.39879 18.4448 6.44359 18.4773C6.56557 18.4007 6.68755 18.3241 6.81323 18.2452C6.85671 18.2767 6.9002 18.3083 6.945 18.3408C7.02954 18.2701 7.11408 18.1994 7.20118 18.1265C7.12688 18.023 7.12688 18.023 7.05108 17.9175C6.84538 17.8918 6.84538 17.8918 6.64481 17.9228C6.61342 17.9661 6.58202 18.0093 6.54967 18.0539C6.50618 18.0223 6.4627 17.9908 6.41789 17.9583C6.3865 18.0015 6.3551 18.0448 6.32275 18.0894C6.22008 18.0479 6.11741 18.0064 6.01162 17.9636C5.98022 18.0069 5.94883 18.0501 5.91648 18.0947C5.71833 18.0187 5.52062 17.9417 5.32305 17.8641C5.26756 17.843 5.21206 17.8218 5.15489 17.8C4.67018 17.6083 4.26519 17.3832 3.97028 16.9386C3.83687 16.7404 3.70142 16.5536 3.54448 16.3731C3.57588 16.3299 3.60727 16.2866 3.63962 16.2421C3.59613 16.2105 3.55265 16.1789 3.50784 16.1464C3.52715 16.0283 3.54646 15.9102 3.56635 15.7886C3.45764 15.7097 3.34892 15.6308 3.23691 15.5495C3.3154 15.4413 3.3939 15.3332 3.47477 15.2218C3.43128 15.1902 3.38779 15.1586 3.34299 15.1261C3.37439 15.0829 3.40578 15.0396 3.43813 14.995C3.39465 14.9635 3.35116 14.9319 3.30636 14.8994C3.46436 14.6971 3.62357 14.4958 3.783 14.2946C3.82722 14.238 3.87145 14.1813 3.91702 14.123C4.19672 13.7715 4.48135 13.4838 4.83603 13.2076C4.8179 13.0953 4.79976 12.9831 4.78108 12.8675C4.51956 12.8236 4.42373 12.9356 4.20899 13.084C3.49434 13.6114 3.13055 14.191 2.98429 15.0659ZM1.21675 17.0855C1.20227 17.174 1.20227 17.174 1.1875 17.2644C1.23099 17.2959 1.27447 17.3275 1.31928 17.36C1.35067 17.3167 1.38207 17.2735 1.41442 17.2289C1.45791 17.2605 1.50139 17.292 1.5462 17.3246C1.5776 17.2813 1.60899 17.238 1.64134 17.1935C1.57007 17.1087 1.49879 17.024 1.42536 16.9366C1.35652 16.9857 1.28768 17.0349 1.21675 17.0855ZM3.60654 15.3174C3.75149 15.3235 3.75149 15.3235 3.89936 15.3298C3.83413 15.2824 3.7689 15.2351 3.70169 15.1863C3.67029 15.2296 3.63889 15.2728 3.60654 15.3174ZM4.4888 16.4581C4.53228 16.4896 4.57577 16.5212 4.62058 16.5537C4.63023 16.4947 4.63988 16.4356 4.64983 16.3748C4.59669 16.4023 4.54355 16.4298 4.4888 16.4581ZM8.32788 13.9406C8.38087 14.0463 8.43436 14.1517 8.48806 14.257C8.51779 14.3157 8.54752 14.3745 8.57816 14.435C8.65481 14.5918 8.65481 14.5919 8.79648 14.681C8.76509 14.7243 8.73369 14.7675 8.70134 14.8121C8.78039 14.9004 8.78039 14.9004 8.86104 14.9905C9.00153 15.2301 9.00153 15.2301 8.94346 15.5007C8.91192 15.5727 8.88038 15.6448 8.84788 15.719C8.89136 15.7506 8.93485 15.7821 8.97965 15.8147C8.91686 15.9012 8.85406 15.9877 8.78937 16.0768C8.83285 16.1084 8.87634 16.14 8.92115 16.1725C8.65427 16.5402 8.38739 16.9079 8.11242 17.2868C8.16196 17.3557 8.21149 17.4247 8.26252 17.4958C8.80525 17.1994 9.08743 16.6299 9.29309 16.0672C9.31549 15.972 9.31549 15.972 9.33835 15.8749C9.29487 15.8433 9.25138 15.8117 9.20658 15.7792C9.22657 15.7174 9.24657 15.6555 9.26717 15.5918C9.31707 15.3329 9.2959 15.2077 9.19182 14.9679C9.14833 14.9364 9.10484 14.9048 9.06004 14.8723C9.09144 14.829 9.12283 14.7858 9.15518 14.7412C9.1117 14.7096 9.06821 14.6781 9.02341 14.6455C9.0548 14.6023 9.0862 14.559 9.11855 14.5145C8.98526 14.1575 8.72839 14.016 8.42303 13.8095C8.39163 13.8528 8.36023 13.896 8.32788 13.9406ZM13.0965 10.6968C13.14 10.7283 13.1835 10.7599 13.2283 10.7924C13.1969 10.8357 13.1655 10.8789 13.1332 10.9235C13.1766 10.9551 13.2201 10.9866 13.2649 11.0191C13.2335 11.0624 13.2021 11.1057 13.1698 11.1502C13.235 11.1976 13.3003 11.2449 13.3675 11.2937C13.3361 11.337 13.3047 11.3802 13.2723 11.4248C13.3375 11.4721 13.4028 11.5195 13.47 11.5683C13.4386 11.6115 13.4072 11.6548 13.3748 11.6993C13.4522 11.8215 13.5295 11.9437 13.6091 12.0695C13.5777 12.1128 13.5463 12.1561 13.514 12.2006C13.601 12.2638 13.6879 12.3269 13.7776 12.3919C13.8467 12.3004 13.9154 12.2084 13.9839 12.1163C14.0221 12.0652 14.0604 12.014 14.0999 11.9613C14.2099 11.8103 14.2099 11.8103 14.2568 11.653C14.3301 11.492 14.3301 11.492 14.5095 11.3096C14.7383 11.0713 14.9802 10.7524 15.1215 10.5537C15.1491 10.5156 15.1766 10.4774 15.205 10.4381C15.2645 10.3556 15.3238 10.273 15.383 10.1903C15.4775 10.0584 15.5724 9.92668 15.6674 9.79508C15.9038 9.46757 16.1394 9.13956 16.3751 8.81154C17.8353 6.77929 17.8353 6.77929 18.5338 5.96019C18.8079 5.63296 19.0655 5.29268 19.3262 4.95521C19.4252 4.8271 19.5245 4.69924 19.6239 4.5714C20.0646 4.003 20.4917 3.42532 20.9107 2.84095C20.8237 2.77782 20.7367 2.7147 20.6471 2.64966C20.5984 2.68833 20.5498 2.727 20.4996 2.76684C20.4048 2.84142 20.4048 2.84142 20.3081 2.91751C20.2452 2.96723 20.1823 3.01695 20.1174 3.06818C19.9565 3.18545 19.9565 3.18545 19.8554 3.18614C19.7474 3.12496 19.6407 3.06088 19.535 2.99525C19.4776 2.9598 19.4202 2.92435 19.361 2.88783C19.3169 2.86026 19.2727 2.83268 19.2272 2.80427C19.2504 2.77225 19.2736 2.74023 19.2976 2.70724C19.2541 2.67567 19.2106 2.64411 19.1658 2.61159C19.2691 2.36904 19.3753 2.12824 19.4833 1.8883C19.5122 1.82394 19.5412 1.75958 19.571 1.69327C19.5928 1.64477 19.6147 1.59627 19.6372 1.54629C19.5836 1.48294 19.53 1.41959 19.4747 1.35431C19.1726 1.77059 18.8705 2.18688 18.5592 2.61577C18.6027 2.64733 18.6462 2.6789 18.691 2.71142C18.6677 2.74344 18.6445 2.77546 18.6206 2.80845C18.6915 2.93274 18.7628 3.05694 18.8342 3.18111C18.8739 3.25028 18.9135 3.31946 18.9544 3.39073C19.0647 3.58345 19.0647 3.58344 19.2306 3.76975C19.1725 3.8498 19.1144 3.92986 19.0545 4.01234C18.8679 3.84335 18.7475 3.70524 18.6136 3.50245C18.4774 3.27545 18.4774 3.27545 18.2071 3.10095C18.0699 3.23102 17.958 3.35858 17.8901 3.53761C17.9419 3.70227 18.0135 3.82887 18.1155 3.98505C18.1353 4.02791 18.155 4.07078 18.1753 4.11494C18.1288 4.17899 18.0823 4.24303 18.0344 4.30901C17.8706 4.21456 17.7068 4.1201 17.538 4.02278C17.4451 4.15087 17.3521 4.27896 17.2563 4.41093C17.2998 4.44249 17.3433 4.47405 17.3881 4.50657C17.3648 4.53859 17.3416 4.57061 17.3177 4.6036C17.4229 4.84871 17.4229 4.84871 17.6426 4.98756C17.6193 5.01959 17.5961 5.05161 17.5721 5.0846C17.6591 5.14772 17.7461 5.21085 17.8357 5.27588C17.8125 5.3079 17.7892 5.33993 17.7653 5.37292C17.8305 5.42026 17.8957 5.4676 17.9629 5.51638C17.8482 5.62869 17.7335 5.74099 17.6153 5.8567C17.5733 5.77734 17.5314 5.69797 17.4881 5.6162C17.4229 5.56886 17.3576 5.52152 17.2904 5.47274C17.3137 5.44072 17.3369 5.4087 17.3609 5.3757C17.2739 5.31258 17.1869 5.24946 17.0973 5.18442C17.1205 5.1524 17.1438 5.12038 17.1677 5.08738C17.0808 5.02426 16.9938 4.96114 16.9042 4.8961C16.7613 5.04432 16.6356 5.19114 16.552 5.38128C16.6417 5.64715 16.6417 5.64715 16.8065 5.86227C16.7267 5.92655 16.6468 5.99082 16.5646 6.05704C16.4675 5.96213 16.3704 5.86721 16.2703 5.76942C16.0793 5.90006 15.967 6.02339 15.9182 6.25459C16.0172 6.55327 16.2027 6.83713 16.3793 7.12169C16.5237 7.36075 16.5237 7.36075 16.5192 7.5056C16.4626 7.53786 16.406 7.57011 16.3477 7.60334C16.1507 7.40207 15.9728 7.19268 15.7944 6.97957C15.8176 6.94755 15.8409 6.91553 15.8648 6.88254C15.7779 6.81941 15.6909 6.75629 15.6013 6.69125C15.4618 6.88338 15.3224 7.07551 15.1787 7.27346C15.2859 7.40017 15.3932 7.52688 15.5036 7.65743C15.4339 7.75349 15.3642 7.84956 15.2923 7.94853C15.1619 7.85385 15.0314 7.75916 14.897 7.6616C14.804 7.78969 14.7111 7.91778 14.6153 8.04975C14.6588 8.08131 14.7023 8.11287 14.7471 8.14539C14.7238 8.17741 14.7006 8.20943 14.6767 8.24242C14.7201 8.27399 14.7636 8.30555 14.8084 8.33807C14.7852 8.37009 14.762 8.40211 14.738 8.4351C14.825 8.49822 14.912 8.56135 15.0016 8.62638C14.9783 8.65841 14.9551 8.69043 14.9311 8.72342C14.9964 8.77076 15.0616 8.81811 15.1288 8.86688C15.1056 8.8989 15.0823 8.93093 15.0584 8.96392C15.1004 9.04328 15.1424 9.12265 15.1856 9.20442C15.0658 9.30083 15.0659 9.30083 14.9437 9.39918C14.7609 9.21474 14.6086 9.02559 14.4563 8.82324C14.4795 8.79122 14.5028 8.7592 14.5267 8.72621C14.4398 8.66308 14.3528 8.59996 14.2632 8.53492C14.125 8.68504 13.9999 8.83497 13.911 9.0201C13.9868 9.24815 13.9868 9.24815 14.0996 9.45327C14.0234 9.60164 14.0234 9.60164 13.9236 9.69586C13.8148 9.61696 13.7061 9.53805 13.5941 9.45676C13.2259 9.85096 13.1155 10.003 13.0965 10.6968Z" fill="white"/>
</svg>
