<svg width="60" height="45" viewBox="0 0 60 45" fill="none" xmlns="http://www.w3.org/2000/svg">
<path d="M52.7576 36.4581C53.098 36.7441 53.36 37.1516 53.4519 37.5988C53.5185 38.3809 53.5186 38.3812 53.3523 38.6759C53.2209 38.7989 53.2207 38.7995 53.0896 38.8224C53.0411 38.8173 52.9922 38.812 52.9422 38.8068C52.103 38.7687 51.2763 39.104 50.4939 39.3868C49.4537 39.7554 48.3921 39.9915 47.3172 40.2228C47.1408 40.261 46.9697 40.3013 46.7986 40.3605C46.6928 40.3627 46.587 40.3644 46.4812 40.3654C45.8584 40.3761 45.319 40.5419 44.7302 40.7413C44.4461 40.8368 44.1668 40.8963 43.8709 40.9376C43.6926 40.9672 43.5324 41.0255 43.3631 41.089C43.1611 41.1574 42.9551 41.209 42.7488 41.2609C42.1353 41.3834 42.1353 41.3835 41.6209 41.7111C41.4723 41.8652 41.4099 41.8929 41.2156 41.9513C40.9676 42.026 40.8344 42.1332 40.6658 42.341C40.6467 42.3607 40.6278 42.3811 40.6082 42.4015C40.5846 42.7142 40.6091 42.9213 40.782 43.1818C40.8849 43.2371 40.9882 43.2924 41.0916 43.3468C41.2816 43.4962 41.3176 43.7287 41.3601 43.962C41.3999 44.3219 41.4001 44.3221 41.281 44.5021C41.0507 44.6842 40.7988 44.7425 40.5213 44.8175C40.4645 44.8333 40.4078 44.8491 40.3494 44.8654C39.9455 44.9722 39.5792 45.0319 39.1619 44.9826C38.984 44.6775 38.9086 44.3768 38.9304 44.0216C38.9828 43.9066 38.9827 43.9063 39.0496 43.8038C39.1671 43.5914 39.1777 43.5707 39.1257 43.3507C39.1009 43.2738 39.075 43.1968 39.0466 43.1212C39.0311 43.0742 39.0148 43.0271 38.9988 42.9786C38.9336 42.8676 38.9336 42.8676 38.7898 42.8253C38.5901 42.7394 38.5632 42.6628 38.4675 42.4611C38.409 42.2669 38.3636 42.0702 38.3191 41.8722C38.3071 41.8204 38.2954 41.7684 38.283 41.715C38.2591 41.6123 38.2359 41.5092 38.2127 41.4064C38.1914 41.315 38.1681 41.2236 38.1443 41.1329C37.9518 40.4002 38.0003 39.6525 38.3523 38.9796C38.4277 38.8781 38.5047 38.7773 38.5838 38.6788C38.6336 38.5921 38.6334 38.5917 38.6843 38.5031C38.8484 38.2713 39.0419 38.1087 39.2781 37.9591H39.3933C39.4041 37.9244 39.4145 37.8894 39.4256 37.8536C39.5454 37.6589 39.7081 37.556 39.9138 37.4786C40.1127 37.4937 40.1132 37.4942 40.2615 37.5392C40.3407 37.8559 40.3401 37.8565 40.2439 38.049C40.2079 38.096 40.1717 38.1431 40.1345 38.1915C39.797 38.6557 39.5627 39.1015 39.6248 39.6993C39.6859 39.9105 39.7617 40.0825 39.9138 40.2404C40.0654 40.2305 40.0657 40.2305 40.2322 40.1915C40.2889 40.18 40.3457 40.1683 40.4041 40.1564C40.5489 40.1265 40.5488 40.126 40.6658 40.0597C40.8213 40.0485 40.9724 40.0546 41.1287 40.0597C41.1478 40.0795 41.1676 40.0998 41.1873 40.1202C41.5482 40.1513 41.8528 40.0562 42.1961 39.9474C42.3007 39.915 42.4058 39.883 42.5105 39.8507C42.5605 39.8352 42.6103 39.8189 42.6619 39.8029C42.7936 39.7635 42.926 39.7286 43.0593 39.6954C43.2319 39.6499 43.3826 39.5978 43.5447 39.5236C43.8073 39.4111 44.0686 39.339 44.3445 39.2706C44.5829 39.2097 44.8192 39.1428 45.0554 39.0734C45.0967 39.0618 45.1389 39.0502 45.1814 39.0382C45.4855 38.9475 45.7702 38.8346 45.9558 38.5529C46.0896 38.3845 46.2593 38.3494 46.4548 38.2931C46.4954 38.2808 46.5362 38.2677 46.5779 38.255C46.6644 38.2289 46.751 38.2032 46.8377 38.1779C46.9721 38.1385 47.1069 38.0986 47.241 38.0577C47.6685 37.9291 48.088 37.8174 48.5291 37.7501C48.7553 37.71 48.9773 37.656 49.2 37.5988C49.2393 37.5888 49.2786 37.5787 49.3191 37.5685C49.4684 37.5293 49.6103 37.4913 49.7478 37.4181C49.9325 37.3248 50.1321 37.291 50.3318 37.2462C50.9387 37.1031 51.475 36.8961 52.0271 36.5949C52.2707 36.4728 52.4868 36.4238 52.7576 36.4581Z" fill="#FFFCFF"/>
<path fill-rule="evenodd" clip-rule="evenodd" d="M17.9295 3.68275C18.1762 3.59744 18.3737 3.61007 18.6238 3.68275C19.0099 3.91315 19.413 4.29457 19.6111 4.714C19.6572 4.83396 19.6576 4.8337 19.781 4.88294V5.00306C19.8322 5.01666 19.8835 5.03105 19.9363 5.04505C20.1584 5.13641 20.2525 5.2454 20.4168 5.42396C20.6365 5.60991 20.8538 5.77796 21.1111 5.90345V6.02357C21.1436 6.03964 21.1763 6.05584 21.2097 6.0724C21.3516 6.14851 21.4842 6.23369 21.6179 6.32435C21.664 6.3552 21.7101 6.38631 21.7576 6.4181C21.8097 6.46065 21.8099 6.46068 21.8631 6.50404V6.62415H21.9793V6.74427C22.0098 6.75802 22.0406 6.7721 22.072 6.78626C22.2561 6.89019 22.416 7.02201 22.5798 7.15638C22.7673 7.3095 22.9533 7.45766 23.1521 7.59486C23.3096 7.70413 23.3097 7.70491 23.4363 7.83997C23.5895 7.99536 23.7436 8.11656 23.9177 8.24525C24.1428 8.41203 24.3387 8.57421 24.5252 8.78529C24.6543 8.9279 24.7666 9.0319 24.9265 9.13783C25.1033 9.26511 25.1032 9.26558 25.2439 9.44154C25.3647 9.59136 25.445 9.67065 25.5955 9.77552C25.7385 9.87536 25.8451 9.97366 25.9529 10.1134C26.0687 10.2628 26.1721 10.3537 26.3181 10.466V10.5861C26.3516 10.6002 26.3852 10.6145 26.4197 10.629C26.7591 10.8309 26.9877 11.2603 27.197 11.5949C27.4392 11.9774 27.7312 12.2147 28.0945 12.4679C28.2108 12.5542 28.3018 12.6416 28.4011 12.7472C28.4747 12.8071 28.5494 12.8656 28.6248 12.923C28.6652 12.9542 28.7062 12.9856 28.7478 13.0177C28.7861 13.0472 28.8245 13.0772 28.864 13.1076C28.9626 13.1843 29.0603 13.2626 29.1531 13.3468V13.4669C29.2295 13.4867 29.3059 13.5071 29.3845 13.5275V13.6476C29.5713 13.7493 29.7632 13.8274 29.9597 13.9064C30.2357 14.0258 30.4258 14.1129 30.5994 14.3673C30.6852 14.6535 30.6412 14.9175 30.5994 15.2081C30.539 15.6682 30.5421 16.1141 30.5632 16.5773C30.5658 16.6436 30.5685 16.7102 30.5711 16.7785C30.5834 17.1278 30.583 17.128 30.6326 17.4728C30.6633 17.6444 30.6206 17.6994 30.5418 17.8497C30.4178 18.6341 30.4832 19.4568 30.5095 20.2472C30.5129 20.3524 30.5129 20.3526 30.5164 20.4601C30.5284 20.7951 30.5514 21.1195 30.5994 21.4513C30.6127 21.6499 30.6209 21.849 30.6287 22.048C30.64 22.3366 30.6513 22.6229 30.6882 22.9093C30.7172 23.1471 30.7173 23.3726 30.7117 23.6115C30.7147 23.76 30.7262 23.8991 30.7439 24.046C30.7833 24.3912 30.7765 24.7332 30.7713 25.0802C30.769 25.3306 30.7748 25.5744 30.8015 25.8234C30.9226 26.9668 30.8992 28.2581 30.6277 29.3781C30.5986 29.4999 30.5826 29.6175 30.5701 29.7423C30.563 29.8127 30.5627 29.8129 30.5554 29.8849C30.5412 30.0358 30.5277 30.187 30.5144 30.338C30.5099 30.3888 30.5054 30.44 30.5007 30.4923C30.4916 30.5961 30.483 30.7 30.4744 30.8038C30.4488 31.086 30.4021 31.3273 30.3103 31.5958C30.2945 31.7324 30.2946 31.7326 30.2996 31.8624C30.3004 31.9085 30.3007 31.9546 30.3015 32.0021C30.3084 32.1498 30.3089 32.1503 30.3465 32.3497C30.3686 32.5599 30.3321 32.6945 30.2771 32.8947C30.1954 33.3644 30.3063 33.8339 30.447 34.2785C30.5259 34.5755 30.4915 34.8683 30.4666 35.172C30.4605 35.2473 30.4543 35.3229 30.448 35.4005C30.4413 35.4714 30.4344 35.5423 30.4275 35.6154C30.4096 35.8085 30.4097 35.8085 30.5418 35.9777C30.5558 36.0954 30.5562 36.0958 30.5554 36.2277C30.5553 36.2753 30.5546 36.3231 30.5545 36.3722C30.5538 36.4215 30.5532 36.4708 30.5525 36.5216C30.5525 36.5713 30.5525 36.6218 30.5525 36.673C30.5499 37.0417 30.5501 37.0419 30.4841 37.1788C30.4961 37.3006 30.5081 37.4227 30.5232 37.5441C30.5537 37.8363 30.5645 38.1304 30.5779 38.424C30.5863 38.6278 30.5865 38.6275 30.7156 38.799C30.7378 38.9785 30.736 39.0671 30.6394 39.2199C30.6072 39.2594 30.5749 39.2992 30.5418 39.34C30.5155 39.3907 30.4887 39.4411 30.4617 39.4933C30.3224 39.71 30.1841 39.7951 29.9392 39.8536C29.8396 39.8734 29.7396 39.8915 29.6394 39.9083C29.5005 39.9328 29.5002 39.9328 29.3884 40.004C29.2253 40.0803 29.1027 40.065 28.9256 40.049C28.8372 40.0421 28.8368 40.0422 28.7468 40.0353C28.575 40.0004 28.5744 40.0002 28.4373 39.9132C28.2411 39.7931 28.0437 39.7616 27.822 39.7257C27.5579 39.6815 27.3182 39.6256 27.0701 39.5197C26.9316 39.4953 26.9315 39.4948 26.7957 39.4855C26.5556 39.4653 26.5556 39.4656 26.492 39.3995C26.4847 39.2497 26.4847 39.2496 26.492 39.0997C26.5111 39.0799 26.5299 39.0596 26.5496 39.0392C26.5742 38.9236 26.5957 38.8072 26.615 38.6906C26.6259 38.6271 26.637 38.5636 26.6482 38.4982C26.6644 38.3343 26.6581 38.233 26.6072 38.0792C26.5696 38.0813 26.5317 38.0829 26.4929 38.0851C26.1743 38.0953 25.9595 38.0808 25.6814 37.8986C25.7319 37.6065 25.7327 37.6065 25.7976 37.5392C25.8163 37.4562 25.8317 37.3721 25.8465 37.2882C25.9212 36.8847 26.0147 36.4862 26.1082 36.087C26.1172 36.0485 26.1262 36.0095 26.1355 35.9699C26.2999 35.267 26.4668 34.5671 26.6765 33.8771C26.7562 33.6149 26.8088 33.3692 26.8386 33.0968C26.8577 33.077 26.8776 33.0567 26.8972 33.0363C26.8996 32.9364 26.8997 32.8363 26.8972 32.7365C26.6534 32.5919 26.4843 32.5303 26.2029 32.5568C26.1647 32.5766 26.126 32.5959 26.0867 32.6163C26.0487 32.7948 26.0486 32.7951 26.0252 33.0031C25.9761 33.386 25.9759 33.3859 25.9129 33.5167C25.8939 33.6475 25.878 33.7789 25.8631 33.9103C25.8535 33.9913 25.8443 34.0724 25.8347 34.1535C25.82 34.2805 25.8052 34.4082 25.7908 34.5353C25.7367 35.0101 25.6673 35.4699 25.5476 35.9327C25.4738 36.2389 25.4409 36.5517 25.4031 36.8644C25.36 37.1923 25.2832 37.4725 25.1609 37.7785C25.061 37.7699 24.961 37.762 24.8611 37.7531C24.8054 37.7482 24.7496 37.7425 24.6922 37.7374C24.5371 37.7198 24.3875 37.6937 24.2351 37.6593C24.1318 37.9448 24.0889 38.2131 24.0584 38.5138C24.0113 38.9641 24.0111 38.9648 23.9461 39.0997C23.78 39.1283 23.6181 39.1501 23.4509 39.1671C23.4043 39.1723 23.3574 39.1774 23.3093 39.1827C23.1938 39.1955 23.0782 39.2079 22.9627 39.2199C22.9436 39.1803 22.9247 39.1405 22.905 39.0997C22.8442 39.0985 22.7832 39.0971 22.7205 39.0958C22.4734 39.0328 22.4376 38.9939 22.2937 38.7882C22.1469 38.5335 22.147 38.5333 22.1853 38.3077C22.2127 38.2521 22.2401 38.1962 22.2683 38.1388C22.2918 38.0196 22.3103 37.899 22.3259 37.7785C22.332 37.7382 22.3383 37.6979 22.3445 37.6564C22.3895 37.303 22.3759 36.9663 22.3494 36.6115C22.3217 36.2206 22.3233 35.8313 22.3289 35.4396C22.3301 35.3189 22.3279 35.1979 22.3259 35.0773C22.307 35.0576 22.2879 35.038 22.2683 35.0177C22.2791 34.8057 22.2949 34.5944 22.3132 34.3829C22.3328 34.1131 22.315 33.949 22.2107 33.6974C22.2121 33.5227 22.2119 33.5223 22.2322 33.3331C22.2628 33.007 22.2714 32.6889 22.2644 32.3615C22.268 32.1962 22.2688 32.1959 22.2996 32.0245C22.3318 31.7997 22.3167 31.5884 22.2976 31.3634C22.2781 31.1046 22.2587 30.8553 22.3006 30.5978C22.3291 30.3692 22.2867 30.2486 22.2107 30.0353C22.1996 29.8508 22.206 29.6955 22.2429 29.5148C22.2734 29.2725 22.2502 29.0601 22.2175 28.8195C22.2123 28.7764 22.2074 28.733 22.2019 28.6886C22.1737 28.4542 22.1731 28.4543 22.0945 28.2345C22.0633 27.6225 22.1229 27.0115 22.1746 26.4025C22.18 26.3342 22.1856 26.2658 22.1912 26.1954C22.1963 26.1345 22.2015 26.0736 22.2068 26.0109C22.2111 25.8239 22.1853 25.6564 22.1531 25.4728C22.1707 25.3385 22.1701 25.338 22.2029 25.2072C22.329 24.6154 22.3439 24.0201 22.284 23.4191C22.2551 23.1013 22.2472 22.7862 22.2976 22.4708C22.3213 22.3075 22.3305 22.1432 22.3338 21.9786V20.9767C22.3309 20.733 22.318 20.636 22.2683 20.2501C22.2111 20.2106 22.1534 20.1717 22.0945 20.131C22.0754 20.0716 22.0566 20.0116 22.0369 19.9503C21.835 19.8805 21.6576 19.8869 21.448 19.8908C20.953 19.8963 20.4598 19.8748 19.9656 19.8468C19.9092 19.8439 19.8528 19.841 19.7947 19.838C19.7196 19.8338 19.719 19.8336 19.6423 19.8292C19.4873 19.8263 19.4871 19.8265 19.3201 19.8615C19.1412 19.8912 18.9923 19.8876 18.8123 19.8702C18.7196 19.8618 18.7193 19.8613 18.6248 19.8527C18.5296 19.8434 18.5294 19.8436 18.4324 19.8341C17.9193 19.7837 17.9188 19.7835 17.4041 19.7697C17.1813 19.7701 17.0345 19.7365 16.8298 19.6505C16.6632 19.5755 16.6632 19.5754 16.5154 19.6242C16.3673 19.6504 16.3672 19.6503 16.2683 19.5929C15.8685 19.4039 15.2707 19.5123 14.8591 19.6271C14.6746 19.6649 14.5248 19.6333 14.3425 19.59C14.3236 19.5703 14.3045 19.5507 14.2849 19.5304C14.1678 19.5358 14.0501 19.5453 13.9334 19.5568C13.8696 19.5629 13.8057 19.569 13.74 19.5753C13.6661 19.5828 13.6658 19.5823 13.5906 19.59C13.3753 20.0677 13.3874 20.6737 13.4597 21.1886C13.507 21.6338 13.4871 22.0821 13.4295 22.5245C13.4029 22.7968 13.4164 23.0717 13.4236 23.3449C13.4273 23.6103 13.3997 23.7852 13.3006 24.0324C13.301 24.2124 13.3011 24.2128 13.3259 24.3966C13.3518 24.6207 13.3535 24.7772 13.3006 24.9933C13.2951 25.1564 13.2929 25.3176 13.2937 25.4806C13.2935 25.5243 13.293 25.5684 13.2927 25.6134C13.2886 25.8509 13.2893 25.8511 13.3591 26.0734C13.3772 26.2842 13.3821 26.3969 13.2683 26.5763C13.1521 26.7966 13.1906 26.979 13.2429 27.214C13.2808 27.3343 13.3198 27.4546 13.3591 27.5744C13.4269 27.9598 13.4341 28.3465 13.4461 28.7374C13.4601 29.2546 13.4597 29.2548 13.5066 29.7697C13.544 30.0869 13.527 30.3995 13.5105 30.7179C13.508 30.7768 13.5053 30.8359 13.5027 30.8966C13.4821 31.3311 13.4825 31.3317 13.4168 31.5363C13.3937 31.6988 13.3731 31.8604 13.3552 32.0236C13.3501 32.0709 13.3449 32.1184 13.3396 32.1671C13.2903 32.6575 13.2897 33.1444 13.3006 33.6368H13.4168C13.4183 33.7856 13.4198 33.9344 13.4207 34.0831C13.4212 34.1256 13.4211 34.1683 13.4216 34.212C13.4221 34.3205 13.4198 34.4289 13.4168 34.5372C13.3977 34.557 13.3788 34.5774 13.3591 34.5978C13.3518 34.7759 13.3485 34.9519 13.3484 35.13C13.3477 35.1798 13.3462 35.2301 13.3455 35.2814C13.3454 35.3291 13.3456 35.3768 13.3455 35.4259C13.3452 35.4699 13.3447 35.5144 13.3445 35.5597C13.3521 35.697 13.3527 35.6972 13.4744 35.8576C13.4943 35.9959 13.4946 35.9963 13.5037 36.1505C13.5137 36.3203 13.528 36.4468 13.5906 36.6046C13.696 36.8863 13.68 37.1816 13.6482 37.4786C13.5103 37.7483 13.337 37.8448 13.0691 37.9591C12.8768 37.9918 12.6856 38.0012 12.491 38.0079C12.4107 38.0113 12.4106 38.0114 12.3289 38.0148C11.3116 38.0458 11.311 38.0453 10.9304 37.8361C10.7675 37.7565 10.6203 37.7577 10.4412 37.7492C10.0924 37.7324 10.0919 37.7322 9.92458 37.6603C9.65946 37.5537 9.38084 37.5481 9.09938 37.5236C9.03867 37.5174 8.97736 37.5114 8.91481 37.505C8.82805 37.4972 8.82785 37.4974 8.73903 37.4894C8.68616 37.4845 8.63334 37.4788 8.57887 37.4738C8.42591 37.4662 8.42521 37.4667 8.26735 37.5988C8.14486 37.6215 8.14445 37.6219 8.01051 37.6329C7.81907 37.6493 7.81886 37.649 7.63356 37.6984C7.46361 37.7278 7.36838 37.6692 7.21559 37.591C7.16472 37.5661 7.1137 37.5414 7.0613 37.5158C6.93723 37.4187 6.93672 37.4188 6.8904 37.2579C6.88659 37.212 6.8826 37.1657 6.87868 37.1183C6.80246 37.0985 6.72576 37.0791 6.64723 37.0587C6.60909 36.9202 6.5713 36.7815 6.532 36.6388C6.55107 36.619 6.56996 36.5986 6.58962 36.5783C6.58415 36.4003 6.57518 36.2237 6.56422 36.046C6.54127 35.6159 6.52257 35.1858 6.51735 34.755C6.51612 34.7084 6.51471 34.6615 6.51344 34.6134C6.5117 34.3188 6.56523 34.1394 6.70583 33.8771C6.70828 33.7371 6.70819 33.5971 6.70583 33.4572C6.73244 33.3625 6.73242 33.3622 6.75954 33.2658C6.82692 33.0167 6.85783 32.7791 6.88258 32.5226C6.88972 32.452 6.88997 32.4519 6.89723 32.38C7.07681 31.3357 7.0766 31.335 6.93434 30.3429C6.85265 30.1537 6.88662 29.9996 6.90797 29.7951C6.94972 29.3225 6.89104 28.9018 6.78688 28.4425C6.76242 28.2873 6.769 28.1644 6.78883 28.0089C6.81033 27.811 6.82782 27.6153 6.8318 27.4161C6.83262 27.3772 6.83389 27.3382 6.83473 27.298C6.82437 27.1406 6.82464 27.1403 6.76344 26.9415C6.693 26.6532 6.69256 26.3791 6.69801 26.0831C6.69845 26.028 6.69952 25.9729 6.69997 25.9161C6.70184 25.6822 6.70463 25.4479 6.70778 25.214C6.70989 25.0423 6.7113 24.8701 6.71266 24.6984C6.71362 24.6468 6.71461 24.5952 6.71559 24.5421C6.71837 24.1786 6.66904 23.8458 6.58962 23.4923C6.56907 23.396 6.54852 23.2996 6.52809 23.2033C6.49882 23.0667 6.46948 22.9302 6.43825 22.7941C6.39664 22.5205 6.41089 22.2561 6.44899 21.9835C6.47139 21.7774 6.4606 21.6489 6.41579 21.4513C6.43488 21.4117 6.45471 21.372 6.47438 21.3312C6.47845 21.2187 6.47857 21.1058 6.47731 20.9933C6.47679 20.9331 6.47687 20.8727 6.47633 20.8107C6.47567 20.7646 6.47507 20.7185 6.47438 20.671C6.10516 20.8482 6.10525 20.8483 5.82497 21.1417C5.77682 21.2848 5.74798 21.422 5.72243 21.5714C5.70102 21.6944 5.67864 21.8176 5.657 21.9406C5.64244 22.0257 5.62867 22.111 5.61598 22.1964C5.57719 22.4399 5.5216 22.5812 5.37477 22.7716C5.3224 22.9326 5.32227 22.9329 5.28786 23.1134C5.26643 23.2166 5.26678 23.217 5.24489 23.3224C5.19012 23.6127 5.14063 23.9038 5.09255 24.1954C5.04077 24.5062 4.97622 24.8117 4.90505 25.1183C4.83218 25.4433 4.77503 25.7723 4.71364 26.0997C4.62345 26.5788 4.51937 27.0432 4.38161 27.5099C4.31268 27.7718 4.27801 28.0361 4.24294 28.3048C4.21769 28.4744 4.21804 28.4747 4.15309 28.6994C4.07303 29.0079 4.06217 29.3111 4.15993 29.6154C4.14438 29.7299 4.14444 29.7301 4.11305 29.8585C4.10218 29.9053 4.09105 29.952 4.07985 30.0001C4.05615 30.098 4.03247 30.1962 4.00856 30.2941C3.91196 30.6508 3.91167 30.651 3.9861 30.9952C4.34938 31.1812 4.72504 31.2307 5.12282 31.2853C5.55914 31.3518 5.55968 31.3517 5.72243 31.5363C5.81529 31.765 5.73946 31.9188 5.6609 32.1456C5.59749 32.343 5.54952 32.5422 5.50172 32.7443C5.4821 32.827 5.4618 32.9096 5.44215 32.9923C5.43154 33.0371 5.42086 33.082 5.40993 33.1281C5.34146 33.4154 5.27156 33.7026 5.20094 33.9894C5.18725 34.0464 5.17403 34.1036 5.15993 34.1622C5.03115 34.6823 4.88169 35.1763 4.56813 35.6105C4.51204 35.6899 4.51219 35.6905 4.45485 35.7716C4.32864 35.9242 4.19912 36.0372 4.04469 36.1583C3.99398 36.2016 3.94265 36.2446 3.8904 36.2892C3.48093 36.6259 3.09247 36.8305 2.59743 36.9982C2.54705 37.0172 2.49698 37.0371 2.44508 37.0568C1.98703 37.2278 1.98671 37.2277 1.78786 37.1788C0.958504 36.5665 0.26758 35.4419 0.052506 34.4171C0.042596 34.3744 0.0324429 34.3313 0.0222326 34.2872C-0.0326773 33.9819 0.0247291 33.6997 0.0798497 33.3995C0.107375 33.2342 0.119523 33.0766 0.127701 32.9093C0.154236 32.5555 0.251688 32.2303 0.348404 31.8917C0.453855 31.5131 0.509586 31.1438 0.546647 30.7521C0.573071 30.5756 0.572765 30.5754 0.688248 30.3956C1.10195 30.3103 1.4679 30.4343 1.85231 30.5822C2.09083 30.6586 2.29209 30.653 2.53981 30.6359C2.64461 30.1864 2.73583 29.7413 2.79274 29.2824C2.83353 29.1158 2.88236 29.067 3.0027 28.9542C3.13138 28.6497 3.2037 28.3574 3.26149 28.0314C3.29237 27.8723 3.33271 27.7186 3.37575 27.5626C3.55482 26.8972 3.65718 26.2158 3.75465 25.5333C3.77354 25.4057 3.79356 25.278 3.81325 25.1505C3.8216 25.0956 3.82906 25.0401 3.83766 24.9835C3.87015 24.8126 3.87029 24.8124 3.92653 24.6085C3.98596 24.3923 4.02902 24.178 4.06911 23.9572C4.11973 23.6814 4.17941 23.4117 4.25758 23.1427C4.3141 22.938 4.3396 22.7702 4.32985 22.5577C4.31819 22.2545 4.38104 21.9842 4.44899 21.6915C4.5395 21.3013 4.59029 20.9548 4.5652 20.5509H4.44899C4.37374 20.3911 4.29964 20.2307 4.22536 20.0704C4.1937 20.0035 4.1932 20.003 4.1609 19.9347C3.94334 19.4626 3.84411 19.0343 3.87087 18.5099C3.87258 18.4652 3.87398 18.4202 3.87575 18.3742C3.90251 17.9853 4.00264 17.6156 4.25368 17.3175C4.46689 17.2111 4.65039 17.2834 4.86891 17.3429C4.93705 17.36 4.93709 17.3606 5.00661 17.3781C5.14874 17.4141 5.29073 17.4515 5.43239 17.4894C5.56315 17.5239 5.69414 17.5587 5.82497 17.5929C5.93998 17.6232 6.05491 17.6544 6.16969 17.6857C6.36354 17.7385 6.36383 17.7384 6.58962 17.7296C6.64884 17.4684 6.664 17.2086 6.67653 16.9415C6.69127 16.6506 6.7082 16.3612 6.73805 16.0714C6.8035 15.3785 6.80308 15.3779 6.72633 14.6935C6.66013 14.2377 7.04029 13.7629 7.28395 13.4074C7.39433 13.2915 7.50814 13.1923 7.63161 13.0919C7.76867 12.9677 7.86901 12.8306 7.97829 12.6798C8.21145 12.3671 8.45735 12.1561 8.82399 12.0382C8.9799 11.9573 9.01956 11.8922 9.11696 11.7452C9.36108 11.3853 9.70367 11.1534 10.0867 10.9728C10.2513 10.8966 10.2514 10.8961 10.3181 10.7023C10.4085 10.5261 10.4083 10.5255 10.6179 10.4542C10.6823 10.4381 10.7469 10.422 10.8132 10.4054C10.8323 10.3461 10.8512 10.2868 10.8709 10.2257C11.0568 10.0485 11.2572 9.89641 11.4929 9.80189C11.6713 9.72478 11.7407 9.60506 11.8543 9.44544C11.9301 9.36418 12.0074 9.28398 12.0857 9.20521C12.1555 9.13278 12.1561 9.13262 12.2273 9.05872C12.3217 8.96075 12.4167 8.86332 12.5125 8.76673C12.7089 8.55777 12.8796 8.33077 13.0535 8.10169C13.1838 7.94637 13.3125 7.82317 13.4744 7.70423H13.5906V7.58412C13.6243 7.56948 13.6584 7.55525 13.6931 7.54017C13.8426 7.45252 13.923 7.35467 14.031 7.21693C14.0935 7.13732 14.1584 7.05919 14.2263 6.98451H14.3425V6.86439C14.427 6.78703 14.4271 6.78637 14.5379 6.70619C14.574 6.67951 14.61 6.65262 14.6472 6.62513C14.7471 6.56371 14.7474 6.56361 14.8631 6.56361C14.8821 6.50432 14.901 6.445 14.9207 6.38392C15.0349 6.34046 15.1493 6.29687 15.2644 6.25599C15.4426 6.17741 15.5459 6.05269 15.6726 5.90345C15.7215 5.85402 15.7708 5.80497 15.8211 5.75404C15.9626 5.60831 15.9627 5.60767 16.0779 5.45326C16.2031 5.29083 16.3397 5.14815 16.4832 5.00306C16.5153 4.96724 16.5477 4.93157 16.5808 4.89466C16.6567 4.82343 16.6566 4.82337 16.7722 4.82337V4.70326C16.8366 4.66615 16.8366 4.66585 16.9021 4.62806C17.0725 4.53134 17.0728 4.53143 17.1736 4.34681C17.3403 4.08994 17.532 3.95974 17.8132 3.86244C17.8514 3.80303 17.8901 3.74395 17.9295 3.68275ZM28.5164 37.299C28.4081 37.4488 28.3402 37.543 28.3504 37.7335C28.3671 37.7682 28.3839 37.8033 28.4011 37.839C28.4584 37.8588 28.516 37.8782 28.575 37.8986C28.709 37.7858 28.7089 37.7856 28.7009 37.5988C28.7017 37.4234 28.7019 37.4233 28.6326 37.299H28.5164ZM4.90114 18.3917C4.78989 18.3782 4.78964 18.3784 4.69704 18.466C4.60435 18.5956 4.5952 18.6981 4.60329 18.8576C4.69242 19.458 4.953 19.9044 5.31715 20.3702C5.81238 20.251 6.24687 19.9741 6.532 19.5304C6.56294 19.3564 6.56252 19.3561 6.57497 19.1661C6.58063 19.1023 6.58671 19.0385 6.59255 18.9728C6.60787 18.8008 6.60807 18.8005 6.47438 18.6896C6.36684 18.6584 6.36653 18.6584 6.24294 18.6427C6.19662 18.6356 6.15003 18.6286 6.10231 18.6212C6.05332 18.6142 6.00434 18.607 5.95387 18.5997C5.59817 18.5463 5.24887 18.4884 4.90114 18.3917Z" fill="#FFFCFF"/>
<path fill-rule="evenodd" clip-rule="evenodd" d="M52.9314 14.8478C53.2553 14.8105 53.4113 14.8719 53.6609 15.0704C53.8018 15.2067 53.8081 15.3244 53.8172 15.5158C53.8196 15.5641 53.8225 15.6134 53.825 15.6632C53.8272 15.7135 53.8295 15.7638 53.8318 15.8156C53.8343 15.8666 53.837 15.9183 53.8396 15.9708C53.8458 16.0968 53.8514 16.2228 53.8572 16.3488C54.0861 16.4081 54.0864 16.4083 54.3201 16.4689C54.4058 16.7475 54.4512 16.9977 54.4627 17.2902C54.4875 17.4412 54.4875 17.442 54.6043 17.587C54.7446 17.8223 54.7915 18.0207 54.8406 18.2892C54.85 18.3365 54.8592 18.384 54.8689 18.4327C54.8987 18.5833 54.9272 18.7341 54.9558 18.8849C55.1048 19.6986 55.1054 19.6986 55.3679 20.4777C55.4607 20.7184 55.4986 20.9713 55.5418 21.2257C55.5987 21.5511 55.6636 21.8573 55.7664 22.171C55.7896 22.2993 55.8101 22.4285 55.8279 22.5577C55.8374 22.6254 55.8464 22.6932 55.8562 22.7628C55.871 22.873 55.8861 22.9836 55.9002 23.0939C55.9114 23.2794 55.9116 23.2793 55.9978 23.4318C56.017 23.5552 56.0335 23.6798 56.0486 23.8038C56.1217 24.3542 56.2352 24.8911 56.3601 25.4308C56.373 25.4866 56.3859 25.5432 56.3992 25.6007C56.4248 25.7108 56.4513 25.8208 56.4773 25.9308C56.5305 26.1581 56.5797 26.381 56.6062 26.6134C56.6174 26.7996 56.6179 26.7998 56.7498 26.9132C56.7919 27.0307 56.7916 27.0312 56.8308 27.1759C56.8457 27.2297 56.8605 27.2836 56.8757 27.339C56.8913 27.3967 56.9075 27.4543 56.9236 27.5138C56.9567 27.6328 56.99 27.7523 57.0232 27.8712C57.0749 28.0573 57.1262 28.2436 57.1775 28.4298C57.2992 29.0005 57.2989 29.0008 57.5593 29.4952C57.6445 29.5077 57.7305 29.5166 57.8162 29.5245C58.0675 29.548 58.0677 29.5488 58.1961 29.6154C58.5127 29.6411 58.7251 29.5884 59.0056 29.4347C59.045 29.3914 59.0852 29.3485 59.1257 29.3038C59.2378 29.1951 59.2375 29.1948 59.4256 29.1798C59.478 29.1848 59.5306 29.1894 59.5847 29.1945C59.7212 29.4579 59.8102 29.7124 59.8845 30.0011C59.9044 30.0764 59.9246 30.152 59.9451 30.2296C59.9899 30.4567 60.0151 30.6446 59.99 30.8751C59.8606 31.0364 59.7706 31.0533 59.5711 31.0861C59.504 31.0895 59.437 31.0932 59.3679 31.0968C59.3004 31.1007 59.2325 31.1045 59.1629 31.1085C59.1112 31.1108 59.0588 31.1131 59.0056 31.1154V31.2355C58.9274 31.2788 58.9274 31.2791 58.8474 31.3234L58.5369 31.4962C58.3798 31.5836 58.2293 31.6728 58.0808 31.7755C57.9527 31.8172 57.8228 31.8565 57.6931 31.8927C57.4604 31.9591 57.2339 32.0263 57.0105 32.1212C56.7764 32.208 56.5895 32.2366 56.3494 32.1613C56.2079 32.1317 56.1353 32.1523 55.9998 32.2003C55.9573 32.2146 55.9146 32.2286 55.8709 32.2433C55.7821 32.2743 55.6929 32.3056 55.6043 32.337C55.5618 32.3512 55.5191 32.3654 55.4754 32.38C55.4368 32.3936 55.3979 32.407 55.3582 32.421C55.2058 32.4411 55.1388 32.4081 55.0144 32.3165C54.9625 32.2075 54.9624 32.2069 54.9304 32.0763C54.9184 32.0292 54.9057 31.9823 54.8933 31.9337C54.8817 31.8843 54.8701 31.8343 54.8582 31.7833C54.8459 31.7344 54.8337 31.6853 54.8211 31.6349C54.788 31.5021 54.7559 31.3687 54.7244 31.2355C54.7139 31.194 54.7039 31.1522 54.6931 31.1095C54.6588 30.9594 54.6505 30.8154 54.6453 30.6613C54.6425 30.6045 54.6394 30.5478 54.6365 30.4894C54.6668 30.3358 54.6669 30.3349 54.7879 30.2306C54.977 30.1455 55.155 30.0992 55.3572 30.0577C55.4257 30.0434 55.4946 30.0286 55.5652 30.0138C55.7661 29.9749 55.7663 29.9754 55.9509 29.9552C56.1163 29.9233 56.1163 29.9232 56.2566 29.8283C56.4003 29.5786 56.3142 29.3579 56.2507 29.0861C56.2397 29.0336 56.229 28.9809 56.2175 28.9269C56.1544 28.6329 56.0789 28.3431 55.9978 28.0538C55.9754 27.9657 55.9533 27.8775 55.9314 27.7892C55.8121 27.3074 55.6872 26.8333 55.5291 26.3634C55.4717 26.176 55.4305 25.9882 55.3904 25.796C55.3043 25.3921 55.1659 25.0314 55.0047 24.6544C54.8185 24.2091 54.6848 23.763 54.5691 23.2931C54.5352 23.1584 54.5015 23.0235 54.4675 22.8888C54.4519 22.8263 54.4358 22.7638 54.4197 22.6994C54.3699 22.5026 54.317 22.3069 54.2625 22.1115C54.2208 21.9555 54.1799 21.7991 54.1394 21.6427C54.1289 21.6027 54.118 21.5619 54.1072 21.5206C54.0307 21.2249 54.031 21.2249 54.031 21.091H53.9148C53.9137 21.1254 53.9131 21.16 53.9119 21.1954C53.8711 22.3604 53.8708 22.3607 53.7722 22.8869C53.7324 23.1263 53.7105 23.3668 53.6873 23.6085C53.6485 24.0017 53.5821 24.3766 53.491 24.7609C53.3738 25.2835 53.3496 25.8459 53.4519 26.3732C53.492 26.4213 53.5327 26.4701 53.574 26.5197C53.6834 26.6734 53.6832 26.6738 53.6785 26.8956C53.6657 26.978 53.6519 27.0608 53.6365 27.1427C53.5653 27.5512 53.5542 27.892 53.6834 28.2941C53.6911 28.3771 53.6966 28.4607 53.7 28.5441C53.7021 28.5917 53.7036 28.6395 53.7058 28.6886C53.7099 28.7887 53.7145 28.8892 53.7185 28.9894C53.7207 29.0368 53.7231 29.0841 53.7254 29.1329C53.7271 29.1764 53.7284 29.22 53.7302 29.2648C53.7355 29.3805 53.736 29.381 53.7996 29.4952C53.8038 29.5896 53.8037 29.6841 53.8025 29.7785C53.8021 29.8354 53.802 29.8926 53.8015 29.9513C53.8 30.0707 53.7982 30.1903 53.7966 30.3097C53.794 30.6456 53.811 30.9637 53.8572 31.296C53.8836 31.6392 53.8815 31.9046 53.6834 32.1964C53.4085 32.4815 53.1387 32.5469 52.7576 32.5568C52.7525 32.5942 52.7472 32.6315 52.742 32.6701C52.6997 32.7961 52.6997 32.7961 52.6052 32.8546C52.5465 32.8739 52.546 32.874 52.4861 32.8937C52.4478 32.9068 52.4093 32.9202 52.3699 32.9337C52.3042 32.9548 52.3042 32.9552 52.2371 32.9767C52.1843 32.9976 52.1313 33.0186 52.0769 33.0402C51.8198 33.1181 51.567 33.1223 51.3015 33.131C51.13 33.1388 50.9833 33.1482 50.823 33.215C50.5666 33.321 50.289 33.3201 50.0154 33.339C49.627 33.3746 49.4614 33.513 49.1892 33.8019C49.0554 33.937 49.0549 33.9367 48.9392 33.9367C48.9285 33.9828 48.9181 34.0297 48.907 34.0773C48.8094 34.2651 48.7261 34.3002 48.534 34.3644C48.4959 34.3757 48.4579 34.3869 48.4187 34.3986C48.3797 34.4111 48.3407 34.4237 48.3006 34.4367C48.0359 34.5198 47.7704 34.5803 47.4978 34.629C47.3279 34.6688 47.1844 34.7551 47.03 34.837H46.741C46.7174 34.8648 46.694 34.8934 46.6697 34.922C46.5231 35.0596 46.3796 35.0724 46.1873 35.1115C45.9147 35.1566 45.9145 35.1567 45.7 35.3175C45.5652 35.3618 45.4314 35.4009 45.2947 35.4376C45.2104 35.4618 45.126 35.4864 45.0418 35.5109C44.9078 35.5494 44.7734 35.5876 44.6394 35.6261C44.5956 35.6387 44.5517 35.6522 44.5066 35.6652C44.4636 35.6775 44.42 35.6896 44.3757 35.7023C44.2653 35.7344 44.1548 35.7674 44.0447 35.8009C43.8369 35.8608 43.6288 35.9093 43.4177 35.9552C43.3462 35.9708 43.2746 35.987 43.2009 36.0031C43.1205 36.0204 43.1201 36.0205 43.0379 36.0382V36.1583C42.4936 36.3351 41.9663 36.4403 41.3963 36.3605C41.1412 36.3279 40.9989 36.3633 40.782 36.5187C40.7473 36.5583 40.7122 36.598 40.6765 36.6388C40.529 36.7788 40.4229 36.8144 40.2302 36.8654C40.1682 36.8824 40.1057 36.8995 40.0418 36.9171C39.9771 36.9341 39.9121 36.9514 39.8455 36.9689C39.4475 37.0749 39.0737 37.184 38.7019 37.3663C38.5136 37.4493 38.3295 37.4802 38.1277 37.5158C37.8166 37.5685 37.8165 37.569 37.5418 37.7189C37.4328 37.7393 37.4324 37.7391 37.3211 37.7599C37.0283 37.8216 36.7852 37.9549 36.5222 38.0988C36.3042 38.2162 36.0927 38.3037 35.8572 38.3751C35.4259 38.5137 35.0137 38.7666 34.7048 39.1115C34.5699 39.2402 34.4966 39.2538 34.3162 39.2648C34.2701 39.2682 34.224 39.271 34.1765 39.2745C34.1417 39.2761 34.1069 39.2778 34.0711 39.2794C34.052 39.3389 34.0321 39.3989 34.0125 39.4601C33.9735 39.4673 33.9344 39.4741 33.8943 39.4816C33.8428 39.4916 33.7912 39.5015 33.7381 39.5118C33.6871 39.5216 33.6362 39.5321 33.5838 39.5421C33.4364 39.5735 33.4361 39.5732 33.3181 39.6408C33.0397 39.7835 32.705 39.7925 32.406 39.7228C32.1584 39.6301 31.8976 39.5137 31.74 39.2853C31.6365 38.9717 31.6848 38.6356 31.7566 38.3195C31.8521 38.1483 31.9626 38.0296 32.1033 37.8986C32.1885 37.7218 32.1827 37.6173 32.1619 37.4191C32.1155 37.3416 32.0671 37.2648 32.0173 37.1896C31.7825 36.7876 31.8404 36.3103 31.8718 35.8576C31.8817 35.8185 31.892 35.7796 31.9021 35.7394C31.9318 35.6109 31.934 35.5031 31.9304 35.3712C31.9272 35.0656 31.9521 34.7659 31.9812 34.462C31.9857 34.4111 31.9902 34.3602 31.9949 34.3077C32.0218 34.0196 32.0598 33.7372 32.1091 33.4523C32.1835 32.9629 32.1624 32.4823 32.1433 31.9894C32.1404 31.899 32.1373 31.8083 32.1345 31.7179C32.119 31.2365 32.0948 30.7567 32.0574 30.2765C32.043 30.0436 32.0447 29.8124 32.0476 29.5792C32.0484 29.4196 32.0488 29.4195 32.0134 29.2023C31.9878 29.0119 32.0096 28.9007 32.0457 28.715C32.0508 28.6039 32.0538 28.4922 32.0535 28.381C32.0537 28.2975 32.0533 28.2969 32.0535 28.212C32.0514 28.0617 32.0514 28.0609 32.0183 27.9474C31.8858 27.3654 31.9208 26.7184 31.9226 26.1222V25.2843C31.9301 25.1132 31.9302 25.1124 31.9881 24.9923C32.0033 24.8334 32.0154 24.6761 32.0242 24.5167C32.0267 24.4703 32.0294 24.423 32.032 24.3751C32.0463 24.0743 32.0404 23.786 32.0066 23.4865C31.9836 23.2699 31.9706 23.0525 31.9588 22.8351C31.9563 22.7926 31.9544 22.75 31.9519 22.7062C31.9386 22.4651 31.9272 22.2238 31.9177 21.9826C31.9198 21.1221 31.9201 21.1216 31.6961 20.3126C31.6288 20.1631 31.6258 20.0512 31.6267 19.8869C31.6264 19.8354 31.6261 19.7836 31.6257 19.7306C31.6411 19.5903 31.641 19.5902 31.7566 19.4103C31.8945 18.9954 31.8822 18.5749 31.8718 18.1417C31.8622 17.7375 31.859 17.3925 31.9881 17.0089C32.0107 16.9105 32.0329 16.8119 32.0535 16.713C32.068 16.6436 32.068 16.6431 32.0828 16.5724C32.0898 16.5383 32.0961 16.504 32.1033 16.4689C32.4114 16.4036 32.6205 16.4067 32.9138 16.5285C32.9699 16.578 33.026 16.6278 33.0838 16.6788C33.3231 16.8816 33.5368 16.9557 33.8465 16.9445C33.9795 16.9294 34.1115 16.9091 34.2439 16.8888C34.3365 16.8794 34.4295 16.8706 34.5222 16.8624C34.731 16.8436 34.9399 16.822 35.1482 16.798C35.6855 16.7372 36.2101 16.6962 36.7507 16.7101C36.9009 16.7272 36.9012 16.7274 36.9636 16.6486C37.0745 16.6484 37.1858 16.6491 37.2966 16.6505C37.4568 16.6488 37.6143 16.6298 37.7732 16.6095C38.503 16.5167 39.2342 16.505 39.9685 16.4943C40.0569 16.4926 40.1457 16.4911 40.2341 16.4894C40.2955 16.4889 40.2958 16.4889 40.3582 16.4884C40.5692 16.4839 40.6591 16.4736 40.8396 16.3488C40.9562 16.3399 41.0733 16.3359 41.1902 16.3341C41.4711 16.3175 41.6315 16.2834 41.8562 16.1085C42.1845 15.874 42.5102 15.8912 42.8953 15.8839C43.2415 15.8766 43.5441 15.8272 43.8777 15.7257C44.0845 15.6716 44.2719 15.6804 44.4841 15.6886C44.5223 15.6688 44.561 15.6485 44.6004 15.6281C44.744 15.6156 44.8872 15.6063 45.031 15.5988C45.3404 15.5834 45.3405 15.5825 45.6414 15.5079C45.7258 15.5045 45.8109 15.5049 45.8953 15.507C45.9677 15.5081 45.9679 15.5078 46.0418 15.5089C46.1439 15.511 46.2463 15.5132 46.3484 15.5158C46.3967 15.5164 46.4451 15.517 46.4949 15.5177C46.5392 15.5187 46.584 15.5196 46.6297 15.5206C46.7548 15.5186 46.7544 15.5185 46.8562 15.3878C46.9903 15.3651 46.9908 15.3656 47.157 15.3546C47.2174 15.3501 47.2783 15.3456 47.3406 15.341C47.404 15.3368 47.4676 15.3326 47.533 15.3283C48.0115 15.3043 48.012 15.3044 48.4783 15.2013C48.7193 15.1272 48.8255 15.1801 49.0554 15.2677C49.0934 15.2283 49.1316 15.1891 49.1707 15.1486C49.311 15.1258 49.3113 15.1254 49.4783 15.1144C49.6398 15.1032 49.7934 15.0915 49.9519 15.0568C50.1135 15.0251 50.2613 15.0247 50.4256 15.0285C50.6456 15.0391 50.6456 15.0385 50.8484 14.9679C51.3236 14.8373 51.7757 14.8467 52.2605 14.8859C52.4975 14.9044 52.6988 14.9107 52.9314 14.8478ZM34.2439 35.7374C34.2624 35.8937 34.2632 35.8943 34.3025 36.0382C34.3596 35.9987 34.4165 35.9588 34.4754 35.9181C34.4563 35.8192 34.4374 35.7202 34.4177 35.6183H34.3601C34.322 35.6578 34.2832 35.6967 34.2439 35.7374ZM51.1961 18.2091H51.3689V18.09H51.1961V18.2091ZM49.7498 17.2492C49.826 17.2294 49.9027 17.209 49.9812 17.1886C49.9622 17.1491 49.9422 17.1101 49.9226 17.0695H49.7498V17.2492Z" fill="#FFFCFF"/>
<path fill-rule="evenodd" clip-rule="evenodd" d="M19.5496 0.0206389C20.0185 -0.0339764 20.509 0.0325264 20.9773 0.0733733C21.034 0.0780683 21.0908 0.0831848 21.1492 0.0880217C21.2024 0.0930708 21.2564 0.097468 21.3113 0.10267C21.359 0.107051 21.4067 0.111829 21.4558 0.116342C21.5739 0.140992 21.5745 0.140816 21.6902 0.260873C21.8355 0.282165 21.8357 0.28194 22.0056 0.283334C22.07 0.285385 22.1346 0.288057 22.2009 0.29017C22.2685 0.291755 22.3364 0.29342 22.406 0.295053C22.5378 0.298716 22.6698 0.301802 22.8015 0.305795C22.8989 0.308704 22.8993 0.308682 22.9988 0.311655C23.2474 0.322957 23.4945 0.347818 23.742 0.375131C23.8842 0.38123 23.9837 0.358905 24.1199 0.32142C24.5059 0.362148 24.5065 0.361437 24.5828 0.440561C24.6842 0.453352 24.7858 0.466182 24.8875 0.476694C25.5039 0.540519 25.504 0.540459 25.7976 0.684701C26.1481 0.849167 26.5154 0.843771 26.8933 0.856576C27.4091 0.875301 27.9121 0.92137 28.4197 1.01673C28.63 1.05055 28.8255 1.05362 29.0379 1.04115C29.0568 1.02146 29.0759 1.00186 29.0955 0.981576C29.1751 0.964499 29.2553 0.950831 29.3357 0.938608C29.3858 0.930976 29.4364 0.923033 29.4881 0.91517C31.4816 0.626321 31.4821 0.626367 32.1619 0.861459C32.275 0.867134 32.3885 0.868588 32.5017 0.868295C32.561 0.868449 32.6203 0.869113 32.6814 0.869272C32.8541 0.866156 32.8545 0.866371 33.0154 0.82728C33.1451 0.801496 33.1449 0.80149 33.2605 0.861459C33.5532 0.876019 33.5538 0.875605 33.8396 0.82728C33.9916 0.792861 34.1271 0.819651 34.2791 0.845834C34.4301 0.865732 34.4307 0.865839 34.6345 0.854623C34.8935 0.852843 35.1139 0.91606 35.3582 1.00013C35.3982 1.0129 35.4381 1.02604 35.4793 1.03919C35.6974 1.11181 35.8578 1.19827 36.0379 1.34193C36.2451 1.35193 36.2455 1.35194 36.4431 1.34193C36.4811 1.36164 36.5192 1.38119 36.5584 1.4015C36.6859 1.41556 36.8142 1.42672 36.9422 1.43568C37.0149 1.44085 37.0879 1.44597 37.1629 1.4513C37.3213 1.45942 37.4744 1.46085 37.6326 1.45423C37.8578 1.46276 37.9341 1.51882 38.1209 1.64173C38.4588 1.75552 38.7737 1.81323 39.1043 1.64173C39.2947 1.62977 39.4848 1.62044 39.6756 1.61537C39.9497 1.60267 40.1339 1.54539 40.3767 1.4015C40.514 1.36026 40.5144 1.36064 40.6082 1.34193C40.6272 1.40121 40.6462 1.46053 40.6658 1.52162C40.7444 1.51953 40.7448 1.51984 40.825 1.51771C41.236 1.51139 41.601 1.52341 41.9968 1.64173C42.0158 1.66143 42.0349 1.68102 42.0545 1.7013C42.1372 1.6942 42.2203 1.68349 42.3025 1.67103C43.1154 1.57196 43.623 1.69007 44.2732 2.21497C44.4005 2.33088 44.5008 2.46 44.6004 2.60169C44.6504 2.6524 44.7001 2.70375 44.7517 2.75599C44.8891 2.90225 44.8893 2.90234 44.947 3.03724C44.9661 3.07191 44.986 3.10699 45.0056 3.14271C45.0496 3.15135 45.0941 3.16018 45.1394 3.16908C45.3564 3.21634 45.4363 3.33371 45.5838 3.50208C45.7675 3.70232 45.9338 3.84252 46.1619 3.98255C46.5119 4.22727 46.8408 4.46332 47.0877 4.82337C47.1521 4.91446 47.2171 5.00509 47.282 5.09583C47.3493 5.1903 47.4157 5.28589 47.4822 5.38099C47.5951 5.52617 47.6975 5.61504 47.8406 5.72376C47.8965 5.82824 47.9519 5.93304 48.0066 6.03822C48.0899 6.17414 48.1977 6.26779 48.3201 6.36537C48.4331 6.4557 48.5394 6.55248 48.6463 6.65052C48.7952 6.78671 48.9459 6.92008 49.0984 7.05189C49.2216 7.15982 49.3043 7.24956 49.4021 7.38587C49.5529 7.56666 49.7107 7.61553 49.9226 7.70423C49.9715 7.74633 50.0207 7.78879 50.0711 7.83216C50.2356 7.9635 50.3551 7.9853 50.5593 8.00501C50.5734 7.97104 50.5869 7.9365 50.6013 7.9015C50.6885 7.73822 50.7955 7.62438 50.9207 7.49037C51.1529 7.22927 51.3135 6.96933 51.4627 6.65052C51.5488 6.49305 51.6484 6.3881 51.7742 6.2638C51.7933 6.2242 51.8121 6.18448 51.8318 6.14369H51.948C51.9623 6.09924 51.9763 6.0547 51.991 6.00892C52.0632 5.84396 52.0636 5.84372 52.1863 5.72767C52.3092 5.60848 52.3091 5.60768 52.3308 5.42298C52.311 5.22518 52.3111 5.22489 52.1218 5.10853C52.0646 5.07388 52.007 5.03876 51.948 5.00306V4.88294C51.8974 4.85898 51.8969 4.85942 51.8455 4.83509C51.7146 4.76241 51.6169 4.68181 51.5066 4.57923C51.403 4.4832 51.3205 4.4075 51.1961 4.3429V4.22279C51.1567 4.21164 51.1165 4.20009 51.0759 4.18861C50.874 4.08593 50.757 3.95373 50.6033 3.78626C50.4678 3.64797 50.3129 3.55 50.1541 3.44251C50.0556 3.34486 49.9586 3.24539 49.865 3.14271C49.8459 3.12291 49.8271 3.10256 49.8074 3.08216C49.7744 2.76904 49.85 2.61003 50.0203 2.35462C50.0599 2.2938 50.0996 2.23272 50.1404 2.17005C50.2698 2.00176 50.2697 2.00145 50.4129 1.88294C50.6161 1.71385 50.7501 1.50512 50.8992 1.28529C50.957 1.20206 51.0181 1.12124 51.0798 1.04115H51.1961C51.2115 1.00665 51.227 0.972193 51.2429 0.936655C51.3768 0.673543 51.508 0.505937 51.7742 0.38099C51.9367 0.39973 51.9371 0.399418 52.0632 0.440561C51.9938 1.05306 51.9942 1.05391 51.7586 1.29798C51.5976 1.46528 51.4582 1.63819 51.3191 1.82533C51.2727 1.88669 51.2263 1.94863 51.1785 2.01185C51.067 2.16861 51.0666 2.16839 51.0896 2.31751C51.1493 2.4461 51.2008 2.51567 51.3113 2.60169C51.462 2.645 51.4622 2.64559 51.6004 2.66224V2.54212H51.7166C51.7311 2.50862 51.7455 2.47507 51.7605 2.44056C51.9626 2.04964 52.2738 1.70474 52.5838 1.4015C52.6123 1.36446 52.6412 1.32735 52.6707 1.28919C52.7574 1.22172 52.7577 1.22165 52.9129 1.24037C52.9569 1.25395 53.0013 1.26739 53.0466 1.28138C53.0866 1.3801 53.0874 1.38022 53.1052 1.52162C53.0345 1.68365 53.0339 1.68403 52.9275 1.86341C52.8903 1.92666 52.8526 1.98966 52.8142 2.05482C52.629 2.35654 52.4396 2.65496 52.241 2.9474C52.1687 3.08131 52.1687 3.08165 52.1795 3.24037C52.2556 3.42755 52.3584 3.46614 52.5261 3.56263C52.8529 3.19715 53.1679 2.83112 53.4588 2.43372C53.581 2.28641 53.7027 2.17167 53.8572 2.06165C54.0486 2.07664 54.0486 2.07724 54.2039 2.1222C54.2477 2.25658 54.2697 2.3361 54.2293 2.47376C54.0982 2.73186 53.9512 2.96292 53.7791 3.19349C53.6707 3.33941 53.566 3.48799 53.4627 3.63783C53.4289 3.68633 53.3949 3.73532 53.3601 3.78529C53.2831 3.91483 53.2458 4.01441 53.2205 4.16322C53.3634 4.28186 53.3639 4.28161 53.5095 4.40247C53.8943 4.23982 54.1559 3.8401 54.4246 3.5265C54.7541 3.15039 54.7546 3.15071 54.9636 3.08997C55.0184 3.0875 55.0732 3.08471 55.1297 3.08216C55.1678 3.12178 55.2065 3.16146 55.2459 3.20228C55.2331 3.48071 55.0908 3.67438 54.9382 3.89271C54.9157 3.92591 54.8931 3.95909 54.8699 3.9933C54.7317 4.19543 54.5852 4.39023 54.4353 4.58314C54.296 4.79481 54.2625 4.85888 54.2625 5.12318C54.455 5.28296 54.5964 5.32556 54.8406 5.30384C54.852 5.25407 54.863 5.20375 54.8748 5.15247C54.9807 4.87971 55.1403 4.69777 55.3289 4.48158C55.3627 4.44189 55.3966 4.40234 55.4314 4.36146C55.5229 4.25448 55.6151 4.14804 55.7088 4.0431C55.7515 3.9917 55.7511 3.99104 55.7947 3.93861C55.8377 3.90101 55.8377 3.90084 55.8816 3.86244C56.066 3.88119 56.0665 3.88171 56.2293 3.92298C56.2899 4.11744 56.2958 4.20253 56.2175 4.39369C56.1128 4.58518 55.9975 4.74178 55.8601 4.90931C55.4913 5.32493 55.4918 5.32551 55.2713 5.82533C55.3141 6.00754 55.3987 6.08498 55.5349 6.20423C55.7494 6.11492 55.8495 5.99179 55.9871 5.80189C56.1613 5.56863 56.3403 5.35545 56.5457 5.1515C56.6427 5.05666 56.6429 5.05664 56.7566 4.91712C56.865 4.82339 56.8654 4.82272 57.0242 4.80775C57.0886 4.81518 57.0893 4.81579 57.155 4.82337C57.2163 4.93186 57.2161 4.93242 57.2703 5.06361C57.2512 5.12289 57.2323 5.18221 57.2127 5.2433H57.0965V5.36341H56.9812C56.9693 5.40303 56.9574 5.44271 56.9451 5.48353C56.8359 5.73079 56.6779 5.92916 56.5183 6.14369C56.3409 6.38468 56.3411 6.38482 56.2654 6.66908C56.276 6.81584 56.2763 6.8157 56.4031 6.92396C56.5553 6.91143 56.6197 6.87903 56.7283 6.76673C56.771 6.70928 56.7716 6.70914 56.8152 6.65052C56.9024 6.53398 56.9021 6.5333 56.9812 6.44349H57.0965C57.1107 6.41019 57.1257 6.37721 57.1404 6.3429C57.3169 6.0041 57.576 5.72196 57.907 5.5431C58.0804 5.58058 58.0806 5.58082 58.1961 5.66322C58.2122 5.89935 58.1865 6.01521 58.0486 6.20326C58.0178 6.24558 57.9866 6.28758 57.9548 6.33119C57.9223 6.37448 57.8898 6.41842 57.8562 6.46302C57.8241 6.5074 57.7916 6.55207 57.7586 6.59779C57.5821 6.83708 57.5819 6.83698 57.5017 6.92396H57.3865C57.3722 6.96729 57.3573 7.01115 57.3425 7.0558C57.2632 7.24094 57.1615 7.36728 57.0388 7.52455C56.9889 7.62451 56.9891 7.62489 56.9382 7.72669C56.7934 7.99426 56.5987 8.20612 56.3445 8.36439C56.0148 8.37004 55.8024 8.27763 55.5672 8.04603C55.473 7.94361 55.3788 7.84108 55.2849 7.73841C55.1224 7.57765 54.9523 7.44402 54.7693 7.3097C54.6672 7.22407 54.6671 7.22399 54.5515 7.04408C54.4522 6.97179 54.4517 6.97212 54.3416 6.91322C54.2449 6.85936 54.2449 6.85879 54.1463 6.80384V6.68372C54.1045 6.66765 54.0623 6.65146 54.0193 6.6349C53.8572 6.56387 53.8569 6.56385 53.7127 6.45912C53.5717 6.36506 53.5709 6.36465 53.4226 6.42494C53.375 6.45088 53.3272 6.4773 53.2781 6.50404C53.2269 6.52133 53.1756 6.53896 53.1228 6.55677C52.9599 6.63904 52.9399 6.69289 52.8738 6.86439C52.7553 7.09924 52.6356 7.22877 52.4285 7.38197C52.1494 7.60496 51.9623 7.84725 51.7644 8.14759C51.6696 8.28896 51.57 8.41656 51.4597 8.54505C51.3038 8.7117 51.3038 8.71195 51.2537 8.9054C51.2917 8.93251 51.3298 8.95951 51.3689 8.98744C51.4071 9.01963 51.4458 9.05193 51.4851 9.08509V9.20521C51.5333 9.22605 51.5335 9.2259 51.5828 9.2472C51.9735 9.47455 52.2962 9.89347 52.5261 10.2853C52.5874 10.3641 52.6492 10.4431 52.7107 10.5216C52.8761 10.746 52.9201 10.9056 52.9314 11.1857C53.0458 11.2055 53.1602 11.2258 53.2781 11.2462C53.2972 11.3056 53.317 11.3648 53.3367 11.4259C53.3854 11.4382 53.434 11.4513 53.4841 11.464C53.701 11.554 53.7545 11.6205 53.8972 11.8048C54.149 12.1172 54.4208 12.247 54.783 12.3868C54.8793 12.4267 54.9758 12.4668 55.072 12.507V12.6271C55.1138 12.6419 55.156 12.6567 55.199 12.672C55.376 12.7537 55.5006 12.8609 55.6502 12.9874C55.7074 13.0072 55.765 13.0266 55.824 13.047C55.9042 13.1772 55.9048 13.1772 55.9402 13.3468C55.8391 13.6404 55.6726 13.8962 55.4187 14.0675C55.0665 14.1793 54.682 14.1276 54.3201 14.1017C54.1721 14.094 54.0238 14.0869 53.8757 14.0812C53.7843 14.0773 53.6927 14.0722 53.6013 14.0656C53.3113 14.0495 53.0883 14.0967 52.8172 14.2052C52.6377 14.27 52.462 14.2771 52.2732 14.2853C51.9899 14.298 51.9897 14.2976 51.7166 14.3673C51.5377 14.3856 51.3587 14.3986 51.1795 14.4113C51.0245 14.4182 51.0238 14.4175 50.906 14.4874C50.8084 14.5034 50.7103 14.5167 50.6121 14.5285C50.5227 14.5395 50.5222 14.5397 50.4314 14.5509C50.3067 14.5659 50.1812 14.5808 50.0564 14.5958C49.7829 14.6297 49.5166 14.6661 49.2488 14.7335C48.805 14.8306 48.3453 14.7976 47.8943 14.7911C47.7544 14.7895 47.6143 14.7884 47.4744 14.7872C47.3879 14.7865 47.3011 14.7857 47.2146 14.7843C47.1147 14.7833 47.0147 14.7855 46.9148 14.7882C46.8957 14.808 46.8759 14.8274 46.8562 14.8478C46.7516 14.8537 46.6465 14.8559 46.5418 14.8556C46.4847 14.8558 46.4277 14.8554 46.3689 14.8556C46.2204 14.8476 46.22 14.8482 46.1043 14.7882C45.7693 14.7689 45.451 14.7878 45.1209 14.8478C45.0636 14.828 45.006 14.8086 44.947 14.7882C44.792 14.7936 44.6387 14.8025 44.4841 14.8146C44.1945 14.8351 43.9075 14.8516 43.617 14.8478C43.4384 14.8456 43.2693 14.8526 43.0925 14.8781C42.8244 14.9147 42.5596 14.9081 42.2898 14.9044C41.842 14.8995 41.4404 14.9404 41.0134 15.088C40.9254 15.0922 40.8369 15.0932 40.7488 15.0919C40.671 15.0912 40.671 15.0907 40.5916 15.09C40.4835 15.0884 40.3754 15.0877 40.2673 15.0861C39.7938 15.0819 39.344 15.1357 38.8767 15.212C38.4471 15.2763 38.0476 15.2929 37.6179 15.2306C37.4405 15.2073 37.3616 15.2107 37.1843 15.2648C36.9594 15.3298 36.798 15.3284 36.5662 15.3204C36.2181 15.3147 35.919 15.348 35.6326 15.5685C35.6135 15.6278 35.5946 15.6871 35.575 15.7482C35.3467 15.7589 35.1936 15.7536 34.9968 15.6281C34.9661 15.6583 34.9348 15.6887 34.9031 15.7199C34.6715 15.868 34.4657 15.7888 34.2088 15.7384C33.6543 15.5956 33.3675 15.3506 33.03 14.8732C32.9181 14.7328 32.844 14.6719 32.6824 14.6076V14.4874C32.6466 14.4726 32.6108 14.4578 32.574 14.4425C32.4277 14.3532 32.4089 14.281 32.3347 14.1271C32.2587 14.0852 32.181 14.0463 32.1033 14.0079C31.6245 13.71 31.2254 13.3968 30.8308 12.9874C30.7927 12.9677 30.7548 12.9472 30.7156 12.9269V12.8068C30.6823 12.7922 30.6483 12.7778 30.614 12.7628C30.4598 12.6731 30.3647 12.5666 30.2449 12.4318C30.017 12.1874 29.7878 12.0217 29.4988 11.8634C29.385 11.7861 29.3847 11.7864 29.3269 11.6066H29.2107V11.4865C29.1765 11.4713 29.1424 11.4562 29.1072 11.4406C28.9645 11.3577 28.8906 11.272 28.7879 11.1408C28.6215 10.9354 28.4469 10.7654 28.2439 10.5997C28.2194 10.5754 28.195 10.5506 28.1697 10.5255V10.4054C28.1304 10.3955 28.091 10.3863 28.0506 10.3761C27.8025 10.2447 27.6376 10.0386 27.4754 9.80579V9.68568C27.4422 9.66958 27.4089 9.65343 27.3748 9.63685C27.2392 9.56309 27.1208 9.47941 26.9978 9.3849C26.9368 9.3387 26.9362 9.33843 26.8738 9.29115C26.8432 9.26278 26.8126 9.23443 26.781 9.20521V9.08509C26.7465 9.07152 26.712 9.05805 26.6765 9.04408C26.5501 8.96536 26.5497 8.96505 26.4812 8.83412C26.3465 8.61727 26.1761 8.4987 25.9783 8.34583C25.8352 8.2281 25.7377 8.09215 25.6238 7.94447C25.4056 7.75501 25.1762 7.58063 24.948 7.40443C24.8323 7.30055 24.7418 7.19951 24.6443 7.07826C24.347 6.71212 24.0358 6.51379 23.6306 6.2931C23.456 6.18764 23.3323 6.05523 23.1941 5.90345C23.1452 5.88365 23.0961 5.86429 23.0457 5.84388C22.9047 5.78386 22.9047 5.78362 22.8035 5.64857C22.6455 5.44826 22.4699 5.33728 22.2586 5.20326C22.2237 5.17692 22.189 5.15031 22.1531 5.12318V5.00306C22.121 4.98844 22.0885 4.97418 22.0554 4.95912C21.8936 4.86781 21.7653 4.7555 21.6248 4.63197C21.369 4.41137 21.1075 4.2072 20.8328 4.01283C20.7911 3.98305 20.7488 3.95366 20.7058 3.92298C20.6406 3.87831 20.6407 3.87783 20.574 3.83216C20.5413 3.80266 20.509 3.77272 20.4754 3.74232V3.56263C20.4301 3.55398 20.3843 3.54518 20.3377 3.53626C20.1859 3.50251 20.1856 3.50246 20.0701 3.44251V3.3224C19.9937 3.28279 19.9173 3.24308 19.8386 3.20228V3.08216C19.7945 3.06483 19.7503 3.04728 19.7048 3.02943C19.5494 2.9619 19.5493 2.96199 19.3757 2.84193V2.72181H19.2595C19.1701 2.61457 19.1699 2.6144 19.0681 2.47083C18.9114 2.25646 18.762 2.05777 18.5652 1.88197H18.3923C18.2886 2.00174 18.2884 2.00167 18.1863 2.1554C17.9505 2.47448 17.6885 2.70555 17.3504 2.90247H17.2351C17.197 2.98166 17.1582 3.06113 17.1189 3.14271H17.0037C16.9902 3.17805 16.9765 3.21372 16.9627 3.25013C16.8698 3.4147 16.7705 3.48119 16.617 3.58509C16.3974 3.73848 16.1937 3.89707 15.9959 4.07923C15.9089 4.1588 15.818 4.23379 15.7273 4.30872C15.5952 4.42827 15.4992 4.5334 15.3914 4.67298C15.2346 4.87019 15.0667 4.98568 14.8552 5.11341C14.6996 5.21467 14.5842 5.34581 14.4578 5.48353C14.3835 5.55025 14.3092 5.61697 14.2341 5.68275C14.0717 5.82825 13.9277 5.97788 13.7888 6.14759C13.522 6.47185 13.2265 6.71702 12.8884 6.95814C12.6752 7.11044 12.4932 7.26568 12.3172 7.464C12.1617 7.62949 12.0056 7.78455 11.8328 7.92982C11.5887 8.1435 11.4083 8.40043 11.2185 8.66517C10.9883 8.97952 10.7247 9.22719 10.408 9.44544H10.2927C10.2808 9.47917 10.2689 9.51323 10.2566 9.54798C10.1485 9.73522 9.99734 9.845 9.82985 9.97083C9.79835 9.99543 9.7666 10.0197 9.73415 10.0451C9.49867 10.2253 9.49824 10.2257 9.36696 10.2257C9.34792 10.285 9.32896 10.3443 9.30934 10.4054C9.17262 10.5065 9.17235 10.5072 9.00173 10.6124C8.78524 10.7465 8.61845 10.8818 8.44118 11.0665H8.32497V11.1857C8.06647 11.4257 8.06677 11.4259 7.92067 11.4259V11.546C7.82146 11.6455 7.82075 11.6453 7.69215 11.756C7.51964 11.8994 7.52046 11.9003 7.40016 12.087H7.28395C7.27081 12.1209 7.25746 12.1547 7.24391 12.1896C7.14778 12.3637 7.02846 12.4694 6.88258 12.6007C6.68696 12.7764 6.68654 12.7765 6.4988 12.9611C6.39929 13.0643 6.29221 13.1555 6.18434 13.2492C5.96382 13.4483 5.84083 13.6406 5.71169 13.9113C5.58018 14.1072 5.44236 14.1941 5.24489 14.3156C5.18145 14.3553 5.11787 14.3948 5.05251 14.4357C4.6039 14.6897 4.31246 14.7732 3.81227 14.6681C3.64133 14.5921 3.56038 14.5366 3.44801 14.3868C3.34374 14.0229 3.41105 13.6959 3.52321 13.3468H3.63942C3.65246 13.3124 3.66505 13.2778 3.67848 13.2423C3.80707 13.0136 3.97797 12.8897 4.21755 12.8068C4.30049 12.7084 4.38012 12.6067 4.4568 12.5031C4.66751 12.228 4.88601 11.9957 5.14626 11.7716C5.26349 11.6691 5.26388 11.669 5.35329 11.5333C5.37939 11.4981 5.4055 11.4622 5.43239 11.4259H5.5486C5.55929 11.3902 5.56981 11.3543 5.58083 11.3175C5.70423 11.1227 5.86216 11.0827 6.06911 11.006H6.18434C6.18792 10.9726 6.19237 10.9389 6.19606 10.9044C6.30703 10.5775 6.67389 10.3141 6.93727 10.1056C6.97603 10.0874 7.01453 10.0687 7.05446 10.0499C7.19551 9.96947 7.24561 9.88174 7.33083 9.74134C7.48308 9.51792 7.48336 9.51765 7.6277 9.46009C7.73957 9.44485 7.73987 9.44544 7.92067 9.44544C7.92425 9.41201 7.92772 9.37832 7.93141 9.34388C7.99775 9.14815 8.12252 9.04122 8.26735 8.9054C8.31008 8.86432 8.3532 8.82274 8.39723 8.7804C8.7978 8.3997 9.21229 8.0536 9.65993 7.73451C9.98867 7.49827 10.2838 7.23619 10.5632 6.93958C10.6968 6.80474 10.8281 6.72313 10.9871 6.62415C11.0847 6.52541 11.1809 6.42462 11.2761 6.32337C11.3724 6.24349 11.469 6.164 11.5652 6.08412C11.7403 5.9164 11.8841 5.74399 12.0213 5.5431C12.1654 5.33745 12.3123 5.21372 12.5154 5.07533C12.6605 4.96128 12.7386 4.79992 12.8377 4.64271C13.2909 4.12529 13.2917 4.12544 13.5906 3.98255C13.6702 3.90531 13.7473 3.82457 13.822 3.74232C13.974 3.58054 14.1266 3.42739 14.2957 3.28529C14.4652 3.15012 14.4652 3.14949 14.574 2.96205H14.6892C14.7274 2.88284 14.7661 2.80342 14.8054 2.72181H14.9207V2.60169C14.9803 2.58067 15.04 2.55987 15.1013 2.53822C15.274 2.46169 15.3723 2.38257 15.489 2.2306C15.8069 1.81841 16.1973 1.54296 16.6492 1.30775C16.946 1.15698 16.9466 1.15725 17.1306 0.887826C17.2996 0.555394 17.6072 0.399818 17.9412 0.271615C18.0325 0.244007 18.1255 0.222279 18.2185 0.201303V0.0811858C18.3804 -0.00281946 18.5012 0.00985349 18.6814 0.0206389C18.797 0.0606084 18.9125 0.100787 19.0281 0.140756C19.2682 0.160296 19.3456 0.161736 19.5496 0.0206389ZM40.2615 3.26283H40.4343V3.14271H40.2615V3.26283ZM41.4187 3.20228C41.4568 3.16275 41.4947 3.12289 41.534 3.08216C41.4767 3.06236 41.4191 3.04299 41.3601 3.02259C41.3792 3.08195 41.3991 3.14112 41.4187 3.20228Z" fill="#FFFCFF"/>
</svg>
