<svg width="21" height="20" viewBox="0 0 21 20" fill="none" xmlns="http://www.w3.org/2000/svg">
<path d="M3.74429 0C3.86484 0 3.98539 0 4.10959 0C4.10959 0.060274 4.10959 0.120548 4.10959 0.182648C4.16986 0.182648 4.23014 0.182648 4.29224 0.182648C4.29224 0.242922 4.29224 0.303196 4.29224 0.365297C4.35251 0.365297 4.41279 0.365297 4.47489 0.365297C4.47489 0.425571 4.47489 0.485845 4.47489 0.547945C4.53516 0.547945 4.59543 0.547945 4.65753 0.547945C4.65753 0.608219 4.65753 0.668493 4.65753 0.730594C4.71781 0.730594 4.77808 0.730594 4.84018 0.730594C4.84018 0.790868 4.84018 0.851142 4.84018 0.913242C4.90046 0.913242 4.96073 0.913242 5.02283 0.913242C5.02283 0.973516 5.02283 1.03379 5.02283 1.09589C5.0831 1.09589 5.14338 1.09589 5.20548 1.09589C5.20548 1.15616 5.20548 1.21644 5.20548 1.27854C5.26575 1.27854 5.32603 1.27854 5.38813 1.27854C5.38813 1.33881 5.38813 1.39909 5.38813 1.46119C5.4484 1.46119 5.50868 1.46119 5.57078 1.46119C5.57078 1.52146 5.57078 1.58174 5.57078 1.64384C5.63105 1.64384 5.69132 1.64384 5.75342 1.64384C5.75342 1.70411 5.75342 1.76438 5.75342 1.82648C5.8137 1.82648 5.87397 1.82648 5.93607 1.82648C5.93607 1.88676 5.93607 1.94703 5.93607 2.00913C6.1169 2.05434 6.1169 2.05434 6.30137 2.10046C6.30137 2.19087 6.30137 2.28128 6.30137 2.37443C6.36164 2.37443 6.42192 2.37443 6.48402 2.37443C6.48402 2.4347 6.48402 2.49498 6.48402 2.55708C6.54429 2.55708 6.60457 2.55708 6.66667 2.55708C6.66667 2.61735 6.66667 2.67763 6.66667 2.73973C6.72694 2.73973 6.78721 2.73973 6.84932 2.73973C6.84932 2.8 6.84932 2.86027 6.84932 2.92237C6.93054 2.93527 6.93054 2.93527 7.01341 2.94842C7.25949 3.02826 7.34824 3.12943 7.51142 3.32763C7.58276 3.41221 7.58276 3.41221 7.65554 3.4985C7.76256 3.65297 7.76256 3.65297 7.76256 3.83562C7.84308 3.87129 7.84308 3.87129 7.92523 3.90768C8.14035 4.02509 8.27821 4.15028 8.44749 4.32648C8.50223 4.38311 8.55697 4.43973 8.61337 4.49807C8.68948 4.57701 8.68948 4.57701 8.76712 4.65753C8.84058 4.72723 8.91404 4.79692 8.98973 4.86872C9.13242 5.02283 9.13242 5.02283 9.13242 5.20548C9.19269 5.20548 9.25297 5.20548 9.31507 5.20548C9.37785 5.35388 9.37785 5.35388 9.40639 5.57078C9.27511 5.86758 9.27511 5.86758 9.13242 6.11872C9.07215 6.11872 9.01187 6.11872 8.94977 6.11872C8.94977 6.179 8.94977 6.23927 8.94977 6.30137C8.8895 6.30137 8.82922 6.30137 8.76712 6.30137C8.76712 6.36164 8.76712 6.42192 8.76712 6.48402C8.70685 6.48402 8.64658 6.48402 8.58448 6.48402C8.58448 6.54429 8.58448 6.60457 8.58448 6.66667C8.5242 6.66667 8.46393 6.66667 8.40183 6.66667C8.40183 6.72694 8.40183 6.78721 8.40183 6.84932C8.34155 6.84932 8.28128 6.84932 8.21918 6.84932C8.04791 7.20252 8.04791 7.20252 8.12785 7.57991C8.18813 7.57991 8.2484 7.57991 8.3105 7.57991C8.3105 7.64018 8.3105 7.70046 8.3105 7.76256C8.46119 7.70228 8.61187 7.64201 8.76712 7.57991C8.76712 7.51963 8.76712 7.45936 8.76712 7.39726C8.8274 7.39726 8.88767 7.39726 8.94977 7.39726C8.94977 7.33699 8.94977 7.27671 8.94977 7.21461C9.01005 7.21461 9.07032 7.21461 9.13242 7.21461C9.13242 7.15434 9.13242 7.09406 9.13242 7.03196C9.19269 7.03196 9.25297 7.03196 9.31507 7.03196C9.31507 6.97169 9.31507 6.91142 9.31507 6.84932C9.37534 6.84932 9.43562 6.84932 9.49772 6.84932C9.49772 6.78904 9.49772 6.72877 9.49772 6.66667C9.55799 6.66667 9.61827 6.66667 9.68037 6.66667C9.68037 6.60639 9.68037 6.54612 9.68037 6.48402C9.74064 6.48402 9.80091 6.48402 9.86301 6.48402C9.86301 6.42374 9.86301 6.36347 9.86301 6.30137C9.92329 6.30137 9.98356 6.30137 10.0457 6.30137C10.0457 6.2411 10.0457 6.18082 10.0457 6.11872C10.1059 6.11872 10.1662 6.11872 10.2283 6.11872C10.2283 6.05845 10.2283 5.99817 10.2283 5.93607C10.2886 5.93607 10.3489 5.93607 10.411 5.93607C10.411 5.8758 10.411 5.81553 10.411 5.75342C10.4712 5.75342 10.5315 5.75342 10.5936 5.75342C10.5936 5.69315 10.5936 5.63288 10.5936 5.57078C11.3764 5.45336 11.3764 5.45336 11.6895 5.57078C11.6895 5.63105 11.6895 5.69132 11.6895 5.75342C11.7498 5.75342 11.81 5.75342 11.8721 5.75342C11.8721 5.8137 11.8721 5.87397 11.8721 5.93607C11.9324 5.93607 11.9927 5.93607 12.0548 5.93607C12.0548 5.99635 12.0548 6.05662 12.0548 6.11872C12.1753 6.11872 12.2959 6.11872 12.4201 6.11872C12.4201 6.05845 12.4201 5.99817 12.4201 5.93607C12.4804 5.93607 12.5406 5.93607 12.6027 5.93607C12.6027 5.81553 12.6027 5.69498 12.6027 5.57078C12.5425 5.57078 12.4822 5.57078 12.4201 5.57078C12.4201 5.45023 12.4201 5.32968 12.4201 5.20548C12.3598 5.20548 12.2995 5.20548 12.2374 5.20548C12.0937 4.82396 12.0328 4.51167 12.037 4.10459C12.0378 3.95273 12.0378 3.95273 12.0387 3.7978C12.041 3.64135 12.041 3.64135 12.0434 3.48174C12.0442 3.37531 12.045 3.26889 12.0459 3.15925C12.048 2.89762 12.051 2.63604 12.0548 2.37443C12.1151 2.37443 12.1753 2.37443 12.2374 2.37443C12.2374 2.19361 12.2374 2.01279 12.2374 1.82648C12.2977 1.82648 12.358 1.82648 12.4201 1.82648C12.4201 1.70594 12.4201 1.58539 12.4201 1.46119C12.4804 1.46119 12.5406 1.46119 12.6027 1.46119C12.6027 1.34064 12.6027 1.22009 12.6027 1.09589C12.663 1.09589 12.7233 1.09589 12.7854 1.09589C12.7854 1.03562 12.7854 0.975343 12.7854 0.913242C12.8457 0.913242 12.9059 0.913242 12.968 0.913242C12.968 0.852968 12.968 0.792694 12.968 0.730594C13.0886 0.730594 13.2091 0.730594 13.3333 0.730594C13.3635 0.67032 13.3936 0.610046 13.4247 0.547945C13.4247 0.608219 13.4247 0.668493 13.4247 0.730594C13.6356 0.730594 13.8466 0.730594 14.0639 0.730594C14.0639 0.790868 14.0639 0.851142 14.0639 0.913242C14.1845 0.913242 14.305 0.913242 14.4292 0.913242C14.4292 0.973516 14.4292 1.03379 14.4292 1.09589C14.5366 1.11567 14.5366 1.11567 14.6461 1.13584C14.8858 1.18721 14.8858 1.18721 15.0685 1.27854C15.0685 1.33881 15.0685 1.39909 15.0685 1.46119C15.189 1.46119 15.3096 1.46119 15.4338 1.46119C15.4338 1.52146 15.4338 1.58174 15.4338 1.64384C15.4941 1.64384 15.5543 1.64384 15.6164 1.64384C15.6164 1.70411 15.6164 1.76438 15.6164 1.82648C15.7068 1.82648 15.7973 1.82648 15.8904 1.82648C15.8904 1.88676 15.8904 1.94703 15.8904 2.00913C15.9808 2.00913 16.0712 2.00913 16.1644 2.00913C16.1644 2.06941 16.1644 2.12968 16.1644 2.19178C16.2247 2.19178 16.2849 2.19178 16.347 2.19178C16.347 2.25205 16.347 2.31233 16.347 2.37443C16.4073 2.37443 16.4676 2.37443 16.5297 2.37443C16.5297 2.4347 16.5297 2.49498 16.5297 2.55708C16.8009 2.51187 16.8009 2.51187 17.0776 2.46575C17.0776 2.40548 17.0776 2.34521 17.0776 2.28311C17.1379 2.28311 17.1982 2.28311 17.2603 2.28311C17.2603 2.22283 17.2603 2.16256 17.2603 2.10046C17.3205 2.10046 17.3808 2.10046 17.4429 2.10046C17.4429 1.8895 17.4429 1.67854 17.4429 1.46119C17.5032 1.46119 17.5635 1.46119 17.6256 1.46119C17.6256 1.34064 17.6256 1.22009 17.6256 1.09589C17.7461 1.09589 17.8667 1.09589 17.9909 1.09589C17.9909 1.03562 17.9909 0.975343 17.9909 0.913242C18.1717 0.913242 18.3525 0.913242 18.5388 0.913242C18.5388 0.973516 18.5388 1.03379 18.5388 1.09589C18.6594 1.09589 18.7799 1.09589 18.9041 1.09589C18.9041 1.21644 18.9041 1.33699 18.9041 1.46119C18.9644 1.46119 19.0247 1.46119 19.0868 1.46119C19.0868 1.64201 19.0868 1.82283 19.0868 2.00913C19.0265 2.00913 18.9662 2.00913 18.9041 2.00913C18.8815 2.06564 18.8589 2.12215 18.8356 2.18037C18.6966 2.41669 18.6148 2.47086 18.3562 2.55708C18.0594 2.56849 18.0594 2.56849 17.8082 2.55708C17.8082 2.61735 17.8082 2.67763 17.8082 2.73973C17.7479 2.73973 17.6877 2.73973 17.6256 2.73973C17.6256 2.8 17.6256 2.86027 17.6256 2.92237C17.5653 2.92237 17.505 2.92237 17.4429 2.92237C17.4429 3.1032 17.4429 3.28402 17.4429 3.47032C17.5032 3.47032 17.5635 3.47032 17.6256 3.47032C17.6256 3.53059 17.6256 3.59087 17.6256 3.65297C17.6858 3.65297 17.7461 3.65297 17.8082 3.65297C18.1735 4.14719 18.1735 4.14719 18.1735 4.38356C18.2338 4.38356 18.2941 4.38356 18.3562 4.38356C18.3562 4.47397 18.3562 4.56438 18.3562 4.65753C18.4164 4.65753 18.4767 4.65753 18.5388 4.65753C18.9041 5.26256 18.9041 5.26256 18.9041 5.57078C18.9644 5.57078 19.0247 5.57078 19.0868 5.57078C19.2467 5.91527 19.2899 6.1796 19.2808 6.55822C19.2792 6.64734 19.2775 6.73645 19.2758 6.82827C19.2737 6.89549 19.2716 6.96271 19.2694 7.03196C19.2091 7.03196 19.1489 7.03196 19.0868 7.03196C19.0868 7.09224 19.0868 7.15251 19.0868 7.21461C17.7483 7.94501 16.7922 8.24157 15.2511 7.94521C15.2511 7.88493 15.2511 7.82466 15.2511 7.76256C15.1005 7.76256 14.9498 7.76256 14.7945 7.76256C14.7945 7.70228 14.7945 7.64201 14.7945 7.57991C14.7286 7.56672 14.6627 7.55354 14.5947 7.53995C14.3569 7.49239 14.1191 7.44482 13.8813 7.39726C13.8813 7.57808 13.8813 7.7589 13.8813 7.94521C13.9416 7.94521 14.0018 7.94521 14.0639 7.94521C14.3088 8.26429 14.5103 8.54039 14.5205 8.94977C14.3735 9.32891 14.1933 9.60133 13.8813 9.86301C13.821 9.86301 13.7607 9.86301 13.6986 9.86301C13.6986 9.92329 13.6986 9.98356 13.6986 10.0457C13.6384 10.0457 13.5781 10.0457 13.516 10.0457C13.516 10.1059 13.516 10.1662 13.516 10.2283C13.4557 10.2283 13.3954 10.2283 13.3333 10.2283C13.3333 10.2886 13.3333 10.3489 13.3333 10.411C13.2731 10.411 13.2128 10.411 13.1507 10.411C13.1507 10.4712 13.1507 10.5315 13.1507 10.5936C13.0904 10.5936 13.0301 10.5936 12.968 10.5936C12.968 10.6539 12.968 10.7142 12.968 10.7763C12.9078 10.7763 12.8475 10.7763 12.7854 10.7763C12.7854 10.8365 12.7854 10.8968 12.7854 10.9589C12.7251 10.9589 12.6648 10.9589 12.6027 10.9589C12.6027 11.0192 12.6027 11.0795 12.6027 11.1416C12.5425 11.1416 12.4822 11.1416 12.4201 11.1416C12.4201 11.2018 12.4201 11.2621 12.4201 11.3242C12.3598 11.3242 12.2995 11.3242 12.2374 11.3242C12.2374 11.4447 12.2374 11.5653 12.2374 11.6895C12.2977 11.6895 12.358 11.6895 12.4201 11.6895C12.4201 11.7498 12.4201 11.81 12.4201 11.8721C12.4804 11.8721 12.5406 11.8721 12.6027 11.8721C12.6027 11.9324 12.6027 11.9927 12.6027 12.0548C12.663 12.0548 12.7233 12.0548 12.7854 12.0548C12.7854 11.9945 12.7854 11.9342 12.7854 11.8721C12.9292 11.7273 12.9292 11.7273 13.1221 11.5639C13.1887 11.5072 13.2552 11.4504 13.3237 11.392C13.4734 11.2681 13.6255 11.1472 13.7785 11.0274C13.9917 10.8676 13.9917 10.8676 14.1553 10.5936C14.3279 10.5176 14.3279 10.5176 14.5205 10.5023C14.6961 10.5868 14.6961 10.5868 14.863 10.7135C14.9191 10.7546 14.9751 10.7956 15.0328 10.838C15.0747 10.8779 15.1166 10.9178 15.1598 10.9589C15.1598 11.0192 15.1598 11.0795 15.1598 11.1416C15.2107 11.1642 15.2615 11.1868 15.3139 11.21C15.5638 11.3451 15.7695 11.5009 15.9817 11.6895C15.9817 11.7498 15.9817 11.81 15.9817 11.8721C16.042 11.8721 16.1023 11.8721 16.1644 11.8721C16.1644 11.9324 16.1644 11.9927 16.1644 12.0548C16.2247 12.0548 16.2849 12.0548 16.347 12.0548C16.347 12.1151 16.347 12.1753 16.347 12.2374C16.4073 12.2374 16.4676 12.2374 16.5297 12.2374C16.5297 12.2977 16.5297 12.358 16.5297 12.4201C16.59 12.4201 16.6502 12.4201 16.7123 12.4201C16.7123 12.4804 16.7123 12.5406 16.7123 12.6027C16.7726 12.6027 16.8329 12.6027 16.895 12.6027C16.895 12.663 16.895 12.7233 16.895 12.7854C16.9553 12.7854 17.0155 12.7854 17.0776 12.7854C17.0776 12.8457 17.0776 12.9059 17.0776 12.968C17.1379 12.968 17.1982 12.968 17.2603 12.968C17.2603 13.0283 17.2603 13.0886 17.2603 13.1507C17.3205 13.1507 17.3808 13.1507 17.4429 13.1507C17.4429 13.211 17.4429 13.2712 17.4429 13.3333C17.5032 13.3333 17.5635 13.3333 17.6256 13.3333C17.6256 13.3936 17.6256 13.4539 17.6256 13.516C17.6858 13.516 17.7461 13.516 17.8082 13.516C17.8082 13.5763 17.8082 13.6365 17.8082 13.6986C17.8685 13.6986 17.9288 13.6986 17.9909 13.6986C17.9909 13.7589 17.9909 13.8192 17.9909 13.8813C18.0511 13.8813 18.1114 13.8813 18.1735 13.8813C18.2639 14.1073 18.2639 14.1073 18.3562 14.3379C18.4164 14.3379 18.4767 14.3379 18.5388 14.3379C18.5388 14.3982 18.5388 14.4584 18.5388 14.5205C18.5874 14.5396 18.6361 14.5587 18.6861 14.5783C18.9933 14.7543 19.2207 14.9898 19.4692 15.2397C19.519 15.2881 19.5689 15.3365 19.6203 15.3863C19.8708 15.6366 20.0377 15.8117 20.0913 16.1644C19.8683 16.7553 19.3815 17.1493 18.9041 17.5342C18.8014 17.6237 18.6986 17.7131 18.5959 17.8025C18.3562 17.9909 18.3562 17.9909 18.1735 17.9909C18.1735 18.0511 18.1735 18.1114 18.1735 18.1735C18.1132 18.1735 18.053 18.1735 17.9909 18.1735C17.9909 18.2338 17.9909 18.2941 17.9909 18.3562C17.9306 18.3562 17.8703 18.3562 17.8082 18.3562C17.8082 18.4466 17.8082 18.537 17.8082 18.6301C17.6877 18.6603 17.5671 18.6904 17.4429 18.7215C17.4429 18.7817 17.4429 18.842 17.4429 18.9041C17.3826 18.9041 17.3224 18.9041 17.2603 18.9041C17.2603 18.9644 17.2603 19.0247 17.2603 19.0868C17.2 19.0868 17.1397 19.0868 17.0776 19.0868C17.0513 19.1564 17.0249 19.2261 16.9977 19.2979C16.895 19.5434 16.895 19.5434 16.7123 19.8174C16.6521 19.8174 16.5918 19.8174 16.5297 19.8174C16.5297 19.8776 16.5297 19.9379 16.5297 20C16.3489 20 16.168 20 15.9817 20C15.9817 19.9397 15.9817 19.8795 15.9817 19.8174C15.9215 19.8174 15.8612 19.8174 15.7991 19.8174C15.7991 19.7571 15.7991 19.6968 15.7991 19.6347C15.7388 19.6347 15.6785 19.6347 15.6164 19.6347C15.4224 19.4635 15.4224 19.4635 15.2511 19.2694C15.2511 19.2091 15.2511 19.1489 15.2511 19.0868C15.1909 19.0868 15.1306 19.0868 15.0685 19.0868C15.0685 19.0265 15.0685 18.9662 15.0685 18.9041C15.0082 18.9041 14.9479 18.9041 14.8858 18.9041C14.8858 18.8438 14.8858 18.7836 14.8858 18.7215C14.8256 18.7215 14.7653 18.7215 14.7032 18.7215C14.7032 18.6612 14.7032 18.6009 14.7032 18.5388C14.6486 18.5124 14.5939 18.4861 14.5377 18.4589C14.3379 18.3562 14.3379 18.3562 14.0639 18.1735C14.0639 18.1132 14.0639 18.053 14.0639 17.9909C14.0037 17.9909 13.9434 17.9909 13.8813 17.9909C13.8813 17.9306 13.8813 17.8703 13.8813 17.8082C13.821 17.8082 13.7607 17.8082 13.6986 17.8082C13.6171 17.6828 13.536 17.557 13.4568 17.4301C13.2539 17.1509 13.0003 16.924 12.7497 16.6881C12.6027 16.5297 12.6027 16.5297 12.6027 16.347C12.5425 16.347 12.4822 16.347 12.4201 16.347C12.4201 16.2868 12.4201 16.2265 12.4201 16.1644C12.3598 16.1644 12.2995 16.1644 12.2374 16.1644C12.2374 16.1041 12.2374 16.0438 12.2374 15.9817C12.1772 15.9817 12.1169 15.9817 12.0548 15.9817C12.0548 15.9215 12.0548 15.8612 12.0548 15.7991C11.9945 15.7991 11.9342 15.7991 11.8721 15.7991C11.8721 15.7388 11.8721 15.6785 11.8721 15.6164C11.7516 15.5863 11.6311 15.5562 11.5068 15.5251C11.5068 15.4648 11.5068 15.4046 11.5068 15.3425C11.4466 15.3425 11.3863 15.3425 11.3242 15.3425C11.3242 15.2822 11.3242 15.2219 11.3242 15.1598C11.2639 15.1598 11.2037 15.1598 11.1416 15.1598C10.8154 14.8948 10.7031 14.6481 10.5936 14.2466C10.6539 14.2466 10.7142 14.2466 10.7763 14.2466C10.8026 14.1769 10.829 14.1072 10.8562 14.0354C10.9589 13.79 10.9589 13.79 11.1416 13.516C11.2018 13.516 11.2621 13.516 11.3242 13.516C11.3242 13.4557 11.3242 13.3954 11.3242 13.3333C11.3845 13.3333 11.4447 13.3333 11.5068 13.3333C11.5068 13.2731 11.5068 13.2128 11.5068 13.1507C11.5671 13.1507 11.6274 13.1507 11.6895 13.1507C11.6895 13.0904 11.6895 13.0301 11.6895 12.968C11.7498 12.968 11.81 12.968 11.8721 12.968C11.8721 12.9078 11.8721 12.8475 11.8721 12.7854C11.9324 12.7854 11.9927 12.7854 12.0548 12.7854C12.0548 12.6648 12.0548 12.5443 12.0548 12.4201C11.9945 12.4201 11.9342 12.4201 11.8721 12.4201C11.8721 12.3598 11.8721 12.2995 11.8721 12.2374C11.6913 12.2374 11.5105 12.2374 11.3242 12.2374C11.3242 12.2977 11.3242 12.358 11.3242 12.4201C11.2639 12.4201 11.2037 12.4201 11.1416 12.4201C11.1416 12.4804 11.1416 12.5406 11.1416 12.6027C11.0813 12.6027 11.021 12.6027 10.9589 12.6027C10.9589 12.663 10.9589 12.7233 10.9589 12.7854C10.8986 12.7854 10.8384 12.7854 10.7763 12.7854C10.7763 12.8457 10.7763 12.9059 10.7763 12.968C10.716 12.968 10.6557 12.968 10.5936 12.968C10.5936 13.0283 10.5936 13.0886 10.5936 13.1507C10.5333 13.1507 10.4731 13.1507 10.411 13.1507C10.411 13.211 10.411 13.2712 10.411 13.3333C10.3507 13.3333 10.2904 13.3333 10.2283 13.3333C10.2283 13.3936 10.2283 13.4539 10.2283 13.516C10.168 13.516 10.1078 13.516 10.0457 13.516C10.0457 13.5763 10.0457 13.6365 10.0457 13.6986C9.98539 13.6986 9.92511 13.6986 9.86301 13.6986C9.84041 13.7551 9.81781 13.8116 9.79452 13.8699C9.66153 14.096 9.55451 14.1508 9.31507 14.2466C9.31507 14.3068 9.31507 14.3671 9.31507 14.4292C9.03298 14.6173 8.97631 14.6337 8.65868 14.6233C8.54378 14.6195 8.42888 14.6158 8.3105 14.6119C8.3105 14.5516 8.3105 14.4913 8.3105 14.4292C8.22857 14.3925 8.22857 14.3925 8.14498 14.355C7.94521 14.2466 7.94521 14.2466 7.80822 14.1039C7.64616 13.9486 7.5242 13.9189 7.30594 13.8813C7.19329 14.2192 7.25276 14.3011 7.38584 14.6233C7.81377 15.7531 7.72741 16.8294 7.25564 17.9366C7.11427 18.1896 6.98378 18.3572 6.75799 18.5388C6.17328 18.6883 5.70324 18.4631 5.20548 18.1735C5.20548 18.1132 5.20548 18.053 5.20548 17.9909C5.08493 17.9909 4.96438 17.9909 4.84018 17.9909C4.84018 17.9306 4.84018 17.8703 4.84018 17.8082C4.77991 17.8082 4.71963 17.8082 4.65753 17.8082C4.65753 17.7479 4.65753 17.6877 4.65753 17.6256C4.58408 17.5945 4.58408 17.5945 4.50913 17.5628C4.31242 17.4541 4.18243 17.3475 4.01826 17.1975C3.77629 16.9649 3.77629 16.9649 3.55023 16.992C3.49372 17.0203 3.43721 17.0485 3.379 17.0776C3.31119 17.1096 3.24338 17.1417 3.17352 17.1747C3.12078 17.2029 3.06804 17.2312 3.0137 17.2603C3.0137 17.3205 3.0137 17.3808 3.0137 17.4429C2.95342 17.4429 2.89315 17.4429 2.83105 17.4429C2.83482 17.5258 2.83858 17.6087 2.84247 17.6941C2.83127 17.9851 2.81539 18.1224 2.6484 18.3562C2.37508 18.5384 2.26202 18.5388 1.91781 18.5388C1.91781 18.4785 1.91781 18.4183 1.91781 18.3562C1.8274 18.3562 1.73699 18.3562 1.64384 18.3562C1.64384 18.2959 1.64384 18.2356 1.64384 18.1735C1.58356 18.1735 1.52329 18.1735 1.46119 18.1735C1.46119 17.9324 1.46119 17.6913 1.46119 17.4429C1.52146 17.4429 1.58174 17.4429 1.64384 17.4429C1.64384 17.3826 1.64384 17.3224 1.64384 17.2603C1.70411 17.2603 1.76438 17.2603 1.82648 17.2603C1.82648 17.2 1.82648 17.1397 1.82648 17.0776C1.92443 17.072 2.02237 17.0663 2.12329 17.0605C2.52843 16.9727 2.60198 16.8606 2.83105 16.5297C2.89132 16.5297 2.9516 16.5297 3.0137 16.5297C2.89246 16.1417 2.68482 15.8705 2.44043 15.554C1.42851 14.1933 1.42851 14.1933 1.44977 13.3961C1.45142 13.3155 1.45307 13.2348 1.45477 13.1518C1.45689 13.0911 1.459 13.0305 1.46119 12.968C1.52146 12.968 1.58174 12.968 1.64384 12.968C1.64384 12.9078 1.64384 12.8475 1.64384 12.7854C1.76438 12.7854 1.88493 12.7854 2.00913 12.7854C2.00913 12.7251 2.00913 12.6648 2.00913 12.6027C2.15982 12.6027 2.3105 12.6027 2.46575 12.6027C2.46575 12.5425 2.46575 12.4822 2.46575 12.4201C2.64658 12.4201 2.8274 12.4201 3.0137 12.4201C3.0137 12.3598 3.0137 12.2995 3.0137 12.2374C3.55616 12.2374 4.09863 12.2374 4.65753 12.2374C4.65753 12.2977 4.65753 12.358 4.65753 12.4201C4.83836 12.4201 5.01918 12.4201 5.20548 12.4201C5.20548 12.4804 5.20548 12.5406 5.20548 12.6027C5.32603 12.6027 5.44658 12.6027 5.57078 12.6027C5.57078 12.663 5.57078 12.7233 5.57078 12.7854C5.69132 12.7854 5.81187 12.7854 5.93607 12.7854C5.93607 12.7251 5.93607 12.6648 5.93607 12.6027C5.99635 12.6027 6.05662 12.6027 6.11872 12.6027C6.11872 12.4219 6.11872 12.2411 6.11872 12.0548C5.9379 11.9644 5.9379 11.9644 5.75342 11.8721C5.75342 11.8119 5.75342 11.7516 5.75342 11.6895C5.69315 11.6895 5.63288 11.6895 5.57078 11.6895C5.57078 11.6292 5.57078 11.5689 5.57078 11.5068C5.5105 11.5068 5.45023 11.5068 5.38813 11.5068C5.38813 11.326 5.38813 11.1452 5.38813 10.9589C5.4484 10.9589 5.50868 10.9589 5.57078 10.9589C5.57078 10.8384 5.57078 10.7178 5.57078 10.5936C5.63105 10.5936 5.69132 10.5936 5.75342 10.5936C5.75342 10.5333 5.75342 10.4731 5.75342 10.411C5.90411 10.2873 6.05639 10.1656 6.21005 10.0457C6.24018 9.98539 6.27032 9.92511 6.30137 9.86301C6.36164 9.86301 6.42192 9.86301 6.48402 9.86301C6.48402 9.80274 6.48402 9.74247 6.48402 9.68037C6.6342 9.53553 6.6342 9.53553 6.83219 9.37215C7.03767 9.20222 7.2058 9.05308 7.36408 8.83776C7.40517 8.78431 7.44625 8.73087 7.48858 8.6758C7.54886 8.6758 7.60913 8.6758 7.67123 8.6758C7.68647 8.45512 7.68647 8.45512 7.67123 8.21918C7.61096 8.1589 7.55068 8.09863 7.48858 8.03653C7.16871 8.09067 7.0018 8.20778 6.7637 8.42466C6.70048 8.48175 6.63726 8.53885 6.57213 8.59767C6.42093 8.74046 6.27456 8.88582 6.13014 9.03539C5.93607 9.22374 5.93607 9.22374 5.75342 9.22374C5.75342 9.28402 5.75342 9.34429 5.75342 9.40639C5.63288 9.40639 5.51233 9.40639 5.38813 9.40639C5.38813 9.34612 5.38813 9.28584 5.38813 9.22374C5.32785 9.22374 5.26758 9.22374 5.20548 9.22374C5.20548 9.16347 5.20548 9.1032 5.20548 9.0411C5.14521 9.0411 5.08493 9.0411 5.02283 9.0411C5.02283 8.98082 5.02283 8.92055 5.02283 8.85845C4.96256 8.85845 4.90228 8.85845 4.84018 8.85845C4.84018 8.79817 4.84018 8.7379 4.84018 8.6758C4.77991 8.6758 4.71963 8.6758 4.65753 8.6758C4.65753 8.61553 4.65753 8.55525 4.65753 8.49315C4.59726 8.49315 4.53699 8.49315 4.47489 8.49315C4.47489 8.43288 4.47489 8.3726 4.47489 8.3105C4.41461 8.3105 4.35434 8.3105 4.29224 8.3105C4.29224 8.25023 4.29224 8.18995 4.29224 8.12785C4.23196 8.12785 4.17169 8.12785 4.10959 8.12785C4.10959 8.06758 4.10959 8.00731 4.10959 7.94521C4.04932 7.94521 3.98904 7.94521 3.92694 7.94521C3.92694 7.88493 3.92694 7.82466 3.92694 7.76256C3.86667 7.76256 3.80639 7.76256 3.74429 7.76256C3.74429 7.70228 3.74429 7.64201 3.74429 7.57991C3.68402 7.57991 3.62374 7.57991 3.56164 7.57991C3.56164 7.51963 3.56164 7.45936 3.56164 7.39726C3.41096 7.33699 3.26027 7.27671 3.10502 7.21461C3.10502 7.15434 3.10502 7.09406 3.10502 7.03196C3.04475 7.03196 2.98447 7.03196 2.92237 7.03196C2.92237 6.97169 2.92237 6.91142 2.92237 6.84932C2.8621 6.84932 2.80183 6.84932 2.73973 6.84932C2.73973 6.78904 2.73973 6.72877 2.73973 6.66667C2.67945 6.66667 2.61918 6.66667 2.55708 6.66667C2.55708 6.60639 2.55708 6.54612 2.55708 6.48402C2.4968 6.48402 2.43653 6.48402 2.37443 6.48402C2.37443 6.42374 2.37443 6.36347 2.37443 6.30137C2.31416 6.30137 2.25388 6.30137 2.19178 6.30137C2.19178 6.2411 2.19178 6.18082 2.19178 6.11872C2.13151 6.11872 2.07123 6.11872 2.00913 6.11872C2.00913 6.05845 2.00913 5.99817 2.00913 5.93607C1.94886 5.93607 1.88858 5.93607 1.82648 5.93607C1.82648 5.8758 1.82648 5.81553 1.82648 5.75342C1.76621 5.75342 1.70594 5.75342 1.64384 5.75342C1.49579 5.60324 1.49579 5.60324 1.32991 5.40525C1.09832 5.13017 1.09832 5.13017 0.847246 4.87336C0.730594 4.74886 0.730594 4.74886 0.730594 4.56621C0.674087 4.53796 0.61758 4.5097 0.559361 4.48059C0.43379 4.41781 0.308219 4.35502 0.182648 4.29224C0.182648 4.20183 0.182648 4.11142 0.182648 4.01826C0.122374 4.01826 0.0621005 4.01826 0 4.01826C0 3.89772 0 3.77717 0 3.65297C0.060274 3.65297 0.120548 3.65297 0.182648 3.65297C0.182648 3.59269 0.182648 3.53242 0.182648 3.47032C0.242922 3.47032 0.303196 3.47032 0.365297 3.47032C0.365297 3.41005 0.365297 3.34977 0.365297 3.28767C0.425571 3.28767 0.485845 3.28767 0.547945 3.28767C0.547945 3.2274 0.547945 3.16712 0.547945 3.10502C0.608219 3.10502 0.668493 3.10502 0.730594 3.10502C0.730594 3.04475 0.730594 2.98447 0.730594 2.92237C0.790868 2.92237 0.851142 2.92237 0.913242 2.92237C0.913242 2.8621 0.913242 2.80183 0.913242 2.73973C1.06664 2.59168 1.06664 2.59168 1.26712 2.4258C1.50337 2.22977 1.65405 2.08514 1.82648 1.82648C1.88676 1.82648 1.94703 1.82648 2.00913 1.82648C2.00913 1.76621 2.00913 1.70594 2.00913 1.64384C2.06941 1.64384 2.12968 1.64384 2.19178 1.64384C2.19178 1.58356 2.19178 1.52329 2.19178 1.46119C2.25205 1.46119 2.31233 1.46119 2.37443 1.46119C2.37443 1.40091 2.37443 1.34064 2.37443 1.27854C2.4347 1.27854 2.49498 1.27854 2.55708 1.27854C2.55708 1.21826 2.55708 1.15799 2.55708 1.09589C2.61735 1.09589 2.67763 1.09589 2.73973 1.09589C2.76986 0.975342 2.8 0.854795 2.83105 0.730594C2.89132 0.730594 2.9516 0.730594 3.0137 0.730594C3.0137 0.67032 3.0137 0.610046 3.0137 0.547945C3.10411 0.547945 3.19452 0.547945 3.28767 0.547945C3.28767 0.487671 3.28767 0.427397 3.28767 0.365297C3.34795 0.365297 3.40822 0.365297 3.47032 0.365297C3.47032 0.305023 3.47032 0.244749 3.47032 0.182648C3.56073 0.182648 3.65114 0.182648 3.74429 0.182648C3.74429 0.122374 3.74429 0.0621005 3.74429 0ZM3.74429 1.09589C3.74429 1.15616 3.74429 1.21644 3.74429 1.27854C3.68402 1.27854 3.62374 1.27854 3.56164 1.27854C3.56164 1.33881 3.56164 1.39909 3.56164 1.46119C3.50137 1.46119 3.4411 1.46119 3.379 1.46119C3.379 1.52146 3.379 1.58174 3.379 1.64384C3.31872 1.64384 3.25845 1.64384 3.19635 1.64384C3.19635 1.70411 3.19635 1.76438 3.19635 1.82648C3.13607 1.82648 3.0758 1.82648 3.0137 1.82648C3.0137 1.88676 3.0137 1.94703 3.0137 2.00913C2.95342 2.00913 2.89315 2.00913 2.83105 2.00913C2.83105 2.12968 2.83105 2.25023 2.83105 2.37443C2.89132 2.37443 2.9516 2.37443 3.0137 2.37443C3.0137 2.4347 3.0137 2.49498 3.0137 2.55708C3.16323 2.72603 3.16323 2.72603 3.35616 2.89384C3.41973 2.95258 3.4833 3.01132 3.5488 3.07185C3.73531 3.21998 3.73531 3.21998 3.9512 3.16959C4.00347 3.14828 4.05574 3.12698 4.10959 3.10502C4.10959 3.04475 4.10959 2.98447 4.10959 2.92237C4.16986 2.92237 4.23014 2.92237 4.29224 2.92237C4.29224 2.8621 4.29224 2.80183 4.29224 2.73973C4.35251 2.73973 4.41279 2.73973 4.47489 2.73973C4.47489 2.67945 4.47489 2.61918 4.47489 2.55708C4.53516 2.55708 4.59543 2.55708 4.65753 2.55708C4.65753 2.4968 4.65753 2.43653 4.65753 2.37443C4.71781 2.37443 4.77808 2.37443 4.84018 2.37443C4.84018 2.31416 4.84018 2.25388 4.84018 2.19178C4.90046 2.19178 4.96073 2.19178 5.02283 2.19178C5.02283 2.07123 5.02283 1.95069 5.02283 1.82648C4.96256 1.82648 4.90228 1.82648 4.84018 1.82648C4.84018 1.76621 4.84018 1.70594 4.84018 1.64384C4.77991 1.64384 4.71963 1.64384 4.65753 1.64384C4.65753 1.58356 4.65753 1.52329 4.65753 1.46119C4.59726 1.46119 4.53699 1.46119 4.47489 1.46119C4.47489 1.40091 4.47489 1.34064 4.47489 1.27854C4.38447 1.27854 4.29406 1.27854 4.20091 1.27854C4.20091 1.21826 4.20091 1.15799 4.20091 1.09589C4.05023 1.09589 3.89954 1.09589 3.74429 1.09589ZM13.516 1.27854C13.3942 1.55251 13.3942 1.55251 13.516 1.82648C13.5763 1.82648 13.6365 1.82648 13.6986 1.82648C13.7118 1.88299 13.725 1.9395 13.7386 1.99772C13.7837 2.19476 13.7837 2.19476 13.8813 2.37443C13.9416 2.37443 14.0018 2.37443 14.0639 2.37443C14.0858 2.44012 14.1077 2.50581 14.1303 2.57349C14.2636 2.86883 14.427 3.06104 14.6461 3.29909C14.7165 3.37655 14.7869 3.45401 14.8594 3.53382C15.0419 3.71749 15.2221 3.87035 15.4338 4.01826C15.6201 3.89377 15.6201 3.89377 15.7991 3.74429C15.7991 3.68402 15.7991 3.62374 15.7991 3.56164C15.8594 3.56164 15.9196 3.56164 15.9817 3.56164C15.9817 3.50137 15.9817 3.4411 15.9817 3.379C16.042 3.379 16.1023 3.379 16.1644 3.379C16.1644 3.31872 16.1644 3.25845 16.1644 3.19635C16.2247 3.16621 16.2849 3.13607 16.347 3.10502C16.2293 2.97939 16.1071 2.85775 15.9817 2.73973C15.9215 2.73973 15.8612 2.73973 15.7991 2.73973C15.7991 2.67945 15.7991 2.61918 15.7991 2.55708C15.7388 2.55708 15.6785 2.55708 15.6164 2.55708C15.6164 2.4968 15.6164 2.43653 15.6164 2.37443C15.526 2.37443 15.4356 2.37443 15.3425 2.37443C15.3425 2.31416 15.3425 2.25388 15.3425 2.19178C15.2521 2.19178 15.1616 2.19178 15.0685 2.19178C15.0685 2.13151 15.0685 2.07123 15.0685 2.00913C14.9781 2.00913 14.8877 2.00913 14.7945 2.00913C14.7945 1.94886 14.7945 1.88858 14.7945 1.82648C14.7041 1.82648 14.6137 1.82648 14.5205 1.82648C14.5205 1.76621 14.5205 1.70594 14.5205 1.64384C14.4 1.64384 14.2795 1.64384 14.1553 1.64384C14.1553 1.58356 14.1553 1.52329 14.1553 1.46119C14.0046 1.46119 13.8539 1.46119 13.6986 1.46119C13.6986 1.40091 13.6986 1.34064 13.6986 1.27854C13.6384 1.27854 13.5781 1.27854 13.516 1.27854ZM5.38813 2.73973C5.38813 2.8 5.38813 2.86027 5.38813 2.92237C5.32785 2.92237 5.26758 2.92237 5.20548 2.92237C5.20548 2.98265 5.20548 3.04292 5.20548 3.10502C5.14521 3.10502 5.08493 3.10502 5.02283 3.10502C5.02283 3.1653 5.02283 3.22557 5.02283 3.28767C4.96256 3.28767 4.90228 3.28767 4.84018 3.28767C4.84018 3.34795 4.84018 3.40822 4.84018 3.47032C4.65936 3.56073 4.65936 3.56073 4.47489 3.65297C4.47489 3.74338 4.47489 3.83379 4.47489 3.92694C4.53516 3.92694 4.59543 3.92694 4.65753 3.92694C4.65753 3.98721 4.65753 4.04749 4.65753 4.10959C4.71781 4.10959 4.77808 4.10959 4.84018 4.10959C4.84018 4.16986 4.84018 4.23014 4.84018 4.29224C4.90046 4.29224 4.96073 4.29224 5.02283 4.29224C5.02283 4.35251 5.02283 4.41279 5.02283 4.47489C5.0831 4.47489 5.14338 4.47489 5.20548 4.47489C5.20548 4.53516 5.20548 4.59543 5.20548 4.65753C5.26575 4.65753 5.32603 4.65753 5.38813 4.65753C5.38813 4.71781 5.38813 4.77808 5.38813 4.84018C5.4484 4.84018 5.50868 4.84018 5.57078 4.84018C5.57078 4.90046 5.57078 4.96073 5.57078 5.02283C5.86077 4.99176 5.93815 4.92925 6.14155 4.7089C6.31854 4.49698 6.31854 4.49698 6.30137 4.29224C6.42192 4.23196 6.54247 4.17169 6.66667 4.10959C6.66667 4.04932 6.66667 3.98904 6.66667 3.92694C6.72694 3.92694 6.78721 3.92694 6.84932 3.92694C6.78904 3.77626 6.72877 3.62557 6.66667 3.47032C6.60639 3.47032 6.54612 3.47032 6.48402 3.47032C6.48402 3.41005 6.48402 3.34977 6.48402 3.28767C6.42374 3.28767 6.36347 3.28767 6.30137 3.28767C6.30137 3.2274 6.30137 3.16712 6.30137 3.10502C6.2411 3.10502 6.18082 3.10502 6.11872 3.10502C6.11872 3.04475 6.11872 2.98447 6.11872 2.92237C6.05845 2.92237 5.99817 2.92237 5.93607 2.92237C5.93607 2.8621 5.93607 2.80183 5.93607 2.73973C5.65761 2.64739 5.65761 2.64739 5.38813 2.73973ZM2.00913 2.73973C2.00913 2.8 2.00913 2.86027 2.00913 2.92237C1.94886 2.92237 1.88858 2.92237 1.82648 2.92237C1.82648 2.98265 1.82648 3.04292 1.82648 3.10502C1.76621 3.10502 1.70594 3.10502 1.64384 3.10502C1.64384 3.1653 1.64384 3.22557 1.64384 3.28767C1.58356 3.28767 1.52329 3.28767 1.46119 3.28767C1.46119 3.34795 1.46119 3.40822 1.46119 3.47032C1.40091 3.47032 1.34064 3.47032 1.27854 3.47032C1.27854 3.53059 1.27854 3.59087 1.27854 3.65297C1.21826 3.65297 1.15799 3.65297 1.09589 3.65297C1.06575 3.74338 1.03562 3.83379 1.00457 3.92694C1.11736 4.13062 1.11736 4.13062 1.27854 4.29224C1.33881 4.29224 1.39909 4.29224 1.46119 4.29224C1.46119 4.35251 1.46119 4.41279 1.46119 4.47489C1.52146 4.47489 1.58174 4.47489 1.64384 4.47489C1.64384 4.53516 1.64384 4.59543 1.64384 4.65753C1.70411 4.65753 1.76438 4.65753 1.82648 4.65753C1.82648 4.71781 1.82648 4.77808 1.82648 4.84018C1.9169 4.87032 2.00731 4.90046 2.10046 4.93151C2.16073 4.90137 2.221 4.87123 2.28311 4.84018C2.28311 4.77991 2.28311 4.71963 2.28311 4.65753C2.35656 4.62928 2.35656 4.62928 2.43151 4.60046C2.73135 4.42687 2.98556 4.20307 3.19635 3.92694C3.19635 3.83653 3.19635 3.74612 3.19635 3.65297C3.13607 3.65297 3.0758 3.65297 3.0137 3.65297C3.0137 3.59269 3.0137 3.53242 3.0137 3.47032C2.95342 3.47032 2.89315 3.47032 2.83105 3.47032C2.83105 3.41005 2.83105 3.34977 2.83105 3.28767C2.77078 3.28767 2.7105 3.28767 2.6484 3.28767C2.6484 3.2274 2.6484 3.16712 2.6484 3.10502C2.58813 3.10502 2.52785 3.10502 2.46575 3.10502C2.46575 3.04475 2.46575 2.98447 2.46575 2.92237C2.40548 2.92237 2.34521 2.92237 2.28311 2.92237C2.28311 2.8621 2.28311 2.80183 2.28311 2.73973C2.19269 2.73973 2.10228 2.73973 2.00913 2.73973ZM16.5297 3.83562C16.5297 3.89589 16.5297 3.95616 16.5297 4.01826C16.347 4.10959 16.1644 4.20091 15.9817 4.29224C16.0416 4.62191 16.0416 4.62191 16.1644 4.93151C16.2247 4.93151 16.2849 4.93151 16.347 4.93151C16.347 4.99178 16.347 5.05205 16.347 5.11416C16.4073 5.11416 16.4676 5.11416 16.5297 5.11416C16.5297 5.17443 16.5297 5.2347 16.5297 5.2968C16.6502 5.32694 16.7708 5.35708 16.895 5.38813C16.895 5.4484 16.895 5.50868 16.895 5.57078C16.9553 5.57078 17.0155 5.57078 17.0776 5.57078C17.0776 5.63105 17.0776 5.69132 17.0776 5.75342C17.1379 5.75342 17.1982 5.75342 17.2603 5.75342C17.2603 5.8137 17.2603 5.87397 17.2603 5.93607C17.3808 5.93607 17.5014 5.93607 17.6256 5.93607C17.6256 5.99635 17.6256 6.05662 17.6256 6.11872C17.6858 6.11872 17.7461 6.11872 17.8082 6.11872C17.8082 6.179 17.8082 6.23927 17.8082 6.30137C17.9288 6.30137 18.0493 6.30137 18.1735 6.30137C18.1735 6.36164 18.1735 6.42192 18.1735 6.48402C18.3242 6.48402 18.4749 6.48402 18.6301 6.48402C18.6 6.3032 18.5699 6.12237 18.5388 5.93607C18.4785 5.93607 18.4183 5.93607 18.3562 5.93607C18.3562 5.81553 18.3562 5.69498 18.3562 5.57078C18.2959 5.57078 18.2356 5.57078 18.1735 5.57078C18.1735 5.48037 18.1735 5.38995 18.1735 5.2968C18.1132 5.2968 18.053 5.2968 17.9909 5.2968C17.9909 5.20639 17.9909 5.11598 17.9909 5.02283C17.9306 5.02283 17.8703 5.02283 17.8082 5.02283C17.8082 4.93242 17.8082 4.84201 17.8082 4.74886C17.7479 4.74886 17.6877 4.74886 17.6256 4.74886C17.6256 4.65845 17.6256 4.56804 17.6256 4.47489C17.5653 4.47489 17.505 4.47489 17.4429 4.47489C17.4429 4.41461 17.4429 4.35434 17.4429 4.29224C17.3826 4.29224 17.3224 4.29224 17.2603 4.29224C17.2603 4.20183 17.2603 4.11142 17.2603 4.01826C17.2 4.01826 17.1397 4.01826 17.0776 4.01826C17.0776 3.95799 17.0776 3.89772 17.0776 3.83562C16.7992 3.74328 16.7992 3.74328 16.5297 3.83562ZM3.74429 4.38356C3.74429 4.44384 3.74429 4.50411 3.74429 4.56621C3.68402 4.56621 3.62374 4.56621 3.56164 4.56621C3.31811 4.7793 3.31811 4.7793 3.10502 5.02283C3.10502 5.0831 3.10502 5.14338 3.10502 5.20548C3.04475 5.20548 2.98447 5.20548 2.92237 5.20548C2.92237 5.26575 2.92237 5.32603 2.92237 5.38813C2.8621 5.38813 2.80183 5.38813 2.73973 5.38813C2.76986 5.53881 2.8 5.6895 2.83105 5.84475C2.92146 5.87489 3.01187 5.90502 3.10502 5.93607C3.21347 6.12443 3.21347 6.12443 3.28767 6.30137C3.34795 6.30137 3.40822 6.30137 3.47032 6.30137C3.53059 6.42192 3.59087 6.54247 3.65297 6.66667C3.80365 6.66667 3.95434 6.66667 4.10959 6.66667C4.10959 6.60639 4.10959 6.54612 4.10959 6.48402C4.16986 6.48402 4.23014 6.48402 4.29224 6.48402C4.29224 6.42374 4.29224 6.36347 4.29224 6.30137C4.35251 6.30137 4.41279 6.30137 4.47489 6.30137C4.47489 6.2411 4.47489 6.18082 4.47489 6.11872C4.53516 6.11872 4.59543 6.11872 4.65753 6.11872C4.65753 6.05845 4.65753 5.99817 4.65753 5.93607C4.71781 5.93607 4.77808 5.93607 4.84018 5.93607C4.84018 5.8758 4.84018 5.81553 4.84018 5.75342C4.90046 5.75342 4.96073 5.75342 5.02283 5.75342C5.02283 5.63288 5.02283 5.51233 5.02283 5.38813C4.96256 5.38813 4.90228 5.38813 4.84018 5.38813C4.84018 5.32785 4.84018 5.26758 4.84018 5.20548C4.77991 5.20548 4.71963 5.20548 4.65753 5.20548C4.65753 5.14521 4.65753 5.08493 4.65753 5.02283C4.59726 5.02283 4.53699 5.02283 4.47489 5.02283C4.47489 4.96256 4.47489 4.90228 4.47489 4.84018C4.41461 4.84018 4.35434 4.84018 4.29224 4.84018C4.29224 4.77991 4.29224 4.71963 4.29224 4.65753C4.23196 4.65753 4.17169 4.65753 4.10959 4.65753C4.10959 4.59726 4.10959 4.53699 4.10959 4.47489C3.98904 4.44475 3.86849 4.41461 3.74429 4.38356ZM7.03196 4.65753C7.03196 4.71781 7.03196 4.77808 7.03196 4.84018C6.97169 4.84018 6.91142 4.84018 6.84932 4.84018C6.84932 4.90046 6.84932 4.96073 6.84932 5.02283C6.78904 5.02283 6.72877 5.02283 6.66667 5.02283C6.66667 5.0831 6.66667 5.14338 6.66667 5.20548C6.60639 5.20548 6.54612 5.20548 6.48402 5.20548C6.48402 5.26575 6.48402 5.32603 6.48402 5.38813C6.42374 5.38813 6.36347 5.38813 6.30137 5.38813C6.30137 5.50868 6.30137 5.62922 6.30137 5.75342C6.36164 5.75342 6.42192 5.75342 6.48402 5.75342C6.48402 5.8137 6.48402 5.87397 6.48402 5.93607C6.54429 5.93607 6.60457 5.93607 6.66667 5.93607C6.66667 5.99635 6.66667 6.05662 6.66667 6.11872C6.72694 6.11872 6.78721 6.11872 6.84932 6.11872C6.84932 6.179 6.84932 6.23927 6.84932 6.30137C6.90959 6.30137 6.96986 6.30137 7.03196 6.30137C7.03196 6.36164 7.03196 6.42192 7.03196 6.48402C7.09224 6.48402 7.15251 6.48402 7.21461 6.48402C7.21461 6.54429 7.21461 6.60457 7.21461 6.66667C7.30502 6.66667 7.39543 6.66667 7.48858 6.66667C7.48858 6.60639 7.48858 6.54612 7.48858 6.48402C7.54886 6.48402 7.60913 6.48402 7.67123 6.48402C7.67123 6.42374 7.67123 6.36347 7.67123 6.30137C7.73151 6.30137 7.79178 6.30137 7.85388 6.30137C7.85388 6.2411 7.85388 6.18082 7.85388 6.11872C7.91416 6.11872 7.97443 6.11872 8.03653 6.11872C8.03653 6.05845 8.03653 5.99817 8.03653 5.93607C8.0968 5.93607 8.15708 5.93607 8.21918 5.93607C8.21918 5.8758 8.21918 5.81553 8.21918 5.75342C8.27945 5.75342 8.33973 5.75342 8.40183 5.75342C8.43196 5.63288 8.4621 5.51233 8.49315 5.38813C8.3475 5.2351 8.20081 5.08308 8.05365 4.93151C7.97207 4.84675 7.89049 4.76199 7.80644 4.67466C7.4837 4.39004 7.38505 4.42215 7.03196 4.65753ZM5.38813 6.30137C5.38813 6.36164 5.38813 6.42192 5.38813 6.48402C5.32785 6.48402 5.26758 6.48402 5.20548 6.48402C5.20548 6.54429 5.20548 6.60457 5.20548 6.66667C5.14521 6.66667 5.08493 6.66667 5.02283 6.66667C5.02283 6.72694 5.02283 6.78721 5.02283 6.84932C4.96256 6.84932 4.90228 6.84932 4.84018 6.84932C4.84018 6.90959 4.84018 6.96986 4.84018 7.03196C4.77991 7.03196 4.71963 7.03196 4.65753 7.03196C4.65753 7.09224 4.65753 7.15251 4.65753 7.21461C4.59726 7.21461 4.53699 7.21461 4.47489 7.21461C4.52615 7.53764 4.62973 7.67056 4.88014 7.87671C4.93653 7.92427 4.99292 7.97183 5.05101 8.02083C5.19918 8.14519 5.19918 8.14519 5.38813 8.12785C5.38813 8.18813 5.38813 8.2484 5.38813 8.3105C5.50868 8.34064 5.62922 8.37078 5.75342 8.40183C5.75342 8.34155 5.75342 8.28128 5.75342 8.21918C5.93607 8.12785 6.11872 8.03653 6.30137 7.94521C6.30137 7.88493 6.30137 7.82466 6.30137 7.76256C6.36164 7.76256 6.42192 7.76256 6.48402 7.76256C6.48402 7.70228 6.48402 7.64201 6.48402 7.57991C6.54429 7.57991 6.60457 7.57991 6.66667 7.57991C6.75901 7.30145 6.75901 7.30145 6.66667 7.03196C6.60639 7.03196 6.54612 7.03196 6.48402 7.03196C6.48402 6.97169 6.48402 6.91142 6.48402 6.84932C6.42374 6.84932 6.36347 6.84932 6.30137 6.84932C6.30137 6.78904 6.30137 6.72877 6.30137 6.66667C6.06267 6.43479 5.9243 6.30844 5.5879 6.27854C5.48901 6.28984 5.48901 6.28984 5.38813 6.30137ZM10.9589 6.66667C10.9589 6.78721 10.9589 6.90776 10.9589 7.03196C11.0795 7.03196 11.2 7.03196 11.3242 7.03196C11.3242 6.91142 11.3242 6.79087 11.3242 6.66667C11.2037 6.66667 11.0831 6.66667 10.9589 6.66667ZM6.84932 10.411C6.87945 10.5014 6.90959 10.5918 6.94064 10.6849C6.94064 10.5945 6.94064 10.5041 6.94064 10.411C6.9105 10.411 6.88037 10.411 6.84932 10.411ZM14.3379 11.5068C14.3379 11.5671 14.3379 11.6274 14.3379 11.6895C14.2776 11.6895 14.2174 11.6895 14.1553 11.6895C14.1553 11.7498 14.1553 11.81 14.1553 11.8721C14.095 11.8721 14.0347 11.8721 13.9726 11.8721C13.9726 11.9324 13.9726 11.9927 13.9726 12.0548C13.9123 12.0548 13.8521 12.0548 13.79 12.0548C13.79 12.1151 13.79 12.1753 13.79 12.2374C13.7297 12.2374 13.6694 12.2374 13.6073 12.2374C13.6073 12.2977 13.6073 12.358 13.6073 12.4201C13.5169 12.4502 13.4265 12.4804 13.3333 12.5114C13.3333 12.6018 13.3333 12.6922 13.3333 12.7854C13.3936 12.7854 13.4539 12.7854 13.516 12.7854C13.516 12.8457 13.516 12.9059 13.516 12.968C13.5763 12.968 13.6365 12.968 13.6986 12.968C13.6986 13.0283 13.6986 13.0886 13.6986 13.1507C13.7589 13.1507 13.8192 13.1507 13.8813 13.1507C13.8813 13.211 13.8813 13.2712 13.8813 13.3333C13.9717 13.3333 14.0621 13.3333 14.1553 13.3333C14.1553 13.3936 14.1553 13.4539 14.1553 13.516C14.2758 13.5763 14.3963 13.6365 14.5205 13.6986C14.5205 13.6384 14.5205 13.5781 14.5205 13.516C14.5808 13.516 14.6411 13.516 14.7032 13.516C14.7032 13.4557 14.7032 13.3954 14.7032 13.3333C14.7635 13.3333 14.8237 13.3333 14.8858 13.3333C14.8858 13.2731 14.8858 13.2128 14.8858 13.1507C14.9461 13.1507 15.0064 13.1507 15.0685 13.1507C15.0685 13.0904 15.0685 13.0301 15.0685 12.968C15.1288 12.968 15.189 12.968 15.2511 12.968C15.2511 12.9078 15.2511 12.8475 15.2511 12.7854C15.3114 12.7854 15.3717 12.7854 15.4338 12.7854C15.5261 12.5069 15.5261 12.5069 15.4338 12.2374C15.3735 12.2374 15.3132 12.2374 15.2511 12.2374C15.2511 12.1772 15.2511 12.1169 15.2511 12.0548C15.1909 12.0548 15.1306 12.0548 15.0685 12.0548C15.0685 11.9945 15.0685 11.9342 15.0685 11.8721C15.0082 11.8721 14.9479 11.8721 14.8858 11.8721C14.8858 11.8119 14.8858 11.7516 14.8858 11.6895C14.8256 11.6895 14.7653 11.6895 14.7032 11.6895C14.7032 11.6292 14.7032 11.5689 14.7032 11.5068C14.5826 11.5068 14.4621 11.5068 14.3379 11.5068ZM8.94977 12.968C8.91963 13.0886 8.8895 13.2091 8.85845 13.3333C8.94886 13.3333 9.03927 13.3333 9.13242 13.3333C9.13242 13.2731 9.13242 13.2128 9.13242 13.1507C9.19269 13.1507 9.25297 13.1507 9.31507 13.1507C9.31507 13.0904 9.31507 13.0301 9.31507 12.968C9.19452 12.968 9.07397 12.968 8.94977 12.968ZM15.9817 13.1507C15.9817 13.211 15.9817 13.2712 15.9817 13.3333C15.9215 13.3333 15.8612 13.3333 15.7991 13.3333C15.7991 13.3936 15.7991 13.4539 15.7991 13.516C15.7388 13.516 15.6785 13.516 15.6164 13.516C15.6164 13.5763 15.6164 13.6365 15.6164 13.6986C15.5562 13.6986 15.4959 13.6986 15.4338 13.6986C15.4338 13.7589 15.4338 13.8192 15.4338 13.8813C15.3735 13.8813 15.3132 13.8813 15.2511 13.8813C15.2511 13.9416 15.2511 14.0018 15.2511 14.0639C15.1909 14.0639 15.1306 14.0639 15.0685 14.0639C15.0685 14.1845 15.0685 14.305 15.0685 14.4292C15.1288 14.4292 15.189 14.4292 15.2511 14.4292C15.2511 14.4895 15.2511 14.5498 15.2511 14.6119C15.3114 14.6119 15.3717 14.6119 15.4338 14.6119C15.4338 14.6721 15.4338 14.7324 15.4338 14.7945C15.4941 14.7945 15.5543 14.7945 15.6164 14.7945C15.6164 14.8548 15.6164 14.9151 15.6164 14.9772C15.6767 14.9772 15.737 14.9772 15.7991 14.9772C15.7991 15.0374 15.7991 15.0977 15.7991 15.1598C15.8594 15.1598 15.9196 15.1598 15.9817 15.1598C15.9817 15.2201 15.9817 15.2804 15.9817 15.3425C16.2602 15.4348 16.2602 15.4348 16.5297 15.3425C16.5297 15.2822 16.5297 15.2219 16.5297 15.1598C16.59 15.1598 16.6502 15.1598 16.7123 15.1598C16.7123 15.0995 16.7123 15.0393 16.7123 14.9772C16.7726 14.9772 16.8329 14.9772 16.895 14.9772C16.895 14.9169 16.895 14.8566 16.895 14.7945C16.9553 14.7945 17.0155 14.7945 17.0776 14.7945C17.0776 14.7342 17.0776 14.674 17.0776 14.6119C17.1379 14.6119 17.1982 14.6119 17.2603 14.6119C17.2603 14.5516 17.2603 14.4913 17.2603 14.4292C17.3205 14.4292 17.3808 14.4292 17.4429 14.4292C17.4429 14.369 17.4429 14.3087 17.4429 14.2466C17.3826 14.2466 17.3224 14.2466 17.2603 14.2466C17.2603 14.1863 17.2603 14.126 17.2603 14.0639C17.2 14.0639 17.1397 14.0639 17.0776 14.0639C17.0776 14.0037 17.0776 13.9434 17.0776 13.8813C17.0174 13.8813 16.9571 13.8813 16.895 13.8813C16.895 13.821 16.895 13.7607 16.895 13.6986C16.8347 13.6986 16.7744 13.6986 16.7123 13.6986C16.7123 13.6384 16.7123 13.5781 16.7123 13.516C16.6521 13.516 16.5918 13.516 16.5297 13.516C16.5297 13.4557 16.5297 13.3954 16.5297 13.3333C16.4694 13.3333 16.4091 13.3333 16.347 13.3333C16.347 13.2731 16.347 13.2128 16.347 13.1507C16.2265 13.1507 16.1059 13.1507 15.9817 13.1507ZM12.4201 13.3333C12.4201 13.3936 12.4201 13.4539 12.4201 13.516C12.3598 13.516 12.2995 13.516 12.2374 13.516C12.2374 13.5763 12.2374 13.6365 12.2374 13.6986C12.1772 13.6986 12.1169 13.6986 12.0548 13.6986C12.0548 13.7589 12.0548 13.8192 12.0548 13.8813C11.9945 13.8813 11.9342 13.8813 11.8721 13.8813C11.8721 13.9416 11.8721 14.0018 11.8721 14.0639C11.8119 14.0639 11.7516 14.0639 11.6895 14.0639C11.6895 14.2447 11.6895 14.4256 11.6895 14.6119C11.7498 14.6119 11.81 14.6119 11.8721 14.6119C11.8721 14.6721 11.8721 14.7324 11.8721 14.7945C11.9324 14.7945 11.9927 14.7945 12.0548 14.7945C12.0548 14.8548 12.0548 14.9151 12.0548 14.9772C12.1151 14.9772 12.1753 14.9772 12.2374 14.9772C12.2374 15.0374 12.2374 15.0977 12.2374 15.1598C12.2977 15.1598 12.358 15.1598 12.4201 15.1598C12.4201 15.2201 12.4201 15.2804 12.4201 15.3425C12.5406 15.3726 12.6612 15.4027 12.7854 15.4338C12.8925 15.3316 12.9989 15.2287 13.105 15.1256C13.1644 15.0684 13.2237 15.0111 13.2848 14.9522C13.4449 14.8069 13.4449 14.8069 13.4247 14.6119C13.4849 14.6119 13.5452 14.6119 13.6073 14.6119C13.6073 14.5516 13.6073 14.4913 13.6073 14.4292C13.6676 14.4292 13.7279 14.4292 13.79 14.4292C13.7598 14.3087 13.7297 14.1881 13.6986 14.0639C13.6384 14.0639 13.5781 14.0639 13.516 14.0639C13.516 14.0037 13.516 13.9434 13.516 13.8813C13.4557 13.8813 13.3954 13.8813 13.3333 13.8813C13.3333 13.821 13.3333 13.7607 13.3333 13.6986C13.2731 13.6986 13.2128 13.6986 13.1507 13.6986C13.1507 13.6384 13.1507 13.5781 13.1507 13.516C13.0904 13.516 13.0301 13.516 12.968 13.516C12.968 13.4557 12.968 13.3954 12.968 13.3333C12.7872 13.3333 12.6064 13.3333 12.4201 13.3333ZM2.00913 13.516C2.14094 13.997 2.36317 14.3553 2.64269 14.7603C2.68313 14.8201 2.72357 14.8799 2.76523 14.9415C2.96303 15.2327 3.16431 15.5199 3.379 15.7991C3.68718 15.7491 3.84314 15.7027 4.10959 15.5251C4.10959 15.4648 4.10959 15.4046 4.10959 15.3425C4.16986 15.3425 4.23014 15.3425 4.29224 15.3425C4.23679 14.8434 3.80955 14.5729 3.4532 14.2637C3.22655 14.0452 3.22655 14.0452 3.0137 14.0639C3.0137 14.0037 3.0137 13.9434 3.0137 13.8813C2.95342 13.8813 2.89315 13.8813 2.83105 13.8813C2.83105 13.821 2.83105 13.7607 2.83105 13.6986C2.7105 13.6986 2.58995 13.6986 2.46575 13.6986C2.46575 13.6384 2.46575 13.5781 2.46575 13.516C2.31507 13.516 2.16438 13.516 2.00913 13.516ZM14.2466 14.9772C14.2466 15.0374 14.2466 15.0977 14.2466 15.1598C14.1863 15.1598 14.126 15.1598 14.0639 15.1598C14.0639 15.2201 14.0639 15.2804 14.0639 15.3425C14.0037 15.3425 13.9434 15.3425 13.8813 15.3425C13.8813 15.4027 13.8813 15.463 13.8813 15.5251C13.821 15.5251 13.7607 15.5251 13.6986 15.5251C13.6986 15.5854 13.6986 15.6457 13.6986 15.7078C13.6384 15.7078 13.5781 15.7078 13.516 15.7078C13.516 15.768 13.516 15.8283 13.516 15.8904C13.4557 15.8904 13.3954 15.8904 13.3333 15.8904C13.3333 16.011 13.3333 16.1315 13.3333 16.2557C13.5708 16.4801 13.5708 16.4801 13.8813 16.5297C13.8813 16.59 13.8813 16.6502 13.8813 16.7123C13.9416 16.7123 14.0018 16.7123 14.0639 16.7123C14.0639 16.7726 14.0639 16.8329 14.0639 16.895C14.1242 16.895 14.1845 16.895 14.2466 16.895C14.2466 16.9553 14.2466 17.0155 14.2466 17.0776C14.3068 17.0776 14.3671 17.0776 14.4292 17.0776C14.4594 17.1379 14.4895 17.1982 14.5205 17.2603C15.0842 16.775 15.0842 16.775 15.6164 16.2557C15.5619 15.9505 15.4579 15.7567 15.2511 15.5251C15.1909 15.5251 15.1306 15.5251 15.0685 15.5251C15.0685 15.4648 15.0685 15.4046 15.0685 15.3425C15.0082 15.3425 14.9479 15.3425 14.8858 15.3425C14.8858 15.2822 14.8858 15.2219 14.8858 15.1598C14.6161 14.9434 14.6161 14.9434 14.2466 14.9772ZM17.9909 14.9772C17.9909 15.0374 17.9909 15.0977 17.9909 15.1598C17.9306 15.1598 17.8703 15.1598 17.8082 15.1598C17.8082 15.2201 17.8082 15.2804 17.8082 15.3425C17.7479 15.3425 17.6877 15.3425 17.6256 15.3425C17.6256 15.4027 17.6256 15.463 17.6256 15.5251C17.5728 15.5326 17.5201 15.5402 17.4658 15.5479C17.1984 15.6371 17.0728 15.7658 16.895 15.9817C16.895 16.0721 16.895 16.1626 16.895 16.2557C16.9553 16.2557 17.0155 16.2557 17.0776 16.2557C17.0776 16.316 17.0776 16.3763 17.0776 16.4384C17.1379 16.4384 17.1982 16.4384 17.2603 16.4384C17.2603 16.5288 17.2603 16.6192 17.2603 16.7123C17.3808 16.7425 17.5014 16.7726 17.6256 16.8037C17.6256 16.8639 17.6256 16.9242 17.6256 16.9863C17.6858 16.9863 17.7461 16.9863 17.8082 16.9863C17.8082 17.0466 17.8082 17.1069 17.8082 17.169C17.9288 17.1388 18.0493 17.1087 18.1735 17.0776C18.1735 17.0174 18.1735 16.9571 18.1735 16.895C18.2338 16.895 18.2941 16.895 18.3562 16.895C18.3562 16.8347 18.3562 16.7744 18.3562 16.7123C18.4164 16.7123 18.4767 16.7123 18.5388 16.7123C18.5388 16.6521 18.5388 16.5918 18.5388 16.5297C18.5991 16.5297 18.6594 16.5297 18.7215 16.5297C18.7215 16.4694 18.7215 16.4091 18.7215 16.347C18.842 16.2868 18.9626 16.2265 19.0868 16.1644C19.0868 16.0438 19.0868 15.9233 19.0868 15.7991C19.0265 15.7991 18.9662 15.7991 18.9041 15.7991C18.9041 15.7388 18.9041 15.6785 18.9041 15.6164C18.6633 15.3974 18.6633 15.3974 18.3562 15.3425C18.3562 15.2822 18.3562 15.2219 18.3562 15.1598C18.2959 15.1598 18.2356 15.1598 18.1735 15.1598C18.1735 15.0995 18.1735 15.0393 18.1735 14.9772C18.1132 14.9772 18.053 14.9772 17.9909 14.9772ZM4.47489 15.7991C4.47489 15.8594 4.47489 15.9196 4.47489 15.9817C4.41461 15.9817 4.35434 15.9817 4.29224 15.9817C4.29224 16.042 4.29224 16.1023 4.29224 16.1644C4.23196 16.1644 4.17169 16.1644 4.10959 16.1644C4.10959 16.2849 4.10959 16.4055 4.10959 16.5297C4.16986 16.5297 4.23014 16.5297 4.29224 16.5297C4.29224 16.59 4.29224 16.6502 4.29224 16.7123C4.41279 16.7425 4.53333 16.7726 4.65753 16.8037C4.65753 16.8639 4.65753 16.9242 4.65753 16.9863C4.77808 17.0164 4.89863 17.0466 5.02283 17.0776C5.02283 17.1379 5.02283 17.1982 5.02283 17.2603C5.0831 17.2603 5.14338 17.2603 5.20548 17.2603C5.20548 17.3205 5.20548 17.3808 5.20548 17.4429C5.32603 17.4429 5.44658 17.4429 5.57078 17.4429C5.57078 17.5032 5.57078 17.5635 5.57078 17.6256C5.9182 17.8266 5.9182 17.8266 6.30137 17.8995C6.24147 17.5699 6.24147 17.5699 6.11872 17.2603C6.05845 17.2603 5.99817 17.2603 5.93607 17.2603C5.92289 17.2038 5.9097 17.1473 5.89612 17.089C5.851 16.892 5.851 16.892 5.75342 16.7123C5.69315 16.7123 5.63288 16.7123 5.57078 16.7123C5.57078 16.6219 5.57078 16.5315 5.57078 16.4384C5.5105 16.4384 5.45023 16.4384 5.38813 16.4384C5.38813 16.3781 5.38813 16.3178 5.38813 16.2557C5.32785 16.2557 5.26758 16.2557 5.20548 16.2557C5.20548 16.1653 5.20548 16.0749 5.20548 15.9817C5.14521 15.9817 5.08493 15.9817 5.02283 15.9817C5.02283 15.9215 5.02283 15.8612 5.02283 15.7991C4.74437 15.7067 4.74437 15.7067 4.47489 15.7991ZM15.9817 16.895C15.9817 16.9553 15.9817 17.0155 15.9817 17.0776C15.9215 17.0776 15.8612 17.0776 15.7991 17.0776C15.7991 17.1379 15.7991 17.1982 15.7991 17.2603C15.7388 17.2603 15.6785 17.2603 15.6164 17.2603C15.6164 17.3205 15.6164 17.3808 15.6164 17.4429C15.5562 17.4429 15.4959 17.4429 15.4338 17.4429C15.4338 17.5032 15.4338 17.5635 15.4338 17.6256C15.3735 17.6256 15.3132 17.6256 15.2511 17.6256C15.1588 17.904 15.1588 17.904 15.2511 18.1735C15.3114 18.1735 15.3717 18.1735 15.4338 18.1735C15.4338 18.2338 15.4338 18.2941 15.4338 18.3562C15.4941 18.3562 15.5543 18.3562 15.6164 18.3562C15.6164 18.4164 15.6164 18.4767 15.6164 18.5388C15.6767 18.5388 15.737 18.5388 15.7991 18.5388C15.7991 18.5991 15.7991 18.6594 15.7991 18.7215C15.8594 18.7215 15.9196 18.7215 15.9817 18.7215C15.9817 18.7817 15.9817 18.842 15.9817 18.9041C16.1023 18.9041 16.2228 18.9041 16.347 18.9041C16.347 18.8438 16.347 18.7836 16.347 18.7215C16.4073 18.7215 16.4676 18.7215 16.5297 18.7215C16.5297 18.6612 16.5297 18.6009 16.5297 18.5388C16.59 18.5388 16.6502 18.5388 16.7123 18.5388C16.7123 18.4785 16.7123 18.4183 16.7123 18.3562C16.7726 18.3562 16.8329 18.3562 16.895 18.3562C17.1966 18.0409 17.1966 18.0409 17.2603 17.6256C17.2 17.6256 17.1397 17.6256 17.0776 17.6256C17.0776 17.5653 17.0776 17.505 17.0776 17.4429C17.0174 17.4429 16.9571 17.4429 16.895 17.4429C16.895 17.3826 16.895 17.3224 16.895 17.2603C16.8347 17.2603 16.7744 17.2603 16.7123 17.2603C16.7123 17.2 16.7123 17.1397 16.7123 17.0776C16.3808 16.7872 16.3808 16.7872 15.9817 16.895Z" fill="white"/>
</svg>
