<svg width="12" height="20" viewBox="0 0 12 20" fill="none" xmlns="http://www.w3.org/2000/svg">
<path fill-rule="evenodd" clip-rule="evenodd" d="M4.48242 0.0387677C6.11418 0.272673 7.83975 0.670118 9.10637 1.67371C9.18184 1.73004 9.25742 1.78628 9.33518 1.84432L9.25107 2.12971L9.50868 2.20564C9.46743 2.36587 9.42022 2.52505 9.36825 2.68213C9.31659 2.70103 9.26469 2.71962 9.21147 2.73909C9.16339 2.83375 9.11504 2.92841 9.06551 3.02594C8.90119 3.33905 8.70936 3.5943 8.46108 3.8632L8.71787 3.93888L8.66173 4.12935L8.91935 4.20528L8.86321 4.39575L9.37761 4.54735L9.32148 4.73783L9.57826 4.81351L9.52231 5.00335L9.7791 5.07903L9.72296 5.2695L9.98058 5.34543L9.92444 5.5359L10.1812 5.61158C10.2252 5.93184 10.2256 5.9322 10.2704 6.25892L10.5272 6.3346L10.4149 6.71554L10.6726 6.79147L10.5605 7.17179L10.8173 7.24747C10.8233 7.31314 10.829 7.37923 10.8353 7.44689C10.8438 7.53696 10.8525 7.62717 10.8614 7.71997C10.8703 7.81793 10.8793 7.91618 10.8885 8.01711C10.9164 8.30353 10.9164 8.30376 10.9726 8.553C11.126 9.29447 10.9736 9.9672 10.6625 10.6166C10.3707 10.8848 10.3705 10.8848 10.1087 11.0737L9.85188 10.9981L9.79574 11.1885L9.41015 11.0749L9.35402 11.2654L8.32521 10.9622L8.38135 10.7717L7.86695 10.6201L7.92308 10.4296L7.6663 10.3539L7.75041 10.0685L7.49279 9.99261L7.60507 9.61167L7.34828 9.53599L7.54466 8.86965L7.28705 8.79373C7.3032 8.71024 7.31965 8.62682 7.3363 8.54082C7.35652 8.43247 7.3771 8.32377 7.39794 8.21215C7.41841 8.10418 7.43811 7.99596 7.45921 7.88473C7.5304 7.63341 7.5307 7.63342 7.39487 7.48092C7.42069 7.2587 7.46212 7.04076 7.50246 6.82167C7.51987 6.57292 7.46062 6.38106 7.37407 6.12952C7.33155 6.25598 7.33129 6.25606 7.2879 6.38512C7.18024 6.70472 7.07207 7.02429 6.96384 7.3437C6.9175 7.48068 6.87153 7.6179 6.82547 7.75496C6.7584 7.95444 6.69067 8.15371 6.62302 8.353C6.58275 8.47226 6.54253 8.59192 6.50104 8.71479C6.38025 9.05983 6.24108 9.39741 6.10079 9.73576C5.82706 10.4108 5.60632 11.0991 5.39649 11.7945C5.33052 12.0126 5.26378 12.2305 5.19659 12.4483C5.0059 13.0664 4.81596 13.685 4.62882 14.3043C4.51343 14.6858 4.3958 15.0669 4.27742 15.4475C4.23305 15.5914 4.18933 15.7357 4.14636 15.88C3.92628 16.6181 3.72059 17.2476 3.09494 17.8018C2.9868 17.9504 2.88387 18.1018 2.78759 18.2562C2.73667 18.3352 2.68547 18.4144 2.633 18.4958C2.52911 18.6595 2.4255 18.8237 2.32347 18.9882C2.27264 19.0664 2.222 19.1447 2.16962 19.2253C2.10272 19.3317 2.10302 19.3321 2.03477 19.4407C1.82106 19.654 1.61588 19.6915 1.2649 19.7453C0.982975 19.6072 0.98248 19.6077 0.67764 19.3659C0.58619 19.0745 0.53052 18.8239 0.494292 18.5353C0.470224 18.3769 0.446489 18.2185 0.422133 18.06C0.411091 17.9833 0.399974 17.9065 0.388597 17.8275C0.347279 17.562 0.285397 17.2978 0.221066 17.0322C0.107613 16.5179 0.0902379 16.0214 0.0824156 15.5137C0.0851614 15.261 0.0847837 15.2609 0 15.0272C0.0311515 14.8537 0.0705255 14.6821 0.113164 14.5114C0.139676 14.4041 0.165677 14.296 0.192993 14.1854C0.237213 14.0102 0.237802 14.01 0.282949 13.8311C0.312962 13.7101 0.342989 13.589 0.37391 13.4643C0.454387 13.14 0.535198 12.8153 0.616446 12.4912C1.16022 10.3251 1.16003 10.3249 1.67683 8.15161C1.69636 8.06855 1.71649 7.98534 1.7366 7.89976C1.80841 7.58311 1.86055 7.30996 1.81441 6.97381C1.83766 6.83129 1.86728 6.68997 1.90052 6.54986C1.92837 6.42882 1.92798 6.42864 1.95642 6.30502C1.99652 6.13563 2.03715 5.96636 2.07725 5.79696C2.10401 5.68066 2.10476 5.67552 2.12993 5.56611L2.20351 4.96403C2.19635 4.92137 2.18709 4.86981 2.17475 4.80419C2.20229 4.7022 2.23064 4.60026 2.26023 4.49884L2.52714 2.32137L2.36177 2.27263L2.53018 1.70121L2.27256 1.62529L2.66533 0.292611L2.91214 0.365352L2.94564 0.251693L2.98667 0.296364C3.00893 0.271101 3.03157 0.245772 3.05435 0.219931C3.46459 -0.0490269 3.91105 -0.0184959 4.48242 0.0387677ZM1.81434 12.665C1.26415 13.3945 1.26378 14.3 1.21375 15.1779L1.47053 15.2536C1.72182 14.4587 1.91709 13.6632 2.04315 12.8356C1.96767 12.7793 1.89209 12.7231 1.81434 12.665ZM8.06832 5.19588L8.3251 5.27156L8.21283 5.6525L8.47044 5.72843L8.3302 6.2043L8.58698 6.27997L8.3906 6.94631L8.64822 7.02224L8.22729 8.45046L8.48407 8.52614L8.25971 9.28741L8.5165 9.36309L8.40423 9.74403L8.66184 9.81995L8.57773 10.1053C8.82299 10.2118 9.06807 10.3185 9.32076 10.4282L9.37689 10.2377L9.63451 10.3136C10.0757 9.11297 10.075 9.11276 9.94951 7.81979C9.94038 7.67987 9.9347 7.54017 9.9338 7.40113L9.67619 7.3252L9.78846 6.94426L9.53167 6.86858L9.61578 6.58318L9.35817 6.50726L9.44228 6.22186L9.1855 6.14618L9.24163 5.95571L8.98485 5.88003L9.09712 5.49909L8.8395 5.42316L8.89564 5.23269L8.38124 5.08109L8.43737 4.89062L8.18059 4.81494L8.06832 5.19588ZM8.1941 1.92205C7.15589 1.31585 5.33335 0.870021 4.1524 0.937896L4.09626 1.12837C4.68138 1.50645 5.21827 1.69761 5.89794 1.89217C6.0386 1.93482 6.03895 1.93454 6.18243 1.97805C6.75811 2.14606 7.23618 2.22758 7.82505 2.22732L7.88118 2.03684L8.13797 2.11252L8.1941 1.92205Z" fill="white"/>
</svg>
